<svg version="1.1" id="Layer_1" xmlns="http://www.w3.org/2000/svg" xmlns:xlink="http://www.w3.org/1999/xlink" x="0px" y="0px"
	 width="100%" viewBox="0 0 334 318" enable-background="new 0 0 334 318" xml:space="preserve">
<path fill="#FEFEFE" opacity="1.000000" stroke="none" 
	d="
M187.000000,319.000000 
	C124.666687,319.000000 62.833378,319.000000 1.000050,319.000000 
	C1.000033,213.000061 1.000033,107.000122 1.000017,1.000135 
	C112.333229,1.000090 223.666458,1.000090 334.999756,1.000045 
	C334.999847,106.999855 334.999847,212.999710 334.999939,318.999786 
	C285.833344,319.000000 236.666672,319.000000 187.000000,319.000000 
M244.294601,125.833580 
	C244.294601,125.833580 244.490570,125.482407 245.240829,125.383629 
	C270.879730,116.848640 297.422119,113.166527 325.450623,110.838882 
	C323.391022,109.841331 322.423035,109.329147 321.421631,108.893875 
	C301.816071,100.372353 281.285126,97.531654 260.362457,98.331116 
	C266.385742,93.967163 272.372406,89.551414 278.447540,85.260857 
	C281.539948,83.076851 284.791351,81.117958 287.996674,78.259674 
	C287.983276,77.460266 287.969849,76.660866 288.263428,75.672356 
	C288.263428,75.672356 288.622772,75.643265 289.183868,76.066559 
	C289.585602,77.080620 289.987366,78.094681 290.458191,79.283142 
	C293.061646,78.289139 295.755188,77.465523 298.209808,76.184250 
	C298.849304,75.850441 298.744019,74.089760 298.671356,72.368370 
	C297.777100,72.184875 296.882843,72.001381 295.536560,71.376183 
	C294.365417,71.502716 293.194305,71.629250 291.088257,71.852165 
	C285.424072,71.886467 279.757751,71.832176 274.096130,71.971344 
	C255.544662,72.427361 237.243423,74.559517 219.690155,80.966156 
	C201.818787,87.488907 187.000992,97.605583 180.245697,116.441299 
	C176.572693,126.682755 176.204773,137.271362 178.167648,148.458527 
	C178.419632,148.664200 178.671631,148.869858 178.946655,149.054916 
	C178.946655,149.054916 178.912582,149.087631 178.911499,149.929260 
	C180.301743,155.632843 181.692001,161.336441 183.224838,167.732819 
	C186.864044,175.379028 189.968262,183.338333 194.229630,190.620468 
	C221.150452,236.624680 258.544128,272.016815 304.715759,298.282867 
	C307.254303,299.726959 310.751312,299.486237 313.802185,300.029785 
	C312.978729,297.212524 312.767517,293.994568 311.229645,291.644867 
	C302.966797,279.020020 294.373871,266.611176 285.790619,253.555588 
	C285.251312,253.017929 284.712006,252.480270 284.073761,251.356491 
	C283.758759,250.879181 283.443756,250.401871 282.837616,249.303864 
	C270.072968,229.866348 257.516388,210.308990 248.393356,188.799942 
	C242.451553,174.791214 237.906113,160.351273 238.338959,144.997284 
	C238.508499,138.983505 240.791077,133.029282 242.675400,127.026222 
	C243.133301,126.734856 243.591202,126.443489 244.294601,125.833580 
M94.479691,124.620384 
	C96.920273,125.106613 99.360863,125.592842 102.179390,126.735657 
	C106.806084,137.084656 106.038757,147.954819 104.406494,158.612396 
	C101.101807,180.189697 91.805595,199.644882 80.434326,217.904877 
	C64.883110,242.877045 48.274563,267.189514 32.287987,291.893951 
	C30.825176,294.154480 30.584860,297.206055 29.776869,299.890320 
	C32.728519,299.568756 35.680470,299.249817 38.630993,298.918274 
	C38.786228,298.900818 38.930050,298.777283 39.078121,298.701111 
	C85.278061,274.931610 121.689621,240.645447 147.732315,195.780716 
	C153.978790,185.019684 157.415833,172.627884 162.698761,160.536194 
	C163.396851,156.647263 164.094955,152.758331 165.061600,148.091537 
	C167.937988,129.254623 164.090897,112.323860 150.569366,98.314339 
	C141.432236,88.847450 129.937622,83.310577 117.568359,79.407623 
	C93.764931,71.896797 69.294136,71.392052 43.412441,72.139565 
	C45.411018,73.075882 46.240623,73.464546 47.035278,74.618874 
	C48.723133,76.064941 50.410992,77.511009 52.810009,79.053368 
	C64.189095,84.112503 75.042320,89.994720 83.012413,99.009178 
	C60.196453,99.224174 37.953243,102.694321 16.394768,110.207420 
	C26.379276,111.929153 36.275436,112.908112 46.158401,114.005882 
	C62.436604,115.814026 78.559654,118.389412 94.479691,124.620384 
M204.992722,61.535614 
	C206.314377,62.543972 207.573029,63.650600 208.967865,64.544792 
	C218.226456,70.480232 232.776093,70.045967 239.879211,61.829651 
	C244.160172,56.877785 246.128845,49.609360 248.103409,43.069946 
	C250.101898,36.451225 247.684525,30.189428 243.390060,24.950212 
	C234.453537,14.047663 216.769485,13.123815 205.673447,22.748848 
	C195.914658,31.213913 192.512558,49.626568 204.992722,61.535614 
M102.270317,22.746031 
	C92.831528,33.147690 92.551147,44.462898 101.312920,55.534019 
	C102.043625,56.457317 101.964973,58.021152 102.262360,59.287388 
	C108.595772,67.272026 117.475876,70.109871 127.586807,67.516396 
	C137.127014,65.069298 143.616516,58.884163 146.072159,49.169510 
	C148.846344,38.194721 144.274246,26.537531 135.298370,20.782969 
	C124.814850,14.061840 112.853134,14.608507 102.270317,22.746031 
M44.382828,75.476791 
	C44.382828,75.476791 44.548595,75.573059 44.548595,75.573059 
	C44.548595,75.573059 44.526054,75.381729 44.382828,75.476791 
z"/>
<path fill="#DA367A" opacity="1.000000" stroke="none" 
	d="
M162.144958,160.986084 
	C157.415833,172.627884 153.978790,185.019684 147.732315,195.780716 
	C121.689621,240.645447 85.278061,274.931610 39.078121,298.701111 
	C38.930050,298.777283 38.786228,298.900818 38.630993,298.918274 
	C35.680470,299.249817 32.728519,299.568756 29.776871,299.890320 
	C30.584860,297.206055 30.825176,294.154480 32.287987,291.893951 
	C48.274563,267.189514 64.883110,242.877045 80.434326,217.904877 
	C91.805595,199.644882 101.101807,180.189697 104.406494,158.612396 
	C106.038757,147.954819 106.806084,137.084656 102.040054,126.055511 
	C101.597992,124.252853 101.295265,123.130341 100.873932,121.781601 
	C100.466507,121.386307 100.177704,121.217232 99.909042,121.085953 
	C99.929176,121.123749 99.861771,121.176613 99.874397,120.800323 
	C96.941216,111.503120 90.871140,104.901619 83.938095,98.940781 
	C75.042320,89.994720 64.189095,84.112503 52.538673,78.702972 
	C52.855835,78.149689 53.444332,77.946808 54.454056,77.770889 
	C55.343655,77.178207 55.812027,76.558563 55.984070,75.689247 
	C52.815235,74.910774 49.942734,74.381989 47.070229,73.853203 
	C46.240623,73.464546 45.411018,73.075882 43.412441,72.139565 
	C69.294136,71.392052 93.764931,71.896797 117.568359,79.407623 
	C129.937622,83.310577 141.432236,88.847450 150.569366,98.314339 
	C164.090897,112.323860 167.937988,129.254623 164.598969,148.496094 
	C163.091827,149.599350 162.047318,150.298065 160.999878,150.578522 
	C160.461487,148.772354 159.926041,147.384430 159.390579,145.996506 
	C158.231491,147.041168 157.072418,148.085831 155.913330,149.130493 
	C155.850082,148.872787 155.786835,148.615082 155.723572,148.357361 
	C153.551285,149.246262 151.378983,150.135147 149.206680,151.024048 
	C150.303787,151.843613 151.400894,152.663177 152.684799,153.622284 
	C151.821442,154.420700 150.409622,155.229111 149.787628,156.442413 
	C149.174606,157.638184 148.932144,159.392593 149.355087,160.615555 
	C149.618042,161.375961 151.383286,161.787323 152.541504,162.018631 
	C153.649261,162.239853 154.844009,162.025482 156.335632,162.002441 
	C157.117203,161.983521 157.563644,161.964752 158.338776,162.007812 
	C159.112274,162.052765 159.557053,162.035889 160.283356,161.918121 
	C161.091553,161.540192 161.618256,161.263138 162.144958,160.986084 
M107.416229,103.224800 
	C93.829918,88.241066 76.409203,80.588295 56.981625,76.802612 
	C57.833168,78.054115 59.014706,78.660019 60.245331,79.140045 
	C64.581886,80.831596 68.984596,82.362526 73.274460,84.163414 
	C105.881279,97.851776 120.142807,124.192757 114.194130,159.150711 
	C110.623878,180.131653 102.100395,199.178040 92.005951,217.642044 
	C88.507668,224.040878 84.730118,230.287048 81.080124,236.602936 
	C81.480385,236.872589 81.880646,237.142258 82.280907,237.411911 
	C84.799622,234.127747 87.520218,230.977448 89.802231,227.536316 
	C99.860657,212.368866 108.714851,196.523056 114.555748,179.232269 
	C122.383125,156.060989 125.660728,132.872269 112.821083,109.327080 
	C112.883545,107.508667 113.333221,105.588219 112.889244,103.903244 
	C112.515884,102.486305 111.102402,101.343437 110.149384,100.079239 
	C109.410965,101.295357 108.672546,102.511475 107.416229,103.224800 
M107.983055,210.142029 
	C109.471390,210.754227 110.959717,211.366425 112.935890,212.179291 
	C112.935890,208.837921 113.206871,206.635101 112.811043,204.559464 
	C112.637154,203.647659 111.104721,202.994919 110.189140,202.224548 
	C109.504707,203.174210 108.510330,204.036896 108.213364,205.095276 
	C107.832092,206.454117 108.011185,207.970200 107.983055,210.142029 
z"/>
<path fill="#50ABE9" opacity="1.000000" stroke="none" 
	d="
M178.175247,147.949432 
	C176.204773,137.271362 176.572693,126.682755 180.245697,116.441299 
	C187.000992,97.605583 201.818787,87.488907 219.690155,80.966156 
	C237.243423,74.559517 255.544662,72.427361 274.096130,71.971344 
	C279.757751,71.832176 285.424072,71.886467 291.945557,71.892822 
	C293.864777,71.894943 294.926666,71.856415 295.988586,71.817879 
	C296.882843,72.001381 297.777100,72.184875 298.436798,72.729507 
	C295.009094,73.941528 291.815918,74.792397 288.622772,75.643265 
	C288.622772,75.643265 288.263428,75.672356 287.707489,75.775375 
	C283.710510,76.891365 280.269501,77.904343 276.460785,78.943436 
	C266.907074,83.411407 257.200958,87.049881 248.701370,92.552147 
	C242.035446,96.867371 236.862183,103.488396 231.029297,108.638565 
	C230.997009,106.227173 231.184875,104.219666 230.822708,102.316864 
	C230.662628,101.475815 229.487427,100.622849 228.576309,100.217239 
	C228.127121,100.017273 226.912598,100.638687 226.588165,101.201752 
	C224.456345,104.901688 226.819260,108.926079 231.058777,109.392776 
	C221.415787,127.250053 220.469757,145.707672 224.945343,164.750854 
	C230.775726,189.558563 243.007187,211.338516 257.090149,232.209625 
	C257.859558,233.349869 259.694885,233.770859 261.027374,234.511292 
	C261.020691,234.495941 261.003601,234.467148 260.646118,234.515594 
	C260.466949,235.406082 260.645233,236.248154 260.903412,237.425934 
	C262.993103,240.184830 265.002930,242.607971 267.008911,245.013550 
	C267.005127,244.995987 266.975861,244.975128 266.964905,245.291962 
	C267.297852,246.077682 267.641754,246.546570 267.988708,247.409927 
	C267.992981,248.856277 267.994202,249.908188 267.687622,251.120499 
	C265.032959,253.056229 263.649841,254.836319 266.624573,256.197083 
	C266.143616,258.806763 264.640839,261.921265 265.582062,263.125275 
	C266.766815,264.640869 269.949402,264.594666 273.048584,265.432922 
	C273.048584,261.015839 273.048584,257.571320 273.332031,254.408356 
	C273.862183,257.993439 274.108856,261.296967 274.361786,264.683990 
	C276.116302,264.440704 277.511047,264.247314 279.069061,264.280396 
	C279.838135,264.359039 280.443909,264.211212 281.057800,264.052765 
	C281.065948,264.042175 281.071564,264.074371 281.383972,264.075439 
	C282.112701,264.086700 282.528992,264.096863 283.211609,264.339722 
	C283.999695,263.465027 284.765015,262.405182 284.992096,261.240387 
	C285.448395,258.899811 285.611084,256.501953 285.894958,254.127747 
	C294.373871,266.611176 302.966797,279.020020 311.229645,291.644867 
	C312.767517,293.994568 312.978729,297.212524 313.802185,300.029785 
	C310.751312,299.486237 307.254303,299.726959 304.715759,298.282867 
	C258.544128,272.016815 221.150452,236.624680 194.229630,190.620468 
	C189.968262,183.338333 186.864044,175.379028 183.584854,167.363419 
	C186.121735,166.554794 188.634186,166.641251 190.379929,165.526703 
	C192.084549,164.438431 191.036865,151.491837 188.591385,147.731171 
	C188.227386,152.325974 187.964447,155.645248 187.701508,158.964523 
	C187.392365,158.957901 187.083237,158.951294 186.774109,158.944672 
	C186.774109,155.753311 186.774109,152.561966 186.774109,149.087631 
	C183.735779,149.087631 181.324188,149.087631 178.912582,149.087631 
	C178.912582,149.087631 178.946655,149.054916 178.894196,148.829956 
	C178.702240,148.302383 178.480087,148.083862 178.175247,147.949432 
M231.035294,206.681274 
	C230.150452,205.185349 229.265594,203.689438 228.380753,202.193512 
	C227.597214,204.393280 226.498123,206.549789 226.187637,208.814407 
	C226.065887,209.702454 227.710953,210.832733 228.551361,211.852692 
	C229.379517,210.413696 230.207672,208.974701 231.035294,206.681274 
z"/>
<path fill="#444446" opacity="1.000000" stroke="none" 
	d="
M204.729935,61.288078 
	C192.512558,49.626568 195.914658,31.213913 205.673447,22.748848 
	C216.769485,13.123815 234.453537,14.047663 243.390060,24.950212 
	C247.684525,30.189428 250.101898,36.451225 248.103409,43.069946 
	C246.128845,49.609360 244.160172,56.877785 239.879211,61.829651 
	C232.776093,70.045967 218.226456,70.480232 208.967865,64.544792 
	C207.573029,63.650600 206.314377,62.543972 204.729935,61.288078 
z"/>
<path fill="#444446" opacity="1.000000" stroke="none" 
	d="
M102.538063,22.506977 
	C112.853134,14.608507 124.814850,14.061840 135.298370,20.782969 
	C144.274246,26.537531 148.846344,38.194721 146.072159,49.169510 
	C143.616516,58.884163 137.127014,65.069298 127.586807,67.516396 
	C117.475876,70.109871 108.595772,67.272026 102.262360,59.287388 
	C101.964973,58.021152 102.043625,56.457317 101.312920,55.534019 
	C92.551147,44.462898 92.831528,33.147690 102.538063,22.506977 
z"/>
<path fill="#53ACE6" opacity="1.000000" stroke="none" 
	d="
M267.995422,250.960083 
	C267.994202,249.908188 267.992981,248.856277 268.004700,247.078476 
	C267.670380,245.893417 267.323120,245.434265 266.975861,244.975128 
	C266.975861,244.975128 267.005127,244.995987 267.122467,244.652557 
	C265.508209,241.515076 263.776642,238.721024 261.937225,235.640991 
	C261.554138,235.059067 261.278870,234.763107 261.003601,234.467148 
	C261.003601,234.467148 261.020691,234.495941 260.944977,234.141968 
	C258.878571,230.371246 256.861786,226.969406 254.901489,223.535324 
	C244.144119,204.690353 234.875732,185.242157 230.297821,163.836060 
	C226.068161,144.058289 226.788101,124.943245 239.124054,107.995583 
	C249.300339,94.014931 263.461487,85.350227 280.276520,80.389114 
	C283.077057,79.964592 285.523987,79.510956 287.970886,79.057312 
	C284.791351,81.117958 281.539948,83.076851 278.447540,85.260857 
	C272.372406,89.551414 266.385742,93.967163 259.882935,98.718063 
	C252.468063,105.175514 246.212296,111.720512 244.019470,121.081375 
	C244.002411,121.048576 244.062744,121.006599 243.844238,121.093071 
	C243.351883,121.348938 243.142105,121.577217 242.845276,122.180099 
	C242.454010,123.383278 242.213867,124.270729 242.006012,125.478394 
	C242.034302,126.013123 242.030304,126.227646 242.055511,126.592491 
	C242.084747,126.742813 242.111282,127.047935 242.111282,127.047935 
	C240.791077,133.029282 238.508499,138.983505 238.338959,144.997284 
	C237.906113,160.351273 242.451553,174.791214 248.393356,188.799942 
	C257.516388,210.308990 270.072968,229.866348 282.840912,249.851227 
	C282.572906,250.643845 282.301605,250.889130 281.687805,251.114899 
	C280.889404,251.125519 280.433472,251.155670 279.765076,251.244049 
	C279.288696,251.469116 279.122803,251.704971 278.745972,252.119781 
	C277.494232,250.834625 276.551514,249.439560 275.230438,247.484634 
	C274.330292,249.694611 273.661438,251.336639 272.735046,252.777573 
	C272.010712,249.189178 269.714539,250.874680 267.995422,250.960083 
z"/>
<path fill="#3D7EBF" opacity="1.000000" stroke="none" 
	d="
M244.036514,121.114174 
	C246.212296,111.720512 252.468063,105.175514 259.735474,99.012482 
	C281.285126,97.531654 301.816071,100.372353 321.421631,108.893875 
	C322.423035,109.329147 323.391022,109.841331 325.450623,110.838882 
	C297.422119,113.166527 270.879730,116.848640 244.695709,125.255592 
	C244.150589,125.127556 243.817276,124.773407 244.020020,124.494888 
	C257.866699,116.317825 273.127167,113.515099 288.318146,110.331535 
	C286.268951,109.927666 284.288361,109.816597 282.323547,109.945557 
	C268.740234,110.837029 256.039642,114.788193 244.036514,121.114174 
z"/>
<path fill="#BA387E" opacity="1.000000" stroke="none" 
	d="
M83.475250,98.974976 
	C90.871140,104.901619 96.941216,111.503120 99.523415,120.736893 
	C83.904945,112.838768 64.723763,108.294159 54.420906,110.694870 
	C57.321838,111.172241 59.812923,111.331619 62.153202,112.010696 
	C72.245407,114.939186 82.310600,117.965897 92.324692,121.148582 
	C93.121735,121.401894 93.453804,123.118187 94.001961,124.154594 
	C78.559654,118.389412 62.436604,115.814026 46.158401,114.005882 
	C36.275436,112.908112 26.379276,111.929153 16.394768,110.207420 
	C37.953243,102.694321 60.196453,99.224174 83.475250,98.974976 
z"/>
<path fill="#8BD1F2" opacity="1.000000" stroke="none" 
	d="
M178.912048,149.508453 
	C181.324188,149.087631 183.735779,149.087631 186.774109,149.087631 
	C186.774109,152.561966 186.774109,155.753311 186.774109,158.944672 
	C187.083237,158.951294 187.392365,158.957901 187.701508,158.964523 
	C187.964447,155.645248 188.227386,152.325974 188.591385,147.731171 
	C191.036865,151.491837 192.084549,164.438431 190.379929,165.526703 
	C188.634186,166.641251 186.121735,166.554794 183.513550,167.017029 
	C181.692001,161.336441 180.301743,155.632843 178.912048,149.508453 
z"/>
<path fill="#F1DEEC" opacity="1.000000" stroke="none" 
	d="
M94.240829,124.387489 
	C93.453804,123.118187 93.121735,121.401894 92.324692,121.148582 
	C82.310600,117.965897 72.245407,114.939186 62.153202,112.010696 
	C59.812923,111.331619 57.321838,111.172241 54.420906,110.694870 
	C64.723763,108.294159 83.904945,112.838768 99.510788,121.113174 
	C99.861771,121.176613 99.929176,121.123749 99.998764,121.334198 
	C100.376411,121.699043 100.684471,121.853432 100.992538,122.007828 
	C101.295265,123.130341 101.597992,124.252853 101.851074,125.727226 
	C99.360863,125.592842 96.920273,125.106613 94.240829,124.387489 
z"/>
<path fill="#97D7F3" opacity="1.000000" stroke="none" 
	d="
M272.992615,252.978683 
	C273.661438,251.336639 274.330292,249.694611 275.230438,247.484634 
	C276.551514,249.439560 277.494232,250.834625 278.938354,252.029083 
	C279.684692,251.669205 279.863953,251.454987 279.977539,251.185806 
	C280.433472,251.155670 280.889404,251.125519 281.882507,251.342300 
	C283.004028,251.707016 283.588348,251.824799 284.172699,251.942596 
	C284.712006,252.480270 285.251312,253.017929 285.842773,253.841675 
	C285.611084,256.501953 285.448395,258.899811 284.992096,261.240387 
	C284.765015,262.405182 283.999695,263.465027 283.231018,263.905853 
	C282.661255,260.496857 282.338318,257.754364 282.153870,254.953949 
	C282.191010,254.925705 282.089661,254.955429 281.699768,254.877548 
	C280.177734,254.879547 278.944275,254.989136 277.173676,255.146469 
	C278.622223,258.464264 279.846893,261.269318 281.071594,264.074371 
	C281.071564,264.074371 281.065948,264.042175 280.700928,264.031891 
	C279.859192,264.032379 279.382477,264.043152 278.905762,264.053894 
	C277.511047,264.247314 276.116302,264.440704 274.361786,264.683990 
	C274.108856,261.296967 273.862183,257.993439 273.311584,254.121063 
	C273.002655,253.361023 272.997620,253.169846 272.992615,252.978683 
z"/>
<path fill="#E483B5" opacity="1.000000" stroke="none" 
	d="
M161.002823,150.996796 
	C162.047318,150.298065 163.091827,149.599350 164.464691,148.885010 
	C164.094955,152.758331 163.396851,156.647263 162.421860,160.761139 
	C161.618256,161.263138 161.091553,161.540192 160.281937,161.492157 
	C159.339554,159.115265 158.680084,157.063461 158.016083,154.674988 
	C158.012970,153.889328 158.014359,153.440338 158.327942,152.957504 
	C159.427704,152.281387 160.215256,151.639084 161.002823,150.996796 
z"/>
<path fill="#E0F3F7" opacity="1.000000" stroke="none" 
	d="
M288.903320,75.854919 
	C291.815918,74.792397 295.009094,73.941528 298.591522,73.037537 
	C298.744019,74.089760 298.849304,75.850441 298.209808,76.184250 
	C295.755188,77.465523 293.061646,78.289139 290.458191,79.283142 
	C289.987366,78.094681 289.585602,77.080620 288.903320,75.854919 
z"/>
<path fill="#F3DCEB" opacity="1.000000" stroke="none" 
	d="
M54.032829,77.743927 
	C53.444332,77.946808 52.855835,78.149689 52.183090,78.654831 
	C50.410992,77.511009 48.723133,76.064941 47.052753,74.236038 
	C49.942734,74.381989 52.815235,74.910774 55.654503,75.736710 
	C55.091789,76.603874 54.562309,77.173897 54.032829,77.743927 
z"/>
<path fill="#E0F3F7" opacity="1.000000" stroke="none" 
	d="
M287.983765,78.658493 
	C285.523987,79.510956 283.077057,79.964592 280.177429,80.105408 
	C278.759308,79.500824 277.793884,79.209068 276.828461,78.917320 
	C280.269501,77.904343 283.710510,76.891365 287.553986,75.869919 
	C287.969849,76.660866 287.983276,77.460266 287.983765,78.658493 
z"/>
<path fill="#E0F3F7" opacity="1.000000" stroke="none" 
	d="
M295.762573,71.597031 
	C294.926666,71.856415 293.864777,71.894943 292.413025,71.844635 
	C293.194305,71.629250 294.365417,71.502716 295.762573,71.597031 
z"/>
<path fill="#8CD3F3" opacity="1.000000" stroke="none" 
	d="
M284.123230,251.649536 
	C283.588348,251.824799 283.004028,251.707016 282.224976,251.361816 
	C282.301605,250.889130 282.572906,250.643845 282.986481,250.161575 
	C283.443756,250.401871 283.758759,250.879181 284.123230,251.649536 
z"/>
<path fill="#DDEDF3" opacity="1.000000" stroke="none" 
	d="
M242.393341,127.037079 
	C242.111282,127.047935 242.084747,126.742813 242.380951,126.468437 
	C243.134460,126.180084 243.591782,126.166107 244.049103,126.152122 
	C243.591202,126.443489 243.133301,126.734856 242.393341,127.037079 
z"/>
<path fill="#3D7EBF" opacity="1.000000" stroke="none" 
	d="
M244.171844,125.992859 
	C243.591782,126.166107 243.134460,126.180084 242.351715,126.318115 
	C242.030304,126.227646 242.034302,126.013123 242.313721,125.412704 
	C242.998535,124.942329 243.407898,124.857864 243.817276,124.773407 
	C243.817276,124.773407 244.150589,125.127556 244.320587,125.304977 
	C244.490570,125.482407 244.294601,125.833580 244.171844,125.992859 
z"/>
<path fill="#8BD1F2" opacity="1.000000" stroke="none" 
	d="
M178.171448,148.203979 
	C178.480087,148.083862 178.702240,148.302383 178.882660,148.840256 
	C178.671631,148.869858 178.419632,148.664200 178.171448,148.203979 
z"/>
<path fill="#F3DCEB" opacity="1.000000" stroke="none" 
	d="
M44.454441,75.429260 
	C44.526054,75.381729 44.548595,75.573059 44.548595,75.573059 
	C44.548595,75.573059 44.382828,75.476791 44.454441,75.429260 
z"/>
<path fill="#F8EEF5" opacity="1.000000" stroke="none" 
	d="
M112.569641,110.233826 
	C125.660728,132.872269 122.383125,156.060989 114.555748,179.232269 
	C108.714851,196.523056 99.860657,212.368866 89.802231,227.536316 
	C87.520218,230.977448 84.799622,234.127747 82.280907,237.411911 
	C81.880646,237.142258 81.480385,236.872589 81.080124,236.602936 
	C84.730118,230.287048 88.507668,224.040878 92.005951,217.642044 
	C102.100395,199.178040 110.623878,180.131653 114.194130,159.150711 
	C120.142807,124.192757 105.881279,97.851776 73.274460,84.163414 
	C68.984596,82.362526 64.581886,80.831596 60.245331,79.140045 
	C59.014706,78.660019 57.833168,78.054115 56.981625,76.802612 
	C76.409203,80.588295 93.829918,88.241066 107.741859,103.755226 
	C109.568207,106.268379 111.068924,108.251106 112.569641,110.233826 
z"/>
<path fill="#E886BC" opacity="1.000000" stroke="none" 
	d="
M160.999878,150.578537 
	C160.215256,151.639084 159.427704,152.281387 158.082596,152.715103 
	C157.016876,155.671875 156.508698,158.837234 156.000519,162.002579 
	C154.844009,162.025482 153.649261,162.239853 152.541504,162.018631 
	C151.383286,161.787323 149.618042,161.375961 149.355087,160.615555 
	C148.932144,159.392593 149.174606,157.638184 149.787628,156.442413 
	C150.409622,155.229111 151.821442,154.420700 152.684799,153.622284 
	C151.400894,152.663177 150.303787,151.843613 149.206680,151.024048 
	C151.378983,150.135147 153.551285,149.246262 155.723572,148.357361 
	C155.786835,148.615082 155.850082,148.872787 155.913330,149.130493 
	C157.072418,148.085831 158.231491,147.041168 159.390579,145.996506 
	C159.926041,147.384430 160.461487,148.772354 160.999878,150.578537 
M153.537552,156.839355 
	C153.433151,157.558731 153.328766,158.278107 153.224365,158.997498 
	C153.446289,159.008728 153.668228,159.019958 153.890152,159.031189 
	C153.890152,158.431961 153.890152,157.832733 153.537552,156.839355 
z"/>
<path fill="#E77AB2" opacity="1.000000" stroke="none" 
	d="
M107.965958,209.780273 
	C108.011185,207.970200 107.832092,206.454117 108.213364,205.095276 
	C108.510330,204.036896 109.504707,203.174210 110.189140,202.224548 
	C111.104721,202.994919 112.637154,203.647659 112.811043,204.559464 
	C113.206871,206.635101 112.935890,208.837921 112.935890,212.179291 
	C110.959717,211.366425 109.471390,210.754227 107.965958,209.780273 
z"/>
<path fill="#E584B6" opacity="1.000000" stroke="none" 
	d="
M112.695358,109.780457 
	C111.068924,108.251106 109.568207,106.268379 108.000809,104.006622 
	C108.672546,102.511475 109.410965,101.295357 110.149384,100.079239 
	C111.102402,101.343437 112.515884,102.486305 112.889244,103.903244 
	C113.333221,105.588219 112.883545,107.508667 112.695358,109.780457 
z"/>
<path fill="#E67EB2" opacity="1.000000" stroke="none" 
	d="
M156.335632,162.002441 
	C156.508698,158.837234 157.016876,155.671875 157.770401,152.748932 
	C158.014359,153.440338 158.012970,153.889328 158.011292,155.109100 
	C158.010696,157.901917 158.010391,159.923950 158.010086,161.945999 
	C157.563644,161.964752 157.117203,161.983521 156.335632,162.002441 
z"/>
<path fill="#E886BC" opacity="1.000000" stroke="none" 
	d="
M158.338776,162.007812 
	C158.010391,159.923950 158.010696,157.901917 158.015808,155.445755 
	C158.680084,157.063461 159.339554,159.115265 160.000427,161.593048 
	C159.557053,162.035889 159.112274,162.052765 158.338776,162.007812 
z"/>
<path fill="#F8EEF5" opacity="1.000000" stroke="none" 
	d="
M54.454056,77.770889 
	C54.562309,77.173897 55.091789,76.603874 55.950832,75.986389 
	C55.812027,76.558563 55.343655,77.178207 54.454056,77.770889 
z"/>
<path fill="#BA387E" opacity="1.000000" stroke="none" 
	d="
M100.873924,121.781601 
	C100.684471,121.853432 100.376411,121.699043 99.978622,121.296402 
	C100.177704,121.217232 100.466507,121.386307 100.873924,121.781601 
z"/>
<path fill="#EFF8FA" opacity="1.000000" stroke="none" 
	d="
M276.460785,78.943436 
	C277.793884,79.209068 278.759308,79.500824 279.823792,80.076279 
	C263.461487,85.350227 249.300339,94.014931 239.124054,107.995583 
	C226.788101,124.943245 226.068161,144.058289 230.297821,163.836060 
	C234.875732,185.242157 244.144119,204.690353 254.901489,223.535324 
	C256.861786,226.969406 258.878571,230.371246 260.951660,234.157318 
	C259.694885,233.770859 257.859558,233.349869 257.090149,232.209625 
	C243.007187,211.338516 230.775726,189.558563 224.945343,164.750854 
	C220.469757,145.707672 221.415787,127.250053 231.019562,109.383087 
	C231.006622,109.006523 231.025772,109.085030 231.025772,109.085030 
	C236.862183,103.488396 242.035446,96.867371 248.701370,92.552147 
	C257.200958,87.049881 266.907074,83.411407 276.460785,78.943436 
z"/>
<path fill="#8AD0F2" opacity="1.000000" stroke="none" 
	d="
M272.735046,252.777573 
	C272.997620,253.169846 273.002655,253.361023 273.028137,253.839508 
	C273.048584,257.571320 273.048584,261.015839 273.048584,265.432922 
	C269.949402,264.594666 266.766815,264.640869 265.582062,263.125275 
	C264.640839,261.921265 266.143616,258.806763 266.624573,256.197083 
	C263.649841,254.836319 265.032959,253.056229 267.687622,251.120499 
	C269.714539,250.874680 272.010712,249.189178 272.735046,252.777573 
z"/>
<path fill="#86CFF3" opacity="1.000000" stroke="none" 
	d="
M231.035553,207.108490 
	C230.207672,208.974701 229.379517,210.413696 228.551361,211.852692 
	C227.710953,210.832733 226.065887,209.702454 226.187637,208.814407 
	C226.498123,206.549789 227.597214,204.393280 228.380737,202.193512 
	C229.265594,203.689438 230.150452,205.185349 231.035553,207.108490 
z"/>
<path fill="#87D1F5" opacity="1.000000" stroke="none" 
	d="
M231.045837,109.016220 
	C226.819260,108.926079 224.456345,104.901688 226.588165,101.201752 
	C226.912598,100.638687 228.127121,100.017273 228.576309,100.217239 
	C229.487427,100.622849 230.662628,101.475815 230.822708,102.316864 
	C231.184875,104.219666 230.997009,106.227173 231.029297,108.638565 
	C231.025772,109.085030 231.006622,109.006523 231.045837,109.016220 
z"/>
<path fill="#8CD3F3" opacity="1.000000" stroke="none" 
	d="
M281.383972,264.075439 
	C279.846893,261.269318 278.622223,258.464264 277.173676,255.146469 
	C278.944275,254.989136 280.177734,254.879547 281.705750,254.884979 
	C282.000336,255.000000 282.015411,255.011887 282.015411,255.011887 
	C282.338318,257.754364 282.661255,260.496857 282.964722,263.673218 
	C282.528992,264.096863 282.112701,264.086700 281.383972,264.075439 
z"/>
<path fill="#D6EEF6" opacity="1.000000" stroke="none" 
	d="
M262.045044,235.926987 
	C263.776642,238.721024 265.508209,241.515076 267.126282,244.670120 
	C265.002930,242.607971 262.993103,240.184830 261.163971,237.296722 
	C261.578094,236.530167 261.811554,236.228577 262.045044,235.926987 
z"/>
<path fill="#EFF8FA" opacity="1.000000" stroke="none" 
	d="
M261.937225,235.640991 
	C261.811554,236.228577 261.578094,236.530167 261.084076,236.960999 
	C260.645233,236.248154 260.466949,235.406082 260.646118,234.515594 
	C261.278870,234.763107 261.554138,235.059067 261.937225,235.640991 
z"/>
<path fill="#8CD3F3" opacity="1.000000" stroke="none" 
	d="
M279.069061,264.280396 
	C279.382477,264.043152 279.859192,264.032379 280.692810,264.042480 
	C280.443909,264.211212 279.838135,264.359039 279.069061,264.280396 
z"/>
<path fill="#D6EEF6" opacity="1.000000" stroke="none" 
	d="
M266.964905,245.291962 
	C267.323120,245.434265 267.670380,245.893417 268.001648,246.684021 
	C267.641754,246.546570 267.297852,246.077682 266.964905,245.291962 
z"/>
<path fill="#DDEDF3" opacity="1.000000" stroke="none" 
	d="
M244.020020,124.494888 
	C243.407898,124.857864 242.998535,124.942329 242.281433,125.092491 
	C242.213867,124.270729 242.454010,123.383278 243.084091,122.124451 
	C243.798706,121.605576 243.994949,121.356750 244.062744,121.006599 
	C244.062744,121.006599 244.002411,121.048576 244.019470,121.081375 
	C256.039642,114.788193 268.740234,110.837029 282.323547,109.945557 
	C284.288361,109.816597 286.268951,109.927666 288.318146,110.331535 
	C273.127167,113.515099 257.866699,116.317825 244.020020,124.494888 
z"/>
<path fill="#8CD3F3" opacity="1.000000" stroke="none" 
	d="
M279.765076,251.244049 
	C279.863953,251.454987 279.684692,251.669205 279.247345,251.919159 
	C279.122803,251.704971 279.288696,251.469116 279.765076,251.244049 
z"/>
<path fill="#3D7EBF" opacity="1.000000" stroke="none" 
	d="
M243.844238,121.093071 
	C243.994949,121.356750 243.798706,121.605576 243.235199,121.808731 
	C243.142105,121.577217 243.351883,121.348938 243.844238,121.093071 
z"/>
<path fill="#8CD3F3" opacity="1.000000" stroke="none" 
	d="
M281.994324,254.992569 
	C282.089661,254.955429 282.191010,254.925705 282.153870,254.953949 
	C282.015411,255.011887 282.000336,255.000000 281.994324,254.992569 
z"/>
<path fill="#E67EB2" opacity="1.000000" stroke="none" 
	d="
M153.713852,157.036438 
	C153.890152,157.832733 153.890152,158.431961 153.890152,159.031189 
	C153.668228,159.019958 153.446289,159.008728 153.224365,158.997498 
	C153.328766,158.278107 153.433151,157.558731 153.713852,157.036438 
z"/>
</svg>