<svg width="594" height="367" viewBox="0 0 594 367" fill="none" xmlns="http://www.w3.org/2000/svg">
<path d="M302.21 0.130005L305.59 0.5L308.22 0.23999L314.47 0.529999L329.02 1.72L343.52 3.62L353.72 5.44L363.81 7.72L369.27 9.16L369.53 9.35999L369.57 9.69L351.79 76.06L345.59 76.85L338.51 77.12H301.34L301.33 0.48999L301.44 0.139984L301.81 0L301.91 0.00997925L302.21 0.130005Z" fill="#E44349"/>
<path d="M308.221 0.240845L305.591 0.500854L302.211 0.130859L308.221 0.240845Z" fill="#EA7A4A"/>
<path d="M293.861 107.481L293.521 57.9408L293.451 1.53079L293.181 0.870789L292.521 0.59079L282.451 0.380798L293.451 0.300781L294.051 0.540802L294.291 1.14078L294.321 103.651L294.211 105.791L293.861 107.481Z" fill="#EC9940"/>
<path d="M282.45 0.380859L292.52 0.590851L293.18 0.87085L293.45 1.53085L293.52 57.9409L293.7 73.6508L293.23 76.9008L292.94 77.2708L292.47 77.2809L291.81 76.9908L291.28 76.8308L290.94 76.8109L243.87 77.1508L225.6 10.3008L225.61 9.84085L225.94 9.53085L229.71 8.02084L234.43 6.77084L250.03 3.76083L264.56 1.62085L271.38 1.03085L282.45 0.380859Z" fill="#E44349"/>
<path d="M236.151 76.4395L228.531 76.8894L219.691 77.0094L176.792 76.7195L155.602 37.3894L155.521 36.9894L155.801 36.6794L156.792 36.1094L163.191 32.5695L169.702 29.2294L176.322 26.0794L183.061 23.1194L189.901 20.3495L196.852 17.7794L203.921 15.3994L211.091 13.2094L217.852 11.1895L218.391 11.2294L218.732 11.6494L218.741 11.6694L236.151 76.4395Z" fill="#E44349"/>
<path d="M418.67 76.3199L411.95 76.9199L405.28 77.1599L382.35 77.1099L359.16 76.4199L376.49 12.3299L376.91 11.7699L377.6 11.6699L385.49 13.7299L399.66 18.6999L407.5 21.5999L413.61 24.1899L426.15 30.2299L439.28 37.0299L439.59 37.3999L439.54 37.8799V37.8899L418.67 76.3199Z" fill="#E44349"/>
<path d="M168.781 76.8613L146.551 76.9313L135.911 77.0313L126.561 76.9213L104.161 76.4613L99.7012 76.0813L107.111 69.5813L114.711 63.3713L122.511 57.4513L130.501 51.8313L139.131 46.2213L147.971 40.9413H147.981L148.611 40.8613L149.111 41.2613L168.781 76.8613Z" fill="#E44349"/>
<path d="M495.88 76.8L464.35 77.16L432.92 76.85L430.211 76.59L426.98 75.93L445.81 42.06L446.12 41.76L446.55 41.75L448.32 42.38L450.16 43.32L462.35 50.9L474.03 59L485.211 67.64L495.88 76.8Z" fill="#E44349"/>
<path d="M293.861 107.479L293.701 117.709L284.001 118.019L274.281 118.129L254.811 117.749L243.871 77.1494L290.941 76.8094L291.281 76.8294L291.811 76.9894L292.471 77.2794L292.521 77.2994L292.961 77.2594L293.231 76.8994L293.701 73.6494L293.521 57.9395L293.861 107.479Z" fill="#E76046"/>
<path d="M351.79 76.0605L340.43 117.431L301.33 117.901L301.34 77.1205H338.51L345.59 76.8506L351.79 76.0605Z" fill="#E76046"/>
<path d="M418.671 76.3203L395.211 118.26L348.061 117.72L359.161 76.4203L382.351 77.1103L405.281 77.1603L411.951 76.9203L418.671 76.3203Z" fill="#E76046"/>
<path d="M426.98 75.9297L430.21 76.5897L432.92 76.8497L464.35 77.1597L495.88 76.7997L498.93 79.9997L499.11 80.3697L498.93 80.7497L464.2 117.18L458.2 117.61L431.01 117.96L403.65 117.76L426.98 75.9297Z" fill="#E76046"/>
<path d="M99.7 76.0801L104.16 76.4601L126.56 76.9201L135.91 77.0301L146.55 76.9301L168.78 76.8601L191.07 117.41L131.77 117.92L96.19 80.4501L96 80.0501L96.2 79.6301L99.7 76.0801Z" fill="#E76046"/>
<path d="M247.061 116.669L241.811 117.329L236.541 117.689L233.561 117.769L209.071 117.879L204.551 118.029L199.861 118.489L176.791 76.7195L219.691 77.0094L228.531 76.8894L236.151 76.4395L247.061 116.669Z" fill="#E76046"/>
<path d="M120.871 117.101L116.731 117.511L89.2707 117.891L61.7207 117.711L67.9907 109.571L73.1507 103.391L78.5207 97.3809L84.1107 91.5309L89.9007 85.8608L90.3907 85.6309L90.8507 85.8809L120.871 117.101Z" fill="#E76046"/>
<path d="M532.83 117.13L523.31 117.71L513.82 117.87L482.15 117.7L478.78 117.37L474.91 116.44L504.28 86.2898L504.94 86.0098L505.6 86.2898L518.33 99.6198L525.78 108.17L532.83 117.13Z" fill="#E76046"/>
<path d="M474.911 116.439L478.781 117.369L482.151 117.699L513.821 117.869L523.311 117.709L532.831 117.129L547.191 137.299L547.321 137.739L547.041 138.089L525.921 151.489L441.041 150.749L474.911 116.439Z" fill="#EA7A4A"/>
<path d="M247.061 116.67L256.441 150.67L254.021 151.26L251.971 151.42L235.521 151.19L218.951 151.56L199.861 118.49L204.551 118.03L209.071 117.88L233.561 117.77L236.541 117.69L241.811 117.33L247.061 116.67Z" fill="#EA7A4A"/>
<path d="M120.871 117.1L154.871 151.02L150.811 151.43L76.2812 151.33L69.7213 151.73L48.8912 138.32L48.5312 137.81L48.6313 137.19L55.0413 127.01L61.7213 117.71L89.2712 117.89L116.731 117.51L120.871 117.1Z" fill="#EA7A4A"/>
<path d="M464.201 117.18L429.971 151.58L410.741 151.18L391.831 151.17L388.751 151L385.121 150.44L403.651 117.76L431.011 117.96L458.201 117.61L464.201 117.18Z" fill="#EA7A4A"/>
<path d="M191.072 117.41L209.841 150.51L164.671 151.27L131.771 117.92L191.072 117.41Z" fill="#EA7A4A"/>
<path d="M340.431 117.43L330.951 152.47L328.351 151.58L325.201 151.25L301.281 151.27L301.331 117.9L340.431 117.43Z" fill="#EA7A4A"/>
<path d="M293.701 117.711L293.351 151.361L264.121 151.191L254.811 117.751L274.281 118.131L284.001 118.021L293.701 117.711Z" fill="#EA7A4A"/>
<path d="M395.21 118.261L376.16 151.331L352.8 151.241L346.07 150.981L339.17 150.231L348.06 117.721L395.21 118.261Z" fill="#EA7A4A"/>
<path d="M152.391 209.821L130.951 209.551L109.561 209.671L90.5605 209.791L65.3105 209.611L60.1906 209.561L52.7505 209.621L45.8705 209.931L39.5506 210.501L33.7805 211.331L18.1005 207.291L17.6005 207.051L17.2405 206.641L17.0605 206.111L17.1005 205.561V205.551L19.1005 198.781L21.2605 192.251L23.5806 185.951L26.0605 179.881L31.6306 167.431L37.1705 156.021L40.4805 150.091L44.0605 144.871L44.3905 144.631L44.7805 144.731L152.391 209.821Z" fill="#EC9940"/>
<path d="M554.351 149.781L552.671 150.281L551.021 150.571L549.411 150.641L547.831 150.501L545.811 149.991L543.861 149.111L550.691 145.121L551.101 145.031L551.421 145.291L554.351 149.781Z" fill="#EA7A4A"/>
<path d="M543.861 149.111L545.811 149.991L547.831 150.501L549.411 150.641L551.021 150.571L552.671 150.281L554.351 149.781L559.921 159.391L564.801 169.321L566.431 173.081L570.611 183.491L574.901 195.111L576.901 201.241L578.371 206.861L578.331 207.251L577.991 207.461L569.101 209.681L563.651 210.031L558.111 210.361L552.991 210.181L543.401 209.901L529.631 209.751L489.561 209.841L475.141 209.891L442.701 210.181L543.861 149.111Z" fill="#EC9940"/>
<path d="M209.84 150.51L234.25 192.59L234.42 193.57L233.9 194.42L221.35 204.33L220.46 204.67L219.6 204.28L208.56 194.16L198.57 184.64L164.67 151.27L209.84 150.51Z" fill="#EC9940"/>
<path d="M376.161 151.33L369.181 164.06L361.751 176.44L358.471 182.33L356.871 184.81L354.491 187.83L353.951 188.19H353.501L352.991 187.96L352.771 187.73L352.751 187.16L352.851 186.83L353.991 183.63L355.141 181.05L355.941 178.48L356.401 175.92L356.511 173.37L356.281 170.83L355.701 168.3L354.771 165.78L353.501 163.26L351.211 160.03L348.301 157.27L346.711 156.15L345.011 155.2L343.321 154.49L341.551 153.97L338.851 153.12L338.551 152.87L338.541 152.48L339.171 150.23L346.071 150.98L352.801 151.24L376.161 151.33Z" fill="#EC9940"/>
<path d="M429.971 151.579L375.461 204.999L374.901 205.239L374.321 205.049L361.341 194.529L360.871 194.019L360.641 193.469L360.661 192.869L360.921 192.239L385.121 150.439L388.751 150.999L391.831 151.169L410.741 151.179L429.971 151.579Z" fill="#EC9940"/>
<path d="M441.04 150.75L525.92 151.49L427.48 210.92L423.88 210.39L421 210.16L400.73 209.83L389.67 209.51L387.85 209.4L385.13 209.06L382.35 208.39L441.04 150.75Z" fill="#EC9940"/>
<path d="M218.951 151.56L235.521 151.19L251.971 151.42L254.021 151.26L256.441 150.67L257.011 152.3L256.951 153.05L256.341 153.5L256.241 153.52L253.421 153.92L250.671 154.52L248.461 155.59L245.331 157.97L243.981 159.05L242.691 160.17L241.691 161.33L240.281 163.53L239.061 165.94L238.141 168.39L237.481 170.93L237.171 173.29L237.151 175.64L237.441 177.81L238.061 179.91L240.201 185.11L240.261 185.65L240.251 185.67L240.181 185.82L240.081 185.92L239.831 186.02L239.591 185.86L234.491 178.79L230.581 172.62L218.951 151.56Z" fill="#EC9940"/>
<path d="M154.871 151.02L178.701 174.99L195.091 190.87L206.271 201.45L213.821 208.88L210.751 209.98L208.051 210.26L197.381 209.86L186.711 209.8L178.411 209.98L170.111 210.36L168.191 210.23L165.111 209.71L69.7207 151.73L76.2807 151.33L150.811 151.43L154.871 151.02Z" fill="#EC9940"/>
<path d="M293.351 151.359L293.171 180.009L292.901 180.639L292.261 180.889L288.791 180.949L285.411 181.289L282.131 181.879L278.951 182.749L278.811 182.779L278.311 182.579L278.161 182.069L279.091 176.279L279.291 174.089L279.261 171.959L279.011 169.889L278.551 167.889L277.291 164.689L275.481 161.739L273.131 159.069L270.301 156.699L268.601 155.639L266.821 154.549L265.601 153.579L264.701 152.519L264.191 151.429L264.121 151.189L293.351 151.359Z" fill="#EC9940"/>
<path d="M330.951 152.47L327.671 154.4L324.581 156.59L321.521 159.19L319.621 161.15L318.101 163.13L316.941 165.15L316.151 167.2L315.511 169.94L315.211 172.7L315.391 176.86L316.331 181.06L316.251 181.63L315.761 181.93H315.631L301.921 180.74L301.141 180.41L300.891 179.6L301.281 151.27L325.201 151.25L328.351 151.58L330.951 152.47Z" fill="#EC9940"/>
<path d="M348.981 166.841L347.111 164.471L345.091 162.561L342.921 161.111L340.611 160.121L338.801 159.681L336.921 159.501L333.651 159.721L330.651 160.581L327.851 162.121L325.321 164.341L323.971 166.031L322.961 167.871L322.181 170.241L321.861 172.811L322.011 175.591L322.621 178.571L321.681 175.401L321.521 172.111L321.941 169.601L322.811 167.211L324.111 165.011L325.791 163.071L327.371 161.761L329.141 160.681L331.041 159.861L333.051 159.311L336.081 159.031L339.101 159.361L342.151 160.371L344.901 162.021L347.211 164.211L348.981 166.841Z" fill="#EA7A4A"/>
<path d="M265.681 161.03L261.571 159.92L259.521 159.66L257.481 159.61L254.451 159.9L257.311 159.4L260.201 159.42L263.031 159.97L265.681 161.03Z" fill="#787D71" fill-opacity="0.996"/>
<path d="M348.981 166.84L349.731 168.55L350.251 170.34L350.521 172.18L350.541 174.04L350.291 175.97L349.511 177.99L348.561 179.82L347.431 181.47L346.111 182.94L344.581 184.26L342.851 185.39L340.931 186.32L338.831 187.06L336.281 187.32L333.731 187.13L328.011 184.93L326.321 183.65L324.831 182.14L323.591 180.44L322.621 178.57L322.011 175.59L321.861 172.81L322.181 170.24L322.961 167.87L323.971 166.03L325.321 164.34L327.851 162.12L330.651 160.58L333.651 159.72L336.921 159.5L338.801 159.68L340.611 160.12L342.921 161.11L345.091 162.56L347.111 164.47L348.981 166.84Z" fill="#072931"/>
<path d="M265.681 161.031L265.851 161.121L267.961 162.811L269.701 164.651L271.061 166.621L272.041 168.721L272.651 170.911L272.891 173.231L272.781 175.671L272.321 178.251L271.411 180.101L270.231 181.821L268.811 183.371L267.171 184.711L262.971 186.181L261.061 186.731L259.011 186.951L254.881 187.271L252.651 186.641L250.561 185.681L248.191 183.491L246.361 181.201L245.061 178.811L244.291 176.311L244.051 173.661L244.361 170.911L245.161 168.291L246.391 165.951L247.871 164.091L249.711 162.461L251.901 161.061L254.451 159.901L257.481 159.611L259.521 159.661L261.571 159.921L265.681 161.031Z" fill="#072931"/>
<path d="M254.451 159.9L251.901 161.06L249.711 162.46L247.871 164.09L246.391 165.95L245.161 168.29L244.361 170.91L244.051 173.66L244.291 176.31L245.061 178.81L246.361 181.2L248.191 183.49L250.561 185.68L247.981 183.86L245.891 181.55L244.391 178.85L243.551 175.91L243.381 174.04L243.471 172.17L243.821 170.32L244.431 168.52L245.281 166.81L246.361 165.22L247.661 163.78L249.141 162.5L251.661 160.95L254.451 159.9Z" fill="#EA7A4A"/>
<path d="M272.32 178.251L272.78 175.671L272.89 173.231L272.65 170.911L272.04 168.721L271.06 166.621L269.7 164.651L267.96 162.811L265.85 161.121L268.54 162.951L270.72 165.311L272.28 168.071L273.14 171.111L273.3 172.911L273.22 174.721L272.89 176.511L272.32 178.251Z" fill="#787D71" fill-opacity="0.996"/>
<path d="M350.29 175.971L349.72 177.981L348.86 179.891L347.71 181.651L346.31 183.221L344.68 184.581L342.86 185.681L340.9 186.521L338.83 187.061L340.93 186.321L342.85 185.391L344.58 184.261L346.11 182.941L347.43 181.471L348.56 179.821L349.51 177.991L350.29 175.971Z" fill="#236391"/>
<path d="M267.171 184.711L264.061 186.411L261.361 187.241L258.561 187.581L256.711 187.531L254.881 187.271L259.011 186.951L261.061 186.731L262.971 186.181L267.171 184.711Z" fill="#787D71" fill-opacity="0.996"/>
<path d="M333.73 187.13L330.75 186.33L328.01 184.93L333.73 187.13Z" fill="#787D71" fill-opacity="0.996"/>
<path d="M258.37 195.501L257.37 195.791L256.48 195.451L257.22 195.211L258.37 195.501Z" fill="#787D71" fill-opacity="0.996"/>
<path d="M336.361 195.5L335.381 195.71L334.041 195.49L335.261 195.26L336.291 195.47L336.361 195.5Z" fill="#787D71" fill-opacity="0.996"/>
<path d="M256.48 195.451L257.37 195.791L258.37 195.501L260.95 195.851L267.07 198.791L269.18 200.881L270.97 203.441L273.07 211.511L273.2 224.911L273.02 226.391L272.99 228.441L273.28 230.061L274.02 231.711L278.34 238.481L281.88 243.191L285.74 247.681L286.76 248.591L287.06 249.151L292.55 255.591L293.02 256.171L293.32 256.821L293.85 257.091L294.02 257.391L294.34 258.111L294.77 258.401L295.43 259.941L295.57 261.451L295.14 263.041L294.09 264.591L293.57 265.131L292.67 265.621L289.71 266.411L286.81 263.981L284 261.201L281.27 258.081L278.63 254.621L278.39 254.651L277.74 254.261L277.13 253.171L273.4 247.941L273.03 247.661L272.59 247.741L272.23 248.081L272.21 248.581L272.53 249.221L272.31 249.861L271.64 253.141L271.54 255.081L271.67 257.041L271.61 257.431L271.59 259.631L272.11 261.891L272.46 262.931L273.45 265.081L274.76 267.101L275.55 268.281L276.1 269.681L279.32 278.081L282.07 286.691L284.35 295.501L286.16 304.511L286.5 304.961L286.67 305.651L286.56 306.481L286.66 309.111L286.99 311.701L287.92 315.561L288.49 317.621L288.55 319.621L288.68 324.671L284.92 325.441L283.64 325.291L282.31 325.361L279.5 326.171L279 326.471L278.53 326.531L277.99 326.251L277.51 325.581L276.73 323.071L275.31 317.611L273.62 312.371L271.68 307.331L269.47 302.511L269.19 302.191L268.84 302.101L268.91 301.611L267.93 299.001L266.39 296.521L266.32 296.731L266.16 296.431L261.98 290.121L261.33 289.751L260.65 290.061L260.52 290.291L259.27 293.511L256.89 298.821L254.14 303.971L251.03 308.981L247.55 313.841L242.79 319.741L237.53 325.101L233.16 328.861L233.14 328.881L232.33 329.081L231.63 328.641L225.51 320.081L225.26 319.281L225.53 318.481L233.45 308.011L234.1 307.631L234.51 307.121L234.67 306.071L236.75 302.091L238.09 299.821L239.32 296.901L240.76 292.491L241.83 288.151L242.54 283.901L242.88 279.721L243.29 273.161L243.05 266.661L242.83 264.491L242.05 256.111L241.94 255.831L242.07 253.441L241.95 251.081L241.24 247.381L240.86 243.521L241.03 241.511L240.9 239.541L240.39 237.351L239.85 229.481L240.38 228.341L240.55 227.411L240.49 226.431L240.33 226.071L240.06 226.361L239.7 227.271L238.25 232.091L237.18 236.771L236.39 241.521L235.9 246.351L235.71 251.261L235.81 263.201L235.17 264.681L234.4 265.641L233.39 266.441L232.12 267.091L230.61 267.581L228.99 267.051L228.58 266.661L227.43 265.151L226.62 263.321L226.15 261.151L226.01 258.651L226.46 248.761L227.58 239.261L229.36 230.161L231.81 221.451L237.75 208.891L238.32 208.321L239.41 206.851L240.22 205.131L240.27 204.931L240.73 204.461L245.56 199.911L245.53 199.821L245.76 199.491L246.51 199.121L247.7 198.771L248.44 198.131L248.58 197.871L249.53 197.681L250.24 197.241L250.54 196.871L253.01 196.401L254.36 195.801L255.29 195.561L256.48 195.451Z" fill="#072931"/>
<path d="M334.04 195.49L335.38 195.71L336.36 195.5L338.56 195.74L346.32 200.05L347.86 201.77L349.03 203.63L350.04 206.17L350.83 208.76L351.61 212.89L351.86 217.15L351.53 228.16L351.67 229.78L352.28 231.45L353.35 233.14L354.9 234.88L361.13 243.18L364.17 247.45L367.44 251.52L372.83 257.31L373.8 258.74L374.33 260.25L374.37 262.32L373.82 262.89L373.17 263.84L372.69 264.94L370.9 265.89L369.12 266.19L367.9 266.02L366.68 265.54L364.83 264.19L363.06 262.13L351.61 247.49L351.08 247.14L350.44 247.2L350.41 247.21L350.25 247.9L350.54 248.58L350.85 248.73L350.39 249.61L350.34 250.91L349.86 254.17L349.64 256.97L349.67 259.29L349.97 261.15L350.59 262.88L351.78 265.41L355.83 272.89L355.9 273.01L356.06 273.66L359.69 283.89L362.76 294.28L364.56 301.61L366.09 309.01L367.52 314.09L368.43 319.23L368.63 321.03L368.55 322.89L368.13 324.38L367.86 324.73L367.51 324.88L359.92 326.53L358.97 326.38L358.37 325.64L355.55 317.5L352.36 309.68L348.8 302.16L344.86 294.95L344.58 294.67L344.46 294.64L344.21 294.72L344.28 294.69L344.09 294.47L342.96 292.23L341.84 290.7L340.5 289.3L340.15 289.16L339.79 289.3L339.56 289.63L339.51 289.9L338.94 291.72L338.24 293.03L335.47 298.74L332.43 304.29L327.99 311.45L323.08 318.35L318.02 323.67L312.29 328.56L310.75 327.67L310.62 327.41L310.14 326.33L309.43 325.6L309.03 325.39L308.47 324.91L308.19 324.36L308.16 324.12L307.43 322.8L306.49 321.72L305.6 321.04L305.07 320.76L304.74 320.37L304.63 319.4L304.66 319.24L305.28 317.87L306.5 316.64L309.45 313.03L312.07 309.28L314.37 305.38L316.33 301.34L318.04 296.92L319.38 292.33L320.35 287.59L320.96 282.68L320.97 281.22L321.23 279.91L321.6 277.92L321.84 275.55L321.88 273.15L321.71 270.71L321.33 268.25L320.87 263.51L319.32 247.07L318.78 242.07L319.02 240.13L318.98 238.21L318.33 235.16L317.94 228.76L318.25 228.03L318.28 226.79L318.07 226.3L317.82 226.77L316.15 233.12L314.9 239.31L314.08 245.35L313.68 251.23L313.47 255.21L313.74 260.72L313.86 263.02L313.62 264.56L313.14 265.56L312.48 266.35L311.6 266.96L310.51 267.34L309.05 267.27L307.78 266.99L306.69 266.53L305.79 265.86L304.71 264.31L304.14 262.21L303.85 261.22L304.13 258.52L303.91 256.84L304.12 250.87L304.57 249.28L304.59 247.76L304.45 247.07L304.48 246.73L304.66 246.55L304.69 246.52V246.5L305.74 238.54L307.47 229.92L309.8 221.4L310.44 220.56L310.82 219.65L310.95 218.44L311.27 217.29L311.77 216.24L311.78 216.22L312.8 214.98L313.15 213.37L315.44 208.69L317.36 205.71L319.57 202.91L321.27 201.13L323.07 199.6L324.99 198.3L327.01 197.24L330.39 196.07L334.04 195.49Z" fill="#072931"/>
<path d="M254.361 195.801L253.011 196.401L250.541 196.871L250.831 196.701L252.491 196.051L254.361 195.801Z" fill="#787D71" fill-opacity="0.996"/>
<path d="M346.321 200.05L338.561 195.74L341.111 196.37L343.371 197.46L344.931 198.62L346.321 200.05Z" fill="#787D71" fill-opacity="0.996"/>
<path d="M267.071 198.79L260.951 195.85L262.451 196.17L263.871 196.68L265.531 197.58L267.071 198.79Z" fill="#787D71" fill-opacity="0.996"/>
<path d="M250.54 196.871L250.24 197.241L249.53 197.681L248.58 197.871L248.97 197.551L250.54 196.871Z" fill="#236391"/>
<path d="M248.58 197.871L248.44 198.131L247.7 198.771L246.51 199.121L247.17 198.571L248.58 197.871Z" fill="#236391"/>
<path d="M245.56 199.91L240.73 204.46L241.59 203.14L242.6 201.98L243.98 200.84L245.56 199.91Z" fill="#787D71" fill-opacity="0.996"/>
<path d="M270.971 203.439L272.371 206.189L272.991 208.749L273.071 211.509L270.971 203.439Z" fill="#787D71" fill-opacity="0.996"/>
<path d="M349.031 203.631L350.271 205.721L351.181 207.761L351.751 209.751L352.001 211.681L352.381 225.911L352.601 229.031L353.391 231.941L354.901 234.881L353.351 233.141L352.281 231.451L351.671 229.781L351.531 228.161L351.861 217.151L351.611 212.891L350.831 208.761L350.041 206.171L349.031 203.631Z" fill="#787D71" fill-opacity="0.996"/>
<path d="M237.75 208.891L238.81 206.941L240.22 205.131L239.41 206.851L238.32 208.321L237.75 208.891Z" fill="#787D71" fill-opacity="0.996"/>
<path d="M382.351 208.391L385.131 209.061L387.851 209.401L389.671 209.511L400.731 209.831L421.001 210.161L423.881 210.391L427.481 210.921L395.721 229.681L395.241 229.601L380.861 211.381L380.541 210.521L380.981 209.711L382.351 208.391Z" fill="#EDB833"/>
<path d="M213.821 208.881L214.411 209.401L214.641 209.961L214.291 210.871L207.051 220.111L200.391 229.451L199.711 229.981L198.861 229.791L165.111 209.711L168.191 210.231L170.111 210.361L178.411 209.981L186.711 209.801L197.381 209.861L208.051 210.261L210.751 209.981L213.821 208.881Z" fill="#EDB833"/>
<path d="M237.751 208.891L231.811 221.451L233.401 216.921L235.451 212.641L237.751 208.891Z" fill="#787D71" fill-opacity="0.996"/>
<path d="M569.101 209.68L546.251 216.34L531.771 220.33L506.901 226.9L481.621 233.84L462.331 239.07L409.561 253.38L406.901 253.98L406.001 253.8L405.391 253.12L398.501 237.51L398.391 236.48L399.091 235.71L442.701 210.18L475.141 209.89L489.561 209.84L529.631 209.75L543.401 209.9L552.991 210.18L558.111 210.36L563.651 210.03L569.101 209.68Z" fill="#EDB833"/>
<path d="M152.391 209.821L195.631 235.791L196.151 236.211L196.431 236.701L196.481 237.261L196.301 237.901L189.451 253.461L189.181 253.781L188.761 253.821L183.851 252.511L179.451 251.311L171.311 249.361L160.441 246.401L147.631 242.951L131.921 238.781L79.0512 224.171L41.2112 214.041L37.7012 212.941L33.7812 211.331L39.5513 210.501L45.8712 209.931L52.7513 209.621L60.1913 209.561L65.3112 209.611L90.5612 209.791L109.561 209.671L130.951 209.551L152.391 209.821Z" fill="#EDB833"/>
<path d="M311.781 216.221L313.151 213.371L312.801 214.981L311.781 216.221Z" fill="#787D71" fill-opacity="0.996"/>
<path d="M88.3898 234.04L87.8298 234.65L86.1898 235.55L84.0099 235.85L22.4698 235.58L17.0898 235.78L13.3898 235.69L9.83984 235.14L14.0298 216.76L14.4398 215.43L15.0598 214.23L15.3298 214.01L15.6798 213.99L88.3898 234.04Z" fill="#EC9940"/>
<path d="M585.19 235.3L546.82 235.86L508.62 235.97L506.74 235.52L506.48 235.32L506.66 235.06L508.48 233.65L578.38 214.63L579.18 214.57L579.93 214.83L580.53 215.36L580.87 216.08L580.88 216.13L585.19 235.3Z" fill="#EC9940"/>
<path d="M309.801 221.399L310.951 218.439L310.821 219.649L310.441 220.559L309.801 221.399Z" fill="#787D71" fill-opacity="0.996"/>
<path d="M231.81 221.451L229.36 230.161L227.58 239.261L226.46 248.761L226.01 258.651L226.15 261.151L226.62 263.321L227.43 265.151L228.58 266.661L228.99 267.051L228.01 266.871L227.24 266.431L226.47 265.251L225.95 263.371L225.61 261.401L225.49 257.161L225.75 253.121L226.6 242.901L227.68 235.481L229.44 228.271L231.81 221.451Z" fill="#787D71" fill-opacity="0.996"/>
<path d="M309.8 221.4L307.47 229.92L305.74 238.54L304.69 246.5V246.52L304.66 246.55L304.48 246.73L304.76 242.38L305.28 238.09L306.04 233.86L307.03 229.7L308.29 225.52L309.8 221.4Z" fill="#787D71" fill-opacity="0.996"/>
<path d="M273.2 224.91L273.53 228.14L274.41 231.15L276.01 234.19L280.35 240.44L285.74 247.68L281.88 243.19L278.34 238.48L274.02 231.71L273.28 230.06L272.99 228.44L273.02 226.39L273.2 224.91Z" fill="#787D71" fill-opacity="0.996"/>
<path d="M239.851 229.48L238.351 234.77L237.161 240.16L236.281 245.66L235.711 251.26L235.901 246.35L236.391 241.52L237.181 236.77L238.251 232.09L239.701 227.27L240.061 226.36L240.331 226.07L240.491 226.43L240.551 227.41L240.381 228.34L239.851 229.48Z" fill="#787D71" fill-opacity="0.996"/>
<path d="M317.94 228.761L316.12 235.951L314.67 243.541L313.68 251.231L314.08 245.351L314.9 239.311L316.15 233.121L317.82 226.771L318.07 226.301L318.28 226.791L318.25 228.031L317.94 228.761Z" fill="#787D71" fill-opacity="0.996"/>
<path d="M508.481 233.65L506.661 235.06L506.481 235.32L506.741 235.52L508.621 235.97L546.821 235.86L585.191 235.3L587.171 246.03L588.531 257.02L589.261 268.24L589.381 279.72L589.031 280.55L588.191 280.89H410.931L410.391 280.78L409.941 280.48L409.631 280.03L409.521 279.49L409.341 275.38L408.871 271.19L408.111 266.93L407.061 262.58L407.161 261.7L407.841 261.13L412.531 259.71L474.091 242.53L491.231 237.93L508.481 233.65Z" fill="#EDB833"/>
<path d="M88.3899 234.041L101.74 237.531L177.09 257.721L182.19 258.811L186.23 259.661L187.17 260.301L187.5 261.381L187.24 264.311L186.75 266.971L186.05 270.301L185.58 273.551L185.32 276.741L185.29 279.861L185.02 280.551L184.34 280.851H184.33L9.80992 281.031L8.02992 280.921L6.33992 280.591L5.64992 280.111L5.41992 279.301L7.17992 251.641L7.96992 245.501L9.83992 235.141L13.3899 235.691L17.0899 235.781L22.4699 235.581L84.0099 235.851L86.1899 235.551L87.8299 234.651L88.3899 234.041Z" fill="#EDB833"/>
<path d="M318.78 242.07L318.5 240.67L318.23 237.94L318.331 235.16L318.98 238.21L319.021 240.13L318.78 242.07Z" fill="#787D71" fill-opacity="0.996"/>
<path d="M240.86 243.52L240.62 242.4L240.33 239.91L240.39 237.35L240.9 239.54L241.03 241.51L240.86 243.52Z" fill="#787D71" fill-opacity="0.996"/>
<path d="M372.831 257.31L367.441 251.52L364.171 247.45L361.131 243.18L372.831 257.31Z" fill="#787D71" fill-opacity="0.996"/>
<path d="M304.121 250.87L304.451 247.07L304.591 247.76L304.571 249.28L304.121 250.87Z" fill="#787D71" fill-opacity="0.996"/>
<path d="M363.06 262.131L359.84 258.571L356.78 254.871L353.9 251.051L353.01 250.031L351.97 249.251L350.85 248.731L350.54 248.581L350.25 247.901L350.41 247.211L350.44 247.201L351.08 247.141L351.61 247.491L363.06 262.131Z" fill="#787D71" fill-opacity="0.996"/>
<path d="M241.94 255.831L241.24 247.381L241.95 251.081L242.07 253.441L241.94 255.831Z" fill="#787D71" fill-opacity="0.996"/>
<path d="M277.131 253.17L275.121 251.1L273.871 249.37L273.331 248.85L273.061 248.83L272.531 249.22L272.211 248.58L272.231 248.08L272.591 247.74L273.031 247.66L273.401 247.94L277.131 253.17Z" fill="#787D71" fill-opacity="0.996"/>
<path d="M272.311 249.861L272.351 253.201L271.671 257.041L271.541 255.081L271.641 253.141L272.311 249.861Z" fill="#787D71" fill-opacity="0.996"/>
<path d="M350.341 250.91L350.161 254.57L350.311 258.16L350.911 261.15L352.211 264.48L355.831 272.89L351.781 265.41L350.591 262.88L349.971 261.15L349.671 259.29L349.641 256.97L349.861 254.17L350.341 250.91Z" fill="#787D71" fill-opacity="0.996"/>
<path d="M289.711 266.411L286.621 264.381L283.741 261.731L281.081 258.481L278.631 254.621L281.271 258.081L284.001 261.201L286.811 263.981L289.711 266.411Z" fill="#787D71" fill-opacity="0.996"/>
<path d="M242.831 264.491L242.491 262.431L242.431 261.441L242.051 256.111L242.831 264.491Z" fill="#787D71" fill-opacity="0.996"/>
<path d="M293.852 257.09L293.322 256.82L293.021 256.17L293.591 256.64L293.852 257.09Z" fill="#787D71" fill-opacity="0.996"/>
<path d="M303.85 261.22L303.51 259.48L303.58 258.17L303.91 256.84L304.13 258.52L303.85 261.22Z" fill="#787D71" fill-opacity="0.996"/>
<path d="M294.771 258.401L294.341 258.111L294.021 257.391L294.671 257.961L294.771 258.401Z" fill="#787D71" fill-opacity="0.996"/>
<path d="M294.09 264.59L295.14 263.04L295.57 261.45L295.43 259.94L294.77 258.4L295.94 260.05L296.2 260.84L296.23 261.62L296.05 262.39L295.63 263.15L294.09 264.59Z" fill="#787D71" fill-opacity="0.996"/>
<path d="M272.111 261.891L274.761 267.101L273.451 265.081L272.461 262.931L272.111 261.891Z" fill="#236391"/>
<path d="M310.511 267.341L309.011 267.591H307.711L306.621 267.341L305.721 266.831L305.021 266.061L304.521 265.041L304.231 263.751L304.141 262.211L304.711 264.311L305.791 265.861L306.691 266.531L307.781 266.991L309.051 267.271L310.511 267.341Z" fill="#787D71" fill-opacity="0.996"/>
<path d="M374.371 262.32L373.871 263.69L373.051 264.68L372.691 264.94L373.171 263.84L373.821 262.89L374.371 262.32Z" fill="#236391"/>
<path d="M235.811 263.201L235.741 264.501L235.311 265.581L234.591 266.371L233.571 266.971L232.241 267.371L230.611 267.581L232.121 267.091L233.391 266.441L234.401 265.641L235.171 264.681L235.811 263.201Z" fill="#787D71" fill-opacity="0.996"/>
<path d="M321.23 279.91L321.331 268.25L321.711 270.71L321.88 273.15L321.841 275.55L321.6 277.92L321.23 279.91Z" fill="#787D71" fill-opacity="0.996"/>
<path d="M286.16 304.51L284.35 295.5L282.07 286.69L279.32 278.08L276.1 269.68L277.83 272.81L278.87 275.1L281.06 281.42L282.92 287.84L284.8 296.1L286.16 304.51Z" fill="#787D71" fill-opacity="0.996"/>
<path d="M366.091 309.01L364.561 301.61L362.761 294.28L359.691 283.89L356.061 273.66L356.931 274.68L357.581 276.03L359.871 282.73L361.981 289.74L363.931 297.06L365.701 304.68L366.081 307.08L366.091 309.01Z" fill="#787D71" fill-opacity="0.996"/>
<path d="M236.75 302.091L238.56 297.471L240.1 292.781L241.74 286.321L242.88 279.721L242.54 283.901L241.83 288.151L240.76 292.491L239.32 296.901L238.09 299.821L236.75 302.091Z" fill="#787D71" fill-opacity="0.996"/>
<path d="M306.5 316.64L309.21 312.86L311.66 308.97L313.85 304.97L315.78 300.86L317.49 296.49L318.92 292.01L320.08 287.4L320.96 282.68L320.35 287.59L319.38 292.33L318.04 296.92L316.33 301.34L314.37 305.38L312.07 309.28L309.45 313.03L306.5 316.64Z" fill="#787D71" fill-opacity="0.996"/>
<path d="M185.2 298.14L184.47 289.71L184.06 288.88L183.2 288.54L165.74 288.41L184.14 288.26L184.85 288.55L185.15 289.25L185.2 298.14Z" fill="#787D71" fill-opacity="0.996"/>
<path d="M165.741 288.41L183.201 288.54L184.061 288.88L184.471 289.71L185.201 298.14L185.391 299.59L185.261 301.11L185.131 301.41L184.681 301.69L173.801 303.41L160.731 305.52L147.771 307.91L134.911 310.57L122.151 313.51L109.491 316.72L96.9415 320.21L84.4915 323.97L72.1515 328.01L63.1915 331.19L53.3915 334.93L37.6515 341.28L28.5415 345.38L16.4315 351L16.0515 351.01L15.7715 350.76L14.2815 347.48L13.3915 344.95L11.3115 336.77L9.56148 328.56L8.15147 320.3L7.06148 312.02L6.74147 308.94L6.72148 302.37L6.08148 295.89L5.78148 292.39L5.52148 288.89L165.741 288.41Z" fill="#236391"/>
<path d="M589.22 291.111L588.77 291.331L588.67 291.631L587.73 306.571L587.01 313.461L586.13 319.961L585.05 326.131L583.6 332.871L581.79 340.161L579.61 348.011L579.04 349.251L578.23 349.961L577.1 350.151L564.85 344.451L553.67 339.541L543.57 335.441L534.54 332.141L524.45 328.641L514.32 325.181L498.78 320.571L484.12 316.511L470.33 313.001L457.43 310.041L438.41 306.371L415.35 302.701L414.1 302.171L413.24 302.131L412.33 302.341L409.85 301.691L410.05 295.351L410.46 289.371L410.61 289.011L410.98 288.891H588.58L589.05 289.031L589.3 289.431L589.38 290.211L589.22 291.111Z" fill="#236391"/>
<path d="M5.52148 288.891L5.78148 292.391L6.08148 295.891L6.72148 302.371L6.74147 308.941L5.77148 298.871L5.52148 288.891Z" fill="#787D71" fill-opacity="0.996"/>
<path d="M344.09 294.47L339.51 289.9L339.56 289.63L339.79 289.3L340.15 289.16L340.5 289.3L341.84 290.7L342.96 292.23L344.09 294.47Z" fill="#787D71" fill-opacity="0.996"/>
<path d="M266.161 296.43L264.091 294.07L262.611 291.87L262.141 291.24L261.691 291.04L261.241 291.26L260.811 291.91L254.121 305.2L251.641 309.01L247.551 313.84L251.031 308.98L254.141 303.97L256.891 298.82L259.271 293.51L260.521 290.29L260.651 290.06L261.331 289.75L261.981 290.12L266.161 296.43Z" fill="#787D71" fill-opacity="0.996"/>
<path d="M589.22 291.111L589.29 294.121L589.14 297.791L587.92 310.911L585.99 323.821L583.35 336.511L580 349.001L579.63 350.211L579.41 350.581L578.97 350.771L578.83 350.791L577.98 350.661L577.1 350.151L578.23 349.961L579.04 349.251L579.61 348.011L581.79 340.161L583.6 332.871L585.05 326.131L586.13 319.961L587.01 313.461L587.73 306.571L588.67 291.631L588.77 291.331L589.22 291.111Z" fill="#787D71" fill-opacity="0.996"/>
<path d="M338.24 293.031L335.56 299.571L332.31 305.781L330.26 309.071L328.04 312.271L325.65 315.361L323.08 318.351L327.99 311.451L332.43 304.291L335.47 298.741L338.24 293.031Z" fill="#787D71" fill-opacity="0.996"/>
<path d="M368.631 321.031L369.181 322.591V324.041L369.041 324.541L368.801 324.901L368.401 325.101L359.881 326.951L359.211 326.971L358.581 326.751L358.061 326.311L357.741 325.721L355.391 318.851L352.851 312.131L349.771 305.471L344.211 294.721L344.461 294.641L344.581 294.671L344.861 294.951L348.801 302.161L352.361 309.681L355.551 317.501L358.371 325.641L358.971 326.381L359.921 326.531L367.511 324.881L367.861 324.731L368.131 324.381L368.551 322.891L368.631 321.031Z" fill="#787D71" fill-opacity="0.996"/>
<path d="M409.851 301.69L409.411 300.39L409.291 298.9L409.501 297.22L410.051 295.35L409.851 301.69Z" fill="#787D71" fill-opacity="0.996"/>
<path d="M268.911 301.61L268.081 300.44L267.101 298.57L266.391 296.52L267.931 299L268.911 301.61Z" fill="#787D71" fill-opacity="0.996"/>
<path d="M276.73 323.07L268.84 302.1L269.19 302.19L269.47 302.51L271.68 307.33L273.62 312.37L275.31 317.61L276.73 323.07Z" fill="#787D71" fill-opacity="0.996"/>
<path d="M415.35 302.701L413.79 302.681L412.33 302.341L413.24 302.131L414.1 302.171L415.35 302.701Z" fill="#787D71" fill-opacity="0.996"/>
<path d="M342.031 303.71L341.441 303.84L340.861 304.44L336.681 311.37L331.921 317.81L328.361 321.91L333.611 314.74L337.491 308.89L341.131 302.87L341.451 302.6L341.771 302.87L342.031 303.71Z" fill="#787D71" fill-opacity="0.996"/>
<path d="M269.52 320.499L274.26 339.369L276.09 348.139L276.41 349.769L276.93 351.169L277.63 352.339L278.53 353.279L279.65 354.009L280.96 354.499L281.14 354.539L283.35 354.849L285.66 354.719L288.08 354.149L290.6 353.149L297.91 349.769L298.77 349.629L299.33 349.869L299.84 350.389L300.1 350.749L301.37 352.069L302.95 353.139H302.99L303.54 353.329L304.07 353.769L304.58 354.469L305.13 354.869L307.47 355.819L309.79 356.459L312.1 356.799L314.39 356.829L317.86 356.299L321.3 355.049L323.27 353.499L324.99 351.24L325.7 348.639L325.75 347.409L325.59 346.219L324.86 344.329L323.55 342.559L321.66 340.93L319.18 339.419L315.15 336.709L315.16 335.829L315.24 335.409L315.52 334.979L319.3 331.119L328.36 321.909L331.92 317.809L336.68 311.369L340.86 304.439L341.44 303.839L342.03 303.709L342.38 304.109L343.11 306.169L344.05 308.099L345.73 310.609L351.69 326.819L352.2 329.729L352.93 332.169L353.92 334.539L355.7 341.459L356.03 344.979L356.74 348.169L357.85 351.009L359.35 353.519L360.91 354.349L362.3 354.859L363.52 355.069L364.56 354.969L366.21 354.639L367.79 354.529L370.12 354.139L372.71 353.089L373.64 352.549L375.3 352.129L382.9 349.369L390.34 346.149L392.08 345.219L393.56 344.199L394.76 343.079L395.7 341.859L396.38 340.539L396.79 339.169L396.92 337.759L396.79 336.299L396.38 334.779L395.71 333.219L394.91 331.919L393.95 330.839L392.55 329.769L390.98 329.009L389.13 328.499L387.18 328.289L385 328.339L382.64 328.699L380.28 329.339L378.1 330.189L377.59 330.299L377.09 330.189L376.68 329.879L376.44 329.419L376.4 329.24L375.65 323.599L374.67 318.059L373.47 312.609L372.04 307.259L371.28 304.319L371.31 303.909L371.69 303.749L373.2 303.809L374.54 304.169L395.58 306.289L416.51 309.089L418.58 309.399L419.27 309.349L421.38 309.459L423.5 309.939L458.35 316.469L458.85 316.529L458.99 316.629L460.81 317.279L462.55 317.409L469.66 319.069L476.01 320.579L476.3 320.869L477.26 321.299H478.56L478.83 321.399L493.57 325.419L493.62 325.449L495.2 326.159L497.08 326.399L497.89 326.559L497.98 326.619L505.35 328.839L508.71 329.809L530.03 337.189L530.19 337.139L530.78 337.189L531.46 337.589L555.52 347.109L556.62 347.49L556.77 347.589L562.58 350.139L567.93 352.499L569.9 353.729L571.95 354.74L574.81 355.769L591.95 364.269L593.19 364.999L593.53 365.509L592.99 365.829L591.56 365.93L312.56 365.969L302.71 366.079L294.6 366.409L281.83 366.019L269.07 365.859L256.31 365.93L243.56 366.219L238.31 366.409L229.6 366.039L220.81 365.909L2.81 366.039L0.75 366.479H0.389999L0.169998 366.229L0.0200043 365.889L0 365.619L0.190002 365.439L18.22 356.579L20.05 356.049L22.34 355.049L24.51 353.699L26.85 352.659L44.57 344.889L70.92 334.889L72.45 334.369L79.7 331.93L106.26 323.859L118.32 320.809L123.09 319.599L135.29 316.659L135.55 316.519L135.54 316.609H136.23L136.91 316.639L141.22 315.689L145.41 314.439L161.09 311.549L171.29 309.769L172.05 309.549L172.78 309.539L173.1 309.609L185.42 307.659L185.47 307.499L185.5 307.619L212.79 304.839L213.96 304.449L215.24 304.519L224.8 304.059H228.76L229.09 304.229L229.15 304.599L229.08 304.719L224.42 310.609L220.59 314.68L216.63 318.579L212.52 322.289L208.27 325.829L207.83 326.18L206.67 327.359L205.96 328.689L205.74 329.699L205.69 331.439L205.9 333.019L206.4 334.609L207.25 336.279L208.49 338.039L210.34 340.24L213.79 343.599L218 348.399L220.21 350.979L222.67 353.279L225.4 355.329L227.17 356.269L229 356.759L231.34 356.769L233.52 357.039L235.25 356.93L236.99 356.529L237.87 356.699L238.69 356.629L239.52 356.279L240.27 355.639L241.98 354.729L243.35 353.689L244.38 352.519L245.07 351.219L245.4 349.919L245.45 348.509L245.22 346.99L244.7 345.359L243.91 344.099L242.43 342.549L239.65 340.419L235.34 337.199L234.42 336.389L234.39 336.359L234.25 335.969L234.44 335.589L239.5 331.43L241.41 330.119L242.93 328.219L246.58 324.599L250.59 320.659L254.22 316.419L258.05 310.999L261.35 305.159L262.04 303.699L262.45 303.129L262.75 302.939L263 303.189L264.96 307.449L266.71 311.749L268.22 316.099L269.52 320.499Z" fill="#072931"/>
<path d="M301.321 313.651L298.551 316.181L296.251 319.001L295.761 319.561L295.361 319.691L295.041 319.411L294.821 318.701L291.711 303.011L307.581 302.861L308.161 303.131L308.301 303.741L308.251 303.901L306.711 306.781L304.251 310.351L301.321 313.651Z" fill="#072931"/>
<path d="M291.711 303.01L294.821 318.7L295.041 319.41L295.361 319.69L295.761 319.56L296.251 319L298.551 316.18L301.321 313.65L296.651 319.15L296.511 319.38L295.651 320.71L295.211 321L294.871 321.02L294.631 320.78L294.481 320.28L291.711 303.01Z" fill="#787D71" fill-opacity="0.996"/>
<path d="M418.581 309.4L416.511 309.09L395.581 306.29L374.541 304.17L379.691 304.22L385.811 304.74L411.421 307.82L415.071 308.45L418.581 309.4Z" fill="#787D71" fill-opacity="0.996"/>
<path d="M345.731 310.611L344.051 308.101L343.111 306.171L342.381 304.111L344.171 306.821L345.051 308.661L345.731 310.611Z" fill="#787D71" fill-opacity="0.996"/>
<path d="M212.79 304.84L185.5 307.62L196.52 306.06L207.57 305.09L212.79 304.84Z" fill="#787D71" fill-opacity="0.996"/>
<path d="M261.35 305.16L258.05 311L254.22 316.42L250.59 320.66L246.58 324.6L250.84 319.7L256.32 312.62L261.35 305.16Z" fill="#787D71" fill-opacity="0.996"/>
<path d="M233.451 308.01L234.671 306.07L234.511 307.12L234.101 307.63L233.451 308.01Z" fill="#787D71" fill-opacity="0.996"/>
<path d="M286.561 306.48L287.921 315.56L286.991 311.7L286.661 309.11L286.561 306.48Z" fill="#787D71" fill-opacity="0.996"/>
<path d="M375.301 352.13L388.101 346.61L390.051 345.67L391.811 344.6L393.371 343.4L394.751 342.08L395.721 340.68L396.301 339.07L396.471 337.36L396.231 335.66L395.351 333.47L394.051 331.7L393.081 330.84L391.951 330.12L389.241 329.13L386.601 328.87L383.411 329.2L377.701 330.51L377.111 330.56L376.551 330.37L376.111 329.98L375.861 329.44L375.841 329.36L372.041 307.26L373.471 312.61L374.671 318.06L375.651 323.6L376.401 329.24L376.441 329.42L376.681 329.88L377.091 330.19L377.591 330.3L378.101 330.19L380.281 329.34L382.641 328.7L385.001 328.34L387.181 328.29L389.131 328.5L390.981 329.01L392.551 329.77L393.951 330.84L394.911 331.92L395.711 333.22L396.381 334.78L396.791 336.3L396.921 337.76L396.791 339.17L396.381 340.54L395.701 341.86L394.761 343.08L393.561 344.2L392.081 345.22L390.341 346.15L382.901 349.37L375.301 352.13Z" fill="#787D71" fill-opacity="0.996"/>
<path d="M423.5 309.939L434.72 311.549L445.85 313.599L458.35 316.469L423.5 309.939Z" fill="#787D71" fill-opacity="0.996"/>
<path d="M224.421 310.611L217.201 318.621L214.471 321.241L212.341 322.941L209.301 325.301L206.981 327.811L206.841 328.001L206.201 329.641L206.211 331.721L206.551 333.201L207.161 334.671L208.021 336.141L209.151 337.601L213.791 343.601L210.341 340.241L208.491 338.041L207.251 336.281L206.401 334.611L205.901 333.021L205.691 331.441L205.741 329.701L205.961 328.691L206.671 327.361L207.831 326.181L208.271 325.831L212.521 322.291L216.631 318.581L220.591 314.681L224.421 310.611Z" fill="#787D71" fill-opacity="0.996"/>
<path d="M145.411 314.439L141.221 315.689L136.911 316.639L136.231 316.609H135.541L145.411 314.439Z" fill="#236391"/>
<path d="M462.55 317.411L460.81 317.281L458.99 316.631L460.38 316.701L461.69 317.021L462.55 317.411Z" fill="#787D71" fill-opacity="0.996"/>
<path d="M288.551 319.621L289.091 321.311L289.311 322.701L289.211 323.781L288.781 324.571L288.681 324.671L288.551 319.621Z" fill="#787D71" fill-opacity="0.996"/>
<path d="M269.521 320.5L271.542 326.66L273.111 332.92L274.262 339.37L269.521 320.5Z" fill="#787D71" fill-opacity="0.996"/>
<path d="M478.56 321.3H477.26L476.3 320.87L476.01 320.58L478.56 321.3Z" fill="#787D71" fill-opacity="0.996"/>
<path d="M308.16 324.121L307.19 323.391L306.4 322.521L305.6 321.041L306.49 321.721L307.43 322.801L308.16 324.121Z" fill="#787D71" fill-opacity="0.996"/>
<path d="M220.821 324.37L220.091 324.74L219.511 324.73L219.291 324.59L220.171 323.92L220.481 323.83L220.721 324.03L220.821 324.37Z" fill="#787D71" fill-opacity="0.996"/>
<path d="M220.821 324.371L222.081 326.181L222.881 327.711L223.921 329.001L224.731 329.721L225.851 330.851L226.641 331.971L227.101 333.081L227.231 334.181V334.201L226.511 334.801L226.271 335.401L226.421 335.861L226.841 336.321L227.011 336.871L226.921 337.101L226.901 337.321L227.071 337.711L229.211 340.091L231.551 342.231L233.711 343.881L236.011 345.361L237.701 346.701L239.041 348.271L239.291 348.661L239.381 349.251L239.011 349.721L238.971 349.741L237.381 350.401L235.811 350.831L234.261 351.031L232.741 350.991L231.231 350.721L229.751 350.211L228.291 349.471L226.851 348.491L225.581 346.981L224.261 345.661L221.551 343.041L217.451 338.251L213.681 333.461L213.221 332.551L213.121 331.541L213.391 330.561L213.991 329.741L218.821 325.571L219.171 325.141L219.291 324.591L219.511 324.731L220.091 324.741L220.821 324.371Z" fill="#072931"/>
<path d="M219.29 324.59L219.17 325.14L218.82 325.57L213.99 329.74L213.39 330.56L213.12 331.54L213.22 332.55L213.68 333.46L217.45 338.25L221.55 343.04L224.26 345.66L225.58 346.98L226.85 348.49L223.35 345.73L220.93 343.27L213.53 334.17L212.39 332.29L212.18 331.68V331.04L212.4 330.44L212.82 329.95L219.29 324.59Z" fill="#787D71" fill-opacity="0.996"/>
<path d="M301.04 325.361L301.98 326.841L303.12 328.101L304.38 329.101L306.74 332.351L306.93 332.791L306.91 333.271L306.72 334.811L306.97 336.141L307.29 337.071L307.81 337.801L308.3 338.181L311.45 341.191L317.78 345.951L318.58 346.741L319.49 348.101L317.63 349.521L316.69 349.871L315.76 349.991L315.56 349.981L313.2 349.991L310.58 350.291L309.31 349.721L304.52 346.471L298.1 339.981L293.6 334.411L291.82 331.741L291.66 331.291L291.75 330.851L291.92 330.561L292.84 329.871L294.55 329.031L296.11 327.991L298.51 325.651L299.27 324.981L300 324.791L300.53 324.941L301.04 325.361Z" fill="#072931"/>
<path d="M284.92 325.441L279.5 326.171L282.31 325.361L283.64 325.291L284.92 325.441Z" fill="#787D71" fill-opacity="0.996"/>
<path d="M301.041 325.361L302.871 326.941L304.381 329.101L303.121 328.101L301.981 326.841L301.041 325.361Z" fill="#787D71" fill-opacity="0.996"/>
<path d="M310.621 327.411L309.521 326.311L309.031 325.391L309.431 325.601L310.141 326.331L310.621 327.411Z" fill="#787D71" fill-opacity="0.996"/>
<path d="M497.08 326.4L495.2 326.16L493.62 325.45L493.57 325.42L495.27 325.64L497.08 326.4Z" fill="#787D71" fill-opacity="0.996"/>
<path d="M298.51 325.65L296.11 327.99L294.55 329.03L292.84 329.87L298.51 325.65Z" fill="#787D71" fill-opacity="0.996"/>
<path d="M224.73 329.72L223.92 329L222.88 327.71L222.08 326.18L223.86 328.12L224.73 329.72Z" fill="#236391"/>
<path d="M351.691 326.82L353.921 334.54L352.931 332.17L352.201 329.73L351.691 326.82Z" fill="#787D71" fill-opacity="0.996"/>
<path d="M312.29 328.56L311.91 328.76L311.36 328.51L310.75 327.67L312.29 328.56Z" fill="#787D71" fill-opacity="0.996"/>
<path d="M242.93 328.221L241.41 330.121L239.5 331.431L240.75 330.011L242.14 328.791L242.93 328.221Z" fill="#236391"/>
<path d="M530.031 337.191L508.711 329.811L515.661 331.821L522.501 334.161L530.031 337.191Z" fill="#787D71" fill-opacity="0.996"/>
<path d="M319.3 331.121L315.52 334.981L315.24 335.411L315.16 335.831L315.15 336.711L314.48 336.381L314.25 336.011L314.39 335.591L314.55 335.391L316.72 333.091L319.3 331.121Z" fill="#787D71" fill-opacity="0.996"/>
<path d="M369.381 331.831L368.131 331.781L367.061 331.521L368.461 331.111L369.221 331.301L369.381 331.831Z" fill="#787D71" fill-opacity="0.996"/>
<path d="M367.06 331.52L368.13 331.78L369.38 331.83L369.77 334.6L370.76 337.37L371.09 337.84L371.56 338.17L372.12 338.31L372.69 338.25L381.32 335.74L382.86 335.3L385.18 334.93L387.57 334.87L388.65 335.06L389.51 335.52L390.07 336.12L390.48 336.93L390.55 337.35L390.42 337.86L389.53 339.09L388.43 339.9L387.06 340.43L378.5 343.85L369.86 347.05L367.29 347.96L365.41 348.26L364.33 348.12L363.92 347.91L363.68 347.49L360.34 334.4L360.43 333.54L361.17 332.87L362.6 332.53L364.03 332.59L365.2 332.31L366.33 331.72L366.54 331.57L367.06 331.52Z" fill="#072931"/>
<path d="M284.09 331.961L279.16 333.011L279.17 332.741L279.23 332.571L279.36 332.461L281.52 331.851L282.79 331.801L284.09 331.961Z" fill="#787D71" fill-opacity="0.996"/>
<path d="M366.33 331.721L365.2 332.311L364.03 332.591L362.6 332.531L363.85 332.001L365.05 331.751L366.33 331.721Z" fill="#787D71" fill-opacity="0.996"/>
<path d="M286.53 335.02L286.54 335.04L287.3 336.95L288.61 338.72L290.46 340.35L292.86 341.85L295.05 344.37L295.21 344.77L294.98 345.13L293.89 345.47L284.88 347.88L283.86 348.05L283.05 347.85L282.39 347.22L281.96 346.17L279.28 334.08L279.16 333.01L284.09 331.96L284.92 331.91L285.58 332.13L286.01 332.55L286.31 333.17L286.53 335.02Z" fill="#072931"/>
<path d="M381.321 335.74L372.691 338.25L372.121 338.31L371.561 338.17L371.091 337.84L370.761 337.37L369.771 334.6L369.381 331.83L371.341 337.08L371.941 337.76L372.851 337.87L381.321 335.74Z" fill="#787D71" fill-opacity="0.996"/>
<path d="M227.232 334.201L227.111 335.411L226.841 336.321L226.421 335.861L226.271 335.401L226.512 334.801L227.232 334.201Z" fill="#787D71" fill-opacity="0.996"/>
<path d="M281.961 346.17L280.831 342.5L279.891 338.33L279.281 334.08L281.961 346.17Z" fill="#787D71" fill-opacity="0.996"/>
<path d="M387.06 340.43L381.79 343.07L376.37 345.34L370.41 347.35L364.29 348.92L363.9 348.87L363.59 348.48L360.34 334.4L363.68 347.49L363.92 347.91L364.33 348.12L365.41 348.26L367.29 347.96L369.86 347.05L378.5 343.85L387.06 340.43Z" fill="#787D71" fill-opacity="0.996"/>
<path d="M286.531 335.02L292.861 341.85L290.461 340.35L288.611 338.72L287.301 336.95L286.541 335.04L286.531 335.02Z" fill="#787D71" fill-opacity="0.996"/>
<path d="M308.301 338.181L307.811 337.801L307.291 337.071L306.971 336.141L307.681 336.901L308.301 338.181Z" fill="#236391"/>
<path d="M227.01 336.871L236.01 345.361L233.71 343.881L231.55 342.231L229.21 340.091L227.07 337.711L226.9 337.321L226.92 337.101L227.01 336.871Z" fill="#787D71" fill-opacity="0.996"/>
<path d="M555.521 347.11L531.461 337.59L542.821 341.61L549.211 344.24L555.521 347.11Z" fill="#787D71" fill-opacity="0.996"/>
<path d="M324.99 351.24L325.35 349.26L325.24 347.38L324.54 345.36L323.24 343.46L321.37 341.45L319.18 339.42L321.66 340.93L323.55 342.56L324.86 344.33L325.59 346.22L325.75 347.41L325.7 348.64L324.99 351.24Z" fill="#787D71" fill-opacity="0.996"/>
<path d="M355.701 341.461L359.351 353.521L357.851 351.011L356.741 348.171L356.031 344.981L355.701 341.461Z" fill="#787D71" fill-opacity="0.996"/>
<path d="M309.311 349.721L307.251 348.881L305.791 347.841L304.521 346.471L309.311 349.721Z" fill="#787D71" fill-opacity="0.996"/>
<path d="M319.49 348.1L318.72 349.41L317.43 350.31L315.65 350.76L313.36 350.75L310.58 350.29L313.2 349.99L315.56 349.98L315.76 349.99L316.69 349.87L317.63 349.52L319.49 348.1Z" fill="#787D71" fill-opacity="0.996"/>
<path d="M290.6 353.151L288.08 354.151L285.66 354.721L283.35 354.851L281.14 354.541L280.96 354.501L279.65 354.011L278.53 353.281L277.63 352.341L276.93 351.171L276.41 349.771L276.09 348.141L276.97 350.331L277.84 351.881L278.87 353.021L280 353.681L281.06 353.911L282.6 353.991L286.59 353.831L290.6 353.151Z" fill="#787D71" fill-opacity="0.996"/>
<path d="M231.34 356.77L229 356.76L227.17 356.27L225.4 355.33L222.67 353.28L220.21 350.98L218 348.4L223.36 353.1L224.88 354.23L226.72 355.22L228.87 356.06L231.34 356.77Z" fill="#787D71" fill-opacity="0.996"/>
<path d="M299.84 350.391L301.33 351.371L302.95 353.141L301.37 352.071L300.1 350.751L299.84 350.391Z" fill="#787D71" fill-opacity="0.996"/>
<path d="M574.81 355.77L571.95 354.74L569.9 353.73L567.93 352.5L574.81 355.77Z" fill="#787D71" fill-opacity="0.996"/>
<path d="M372.711 353.09L370.121 354.14L367.791 354.53L372.711 353.09Z" fill="#236391"/>
<path d="M24.5107 353.701L22.3407 355.051L20.0507 356.051L18.2207 356.581L24.5107 353.701Z" fill="#787D71" fill-opacity="0.996"/>
<path d="M321.3 355.05L317.86 356.3L314.39 356.83L312.1 356.8L309.79 356.46L307.47 355.82L305.13 354.87L304.58 354.47L304.07 353.77L306.22 354.97L307.5 355.47L310.2 355.84L312.9 355.98L317.1 355.78L321.3 355.05Z" fill="#787D71" fill-opacity="0.996"/>
<path d="M240.27 355.641L239.52 356.281L238.69 356.631L237.87 356.701L236.99 356.531L240.27 355.641Z" fill="#787D71" fill-opacity="0.996"/>
<path d="M294.601 366.411L276.331 366.931L258.061 366.951L238.311 366.411L243.561 366.221L256.311 365.931L269.071 365.861L281.831 366.021L294.601 366.411Z" fill="#787D71" fill-opacity="0.996"/>
</svg>
