<svg width="595" height="483" viewBox="0 0 595 483" fill="none" xmlns="http://www.w3.org/2000/svg">
<path d="M302.21 0.130005L305.59 0.5L308.22 0.23999L314.47 0.529999L329.02 1.72L343.52 3.62L353.72 5.44L363.81 7.72L369.27 9.16L369.53 9.35999L369.57 9.69L351.79 76.06L345.59 76.85L338.51 77.12H301.34L301.33 0.48999L301.44 0.139984L301.81 0L301.91 0.00997925L302.21 0.130005Z" fill="#E44349"/>
<path d="M308.221 0.240845L305.591 0.500854L302.211 0.130859L308.221 0.240845Z" fill="#EA7A4A"/>
<path d="M293.861 107.481L293.521 57.9408L293.451 1.53079L293.181 0.870789L292.521 0.59079L282.451 0.380798L293.451 0.300781L294.051 0.540802L294.291 1.14078L294.321 103.651L294.211 105.791L293.861 107.481Z" fill="#EC9940"/>
<path d="M282.45 0.380859L292.52 0.590851L293.18 0.87085L293.45 1.53085L293.52 57.9409L293.7 73.6508L293.23 76.9008L292.94 77.2708L292.47 77.2809L291.81 76.9908L291.28 76.8308L290.94 76.8109L243.87 77.1508L225.6 10.3008L225.61 9.84085L225.94 9.53085L229.71 8.02084L234.43 6.77084L250.03 3.76083L264.56 1.62085L271.38 1.03085L282.45 0.380859Z" fill="#E44349"/>
<path d="M236.151 76.4395L228.531 76.8894L219.691 77.0094L176.792 76.7195L155.602 37.3894L155.521 36.9894L155.801 36.6794L156.792 36.1094L163.191 32.5695L169.702 29.2294L176.322 26.0794L183.061 23.1194L189.901 20.3495L196.852 17.7794L203.921 15.3994L211.091 13.2094L217.852 11.1895L218.391 11.2294L218.732 11.6494L218.741 11.6694L236.151 76.4395Z" fill="#E44349"/>
<path d="M418.67 76.3199L411.95 76.9199L405.28 77.1599L382.35 77.1099L359.16 76.4199L376.49 12.3299L376.91 11.7699L377.6 11.6699L385.49 13.7299L399.66 18.6999L407.5 21.5999L413.61 24.1899L426.15 30.2299L439.28 37.0299L439.59 37.3999L439.54 37.8799V37.8899L418.67 76.3199Z" fill="#E44349"/>
<path d="M168.781 76.8613L146.551 76.9313L135.911 77.0313L126.561 76.9213L104.161 76.4613L99.7012 76.0813L107.111 69.5813L114.711 63.3713L122.511 57.4513L130.501 51.8313L139.131 46.2213L147.971 40.9413H147.981L148.611 40.8613L149.111 41.2613L168.781 76.8613Z" fill="#E44349"/>
<path d="M495.88 76.8L464.35 77.16L432.92 76.85L430.211 76.59L426.98 75.93L445.81 42.06L446.12 41.76L446.55 41.75L448.32 42.38L450.16 43.32L462.35 50.9L474.03 59L485.211 67.64L495.88 76.8Z" fill="#E44349"/>
<path d="M293.861 107.479L293.701 117.709L284.001 118.019L274.281 118.129L254.811 117.749L243.871 77.1494L290.941 76.8094L291.281 76.8294L291.811 76.9894L292.471 77.2794L292.521 77.2994L292.961 77.2594L293.231 76.8994L293.701 73.6494L293.521 57.9395L293.861 107.479Z" fill="#E76046"/>
<path d="M351.79 76.0605L340.43 117.431L301.33 117.901L301.34 77.1205H338.51L345.59 76.8506L351.79 76.0605Z" fill="#E76046"/>
<path d="M418.671 76.3203L395.211 118.26L348.061 117.72L359.161 76.4203L382.351 77.1103L405.281 77.1603L411.951 76.9203L418.671 76.3203Z" fill="#E76046"/>
<path d="M426.98 75.9297L430.21 76.5897L432.92 76.8497L464.35 77.1597L495.88 76.7997L498.93 79.9997L499.11 80.3697L498.93 80.7497L464.2 117.18L458.2 117.61L431.01 117.96L403.65 117.76L426.98 75.9297Z" fill="#E76046"/>
<path d="M99.7 76.0801L104.16 76.4601L126.56 76.9201L135.91 77.0301L146.55 76.9301L168.78 76.8601L191.07 117.41L131.77 117.92L96.19 80.4501L96 80.0501L96.2 79.6301L99.7 76.0801Z" fill="#E76046"/>
<path d="M247.061 116.669L241.811 117.329L236.541 117.689L233.561 117.769L209.071 117.879L204.551 118.029L199.861 118.489L176.791 76.7195L219.691 77.0094L228.531 76.8894L236.151 76.4395L247.061 116.669Z" fill="#E76046"/>
<path d="M120.871 117.101L116.731 117.511L89.2707 117.891L61.7207 117.711L67.9907 109.571L73.1507 103.391L78.5207 97.3809L84.1107 91.5309L89.9007 85.8608L90.3907 85.6309L90.8507 85.8809L120.871 117.101Z" fill="#E76046"/>
<path d="M532.83 117.13L523.31 117.71L513.82 117.87L482.15 117.7L478.78 117.37L474.91 116.44L504.28 86.2898L504.94 86.0098L505.6 86.2898L518.33 99.6198L525.78 108.17L532.83 117.13Z" fill="#E76046"/>
<path d="M474.911 116.439L478.781 117.369L482.151 117.699L513.821 117.869L523.311 117.709L532.831 117.129L547.191 137.299L547.321 137.739L547.041 138.089L525.921 151.489L441.041 150.749L474.911 116.439Z" fill="#EA7A4A"/>
<path d="M247.061 116.67L256.441 150.67L254.021 151.26L251.971 151.42L235.521 151.19L218.951 151.56L199.861 118.49L204.551 118.03L209.071 117.88L233.561 117.77L236.541 117.69L241.811 117.33L247.061 116.67Z" fill="#EA7A4A"/>
<path d="M120.871 117.1L154.871 151.02L150.811 151.43L76.2812 151.33L69.7213 151.73L48.8912 138.32L48.5312 137.81L48.6313 137.19L55.0413 127.01L61.7213 117.71L89.2712 117.89L116.731 117.51L120.871 117.1Z" fill="#EA7A4A"/>
<path d="M464.201 117.18L429.971 151.58L410.741 151.18L391.831 151.17L388.751 151L385.121 150.44L403.651 117.76L431.011 117.96L458.201 117.61L464.201 117.18Z" fill="#EA7A4A"/>
<path d="M191.072 117.41L209.841 150.51L164.671 151.27L131.771 117.92L191.072 117.41Z" fill="#EA7A4A"/>
<path d="M340.431 117.43L330.951 152.47L328.351 151.58L325.201 151.25L301.281 151.27L301.331 117.9L340.431 117.43Z" fill="#EA7A4A"/>
<path d="M293.701 117.711L293.351 151.361L264.121 151.191L254.811 117.751L274.281 118.131L284.001 118.021L293.701 117.711Z" fill="#EA7A4A"/>
<path d="M395.21 118.261L376.16 151.331L352.8 151.241L346.07 150.981L339.17 150.231L348.06 117.721L395.21 118.261Z" fill="#EA7A4A"/>
<path d="M152.391 209.821L130.951 209.551L109.561 209.671L90.5605 209.791L65.3105 209.611L60.1906 209.561L52.7505 209.621L45.8705 209.931L39.5506 210.501L33.7805 211.331L18.1005 207.291L17.6005 207.051L17.2405 206.641L17.0605 206.111L17.1005 205.561V205.551L19.1005 198.781L21.2605 192.251L23.5806 185.951L26.0605 179.881L31.6306 167.431L37.1705 156.021L40.4805 150.091L44.0605 144.871L44.3905 144.631L44.7805 144.731L152.391 209.821Z" fill="#EC9940"/>
<path d="M554.351 149.781L552.671 150.281L551.021 150.571L549.411 150.641L547.831 150.501L545.811 149.991L543.861 149.111L550.691 145.121L551.101 145.031L551.421 145.291L554.351 149.781Z" fill="#EA7A4A"/>
<path d="M543.861 149.111L545.811 149.991L547.831 150.501L549.411 150.641L551.021 150.571L552.671 150.281L554.351 149.781L559.921 159.391L564.801 169.321L566.431 173.081L570.611 183.491L574.901 195.111L576.901 201.241L578.371 206.861L578.331 207.251L577.991 207.461L569.101 209.681L563.651 210.031L558.111 210.361L552.991 210.181L543.401 209.901L529.631 209.751L489.561 209.841L475.141 209.891L442.701 210.181L543.861 149.111Z" fill="#EC9940"/>
<path d="M209.84 150.51L234.25 192.59L234.42 193.57L233.9 194.42L221.35 204.33L220.46 204.67L219.6 204.28L208.56 194.16L198.57 184.64L164.67 151.27L209.84 150.51Z" fill="#EC9940"/>
<path d="M376.161 151.33L369.181 164.06L361.751 176.44L358.471 182.33L356.871 184.81L354.491 187.83L353.951 188.19H353.501L352.991 187.96L352.771 187.73L352.751 187.16L352.851 186.83L353.991 183.63L355.141 181.05L355.941 178.48L356.401 175.92L356.511 173.37L356.281 170.83L355.701 168.3L354.771 165.78L353.501 163.26L351.211 160.03L348.301 157.27L346.711 156.15L345.011 155.2L343.321 154.49L341.551 153.97L338.851 153.12L338.551 152.87L338.541 152.48L339.171 150.23L346.071 150.98L352.801 151.24L376.161 151.33Z" fill="#EC9940"/>
<path d="M429.971 151.579L375.461 204.999L374.901 205.239L374.321 205.049L361.341 194.529L360.871 194.019L360.641 193.469L360.661 192.869L360.921 192.239L385.121 150.439L388.751 150.999L391.831 151.169L410.741 151.179L429.971 151.579Z" fill="#EC9940"/>
<path d="M441.04 150.75L525.92 151.49L427.48 210.92L423.88 210.39L421 210.16L400.73 209.83L389.67 209.51L387.85 209.4L385.13 209.06L382.35 208.39L441.04 150.75Z" fill="#EC9940"/>
<path d="M218.951 151.56L235.521 151.19L251.971 151.42L254.021 151.26L256.441 150.67L257.011 152.3L256.951 153.05L256.341 153.5L256.241 153.52L253.421 153.92L250.671 154.52L248.461 155.59L245.331 157.97L243.981 159.05L242.691 160.17L241.691 161.33L240.281 163.53L239.061 165.94L238.141 168.39L237.481 170.93L237.171 173.29L237.151 175.64L237.441 177.81L238.061 179.91L240.201 185.11L240.261 185.65L240.251 185.67L240.181 185.82L240.081 185.92L239.831 186.02L239.591 185.86L234.491 178.79L230.581 172.62L218.951 151.56Z" fill="#EC9940"/>
<path d="M154.871 151.02L178.701 174.99L195.091 190.87L206.271 201.45L213.821 208.88L210.751 209.98L208.051 210.26L197.381 209.86L186.711 209.8L178.411 209.98L170.111 210.36L168.191 210.23L165.111 209.71L69.7207 151.73L76.2807 151.33L150.811 151.43L154.871 151.02Z" fill="#EC9940"/>
<path d="M293.351 151.359L293.171 180.009L292.901 180.639L292.261 180.889L288.791 180.949L285.411 181.289L282.131 181.879L278.951 182.749L278.811 182.779L278.311 182.579L278.161 182.069L279.091 176.279L279.291 174.089L279.261 171.959L279.011 169.889L278.551 167.889L277.291 164.689L275.481 161.739L273.131 159.069L270.301 156.699L268.601 155.639L266.821 154.549L265.601 153.579L264.701 152.519L264.191 151.429L264.121 151.189L293.351 151.359Z" fill="#EC9940"/>
<path d="M330.951 152.47L327.671 154.4L324.581 156.59L321.521 159.19L319.621 161.15L318.101 163.13L316.941 165.15L316.151 167.2L315.511 169.94L315.211 172.7L315.391 176.86L316.331 181.06L316.251 181.63L315.761 181.93H315.631L301.921 180.74L301.141 180.41L300.891 179.6L301.281 151.27L325.201 151.25L328.351 151.58L330.951 152.47Z" fill="#EC9940"/>
<path d="M348.981 166.841L347.111 164.471L345.091 162.561L342.921 161.111L340.611 160.121L338.801 159.681L336.921 159.501L333.651 159.721L330.651 160.581L327.851 162.121L325.321 164.341L323.971 166.031L322.961 167.871L322.181 170.241L321.861 172.811L322.011 175.591L322.621 178.571L321.681 175.401L321.521 172.111L321.941 169.601L322.811 167.211L324.111 165.011L325.791 163.071L327.371 161.761L329.141 160.681L331.041 159.861L333.051 159.311L336.081 159.031L339.101 159.361L342.151 160.371L344.901 162.021L347.211 164.211L348.981 166.841Z" fill="#EA7A4A"/>
<path d="M265.681 161.03L261.571 159.92L259.521 159.66L257.481 159.61L254.451 159.9L257.311 159.4L260.201 159.42L263.031 159.97L265.681 161.03Z" fill="#787D71" fill-opacity="0.996"/>
<path d="M348.981 166.84L349.731 168.55L350.251 170.34L350.521 172.18L350.541 174.04L350.291 175.97L349.511 177.99L348.561 179.82L347.431 181.47L346.111 182.94L344.581 184.26L342.851 185.39L340.931 186.32L338.831 187.06L336.281 187.32L333.731 187.13L328.011 184.93L326.321 183.65L324.831 182.14L323.591 180.44L322.621 178.57L322.011 175.59L321.861 172.81L322.181 170.24L322.961 167.87L323.971 166.03L325.321 164.34L327.851 162.12L330.651 160.58L333.651 159.72L336.921 159.5L338.801 159.68L340.611 160.12L342.921 161.11L345.091 162.56L347.111 164.47L348.981 166.84Z" fill="#072931"/>
<path d="M265.681 161.031L265.851 161.121L267.961 162.811L269.701 164.651L271.061 166.621L272.041 168.721L272.651 170.911L272.891 173.231L272.781 175.671L272.321 178.251L271.411 180.101L270.231 181.821L268.811 183.371L267.171 184.711L262.971 186.181L261.061 186.731L259.011 186.951L254.881 187.271L252.651 186.641L250.561 185.681L248.191 183.491L246.361 181.201L245.061 178.811L244.291 176.311L244.051 173.661L244.361 170.911L245.161 168.291L246.391 165.951L247.871 164.091L249.711 162.461L251.901 161.061L254.451 159.901L257.481 159.611L259.521 159.661L261.571 159.921L265.681 161.031Z" fill="#072931"/>
<path d="M254.451 159.9L251.901 161.06L249.711 162.46L247.871 164.09L246.391 165.95L245.161 168.29L244.361 170.91L244.051 173.66L244.291 176.31L245.061 178.81L246.361 181.2L248.191 183.49L250.561 185.68L247.981 183.86L245.891 181.55L244.391 178.85L243.551 175.91L243.381 174.04L243.471 172.17L243.821 170.32L244.431 168.52L245.281 166.81L246.361 165.22L247.661 163.78L249.141 162.5L251.661 160.95L254.451 159.9Z" fill="#EA7A4A"/>
<path d="M272.32 178.251L272.78 175.671L272.89 173.231L272.65 170.911L272.04 168.721L271.06 166.621L269.7 164.651L267.96 162.811L265.85 161.121L268.54 162.951L270.72 165.311L272.28 168.071L273.14 171.111L273.3 172.911L273.22 174.721L272.89 176.511L272.32 178.251Z" fill="#787D71" fill-opacity="0.996"/>
<path d="M350.29 175.971L349.72 177.981L348.86 179.891L347.71 181.651L346.31 183.221L344.68 184.581L342.86 185.681L340.9 186.521L338.83 187.061L340.93 186.321L342.85 185.391L344.58 184.261L346.11 182.941L347.43 181.471L348.56 179.821L349.51 177.991L350.29 175.971Z" fill="#236391"/>
<path d="M267.171 184.711L264.061 186.411L261.361 187.241L258.561 187.581L256.711 187.531L254.881 187.271L259.011 186.951L261.061 186.731L262.971 186.181L267.171 184.711Z" fill="#787D71" fill-opacity="0.996"/>
<path d="M333.73 187.13L330.75 186.33L328.01 184.93L333.73 187.13Z" fill="#787D71" fill-opacity="0.996"/>
<path d="M258.37 195.501L257.37 195.791L256.48 195.451L257.22 195.211L258.37 195.501Z" fill="#787D71" fill-opacity="0.996"/>
<path d="M336.361 195.5L335.381 195.71L334.041 195.49L335.261 195.26L336.291 195.47L336.361 195.5Z" fill="#787D71" fill-opacity="0.996"/>
<path d="M256.48 195.451L257.37 195.791L258.37 195.501L260.95 195.851L267.07 198.791L269.18 200.881L270.97 203.441L273.07 211.511L273.2 224.911L273.02 226.391L272.99 228.441L273.28 230.061L274.02 231.711L278.34 238.481L281.88 243.191L285.74 247.681L286.76 248.591L287.06 249.151L292.55 255.591L293.02 256.171L293.32 256.821L293.85 257.091L294.02 257.391L294.34 258.111L294.77 258.401L295.43 259.941L295.57 261.451L295.14 263.041L294.09 264.591L293.57 265.131L292.67 265.621L289.71 266.411L286.81 263.981L284 261.201L281.27 258.081L278.63 254.621L278.39 254.651L277.74 254.261L277.13 253.171L273.4 247.941L273.03 247.661L272.59 247.741L272.23 248.081L272.21 248.581L272.53 249.221L272.31 249.861L271.64 253.141L271.54 255.081L271.67 257.041L271.61 257.431L271.59 259.631L272.11 261.891L272.46 262.931L273.45 265.081L274.76 267.101L275.55 268.281L276.1 269.681L279.32 278.081L282.07 286.691L284.35 295.501L286.16 304.511L286.5 304.961L286.67 305.651L286.56 306.481L286.66 309.111L286.99 311.701L287.92 315.561L288.49 317.621L288.55 319.621L288.68 324.671L284.92 325.441L283.64 325.291L282.31 325.361L279.5 326.171L279 326.471L278.53 326.531L277.99 326.251L277.51 325.581L276.73 323.071L275.31 317.611L273.62 312.371L271.68 307.331L269.47 302.511L269.19 302.191L268.84 302.101L268.91 301.611L267.93 299.001L266.39 296.521L266.32 296.731L266.16 296.431L261.98 290.121L261.33 289.751L260.65 290.061L260.52 290.291L259.27 293.511L256.89 298.821L254.14 303.971L251.03 308.981L247.55 313.841L242.79 319.741L237.53 325.101L233.16 328.861L233.14 328.881L232.33 329.081L231.63 328.641L225.51 320.081L225.26 319.281L225.53 318.481L233.45 308.011L234.1 307.631L234.51 307.121L234.67 306.071L236.75 302.091L238.09 299.821L239.32 296.901L240.76 292.491L241.83 288.151L242.54 283.901L242.88 279.721L243.29 273.161L243.05 266.661L242.83 264.491L242.05 256.111L241.94 255.831L242.07 253.441L241.95 251.081L241.24 247.381L240.86 243.521L241.03 241.511L240.9 239.541L240.39 237.351L239.85 229.481L240.38 228.341L240.55 227.411L240.49 226.431L240.33 226.071L240.06 226.361L239.7 227.271L238.25 232.091L237.18 236.771L236.39 241.521L235.9 246.351L235.71 251.261L235.81 263.201L235.17 264.681L234.4 265.641L233.39 266.441L232.12 267.091L230.61 267.581L228.99 267.051L228.58 266.661L227.43 265.151L226.62 263.321L226.15 261.151L226.01 258.651L226.46 248.761L227.58 239.261L229.36 230.161L231.81 221.451L237.75 208.891L238.32 208.321L239.41 206.851L240.22 205.131L240.27 204.931L240.73 204.461L245.56 199.911L245.53 199.821L245.76 199.491L246.51 199.121L247.7 198.771L248.44 198.131L248.58 197.871L249.53 197.681L250.24 197.241L250.54 196.871L253.01 196.401L254.36 195.801L255.29 195.561L256.48 195.451Z" fill="#072931"/>
<path d="M334.04 195.49L335.38 195.71L336.36 195.5L338.56 195.74L346.32 200.05L347.86 201.77L349.03 203.63L350.04 206.17L350.83 208.76L351.61 212.89L351.86 217.15L351.53 228.16L351.67 229.78L352.28 231.45L353.35 233.14L354.9 234.88L361.13 243.18L364.17 247.45L367.44 251.52L372.83 257.31L373.8 258.74L374.33 260.25L374.37 262.32L373.82 262.89L373.17 263.84L372.69 264.94L370.9 265.89L369.12 266.19L367.9 266.02L366.68 265.54L364.83 264.19L363.06 262.13L351.61 247.49L351.08 247.14L350.44 247.2L350.41 247.21L350.25 247.9L350.54 248.58L350.85 248.73L350.39 249.61L350.34 250.91L349.86 254.17L349.64 256.97L349.67 259.29L349.97 261.15L350.59 262.88L351.78 265.41L355.83 272.89L355.9 273.01L356.06 273.66L359.69 283.89L362.76 294.28L364.56 301.61L366.09 309.01L367.52 314.09L368.43 319.23L368.63 321.03L368.55 322.89L368.13 324.38L367.86 324.73L367.51 324.88L359.92 326.53L358.97 326.38L358.37 325.64L355.55 317.5L352.36 309.68L348.8 302.16L344.86 294.95L344.58 294.67L344.46 294.64L344.21 294.72L344.28 294.69L344.09 294.47L342.96 292.23L341.84 290.7L340.5 289.3L340.15 289.16L339.79 289.3L339.56 289.63L339.51 289.9L338.94 291.72L338.24 293.03L335.47 298.74L332.43 304.29L327.99 311.45L323.08 318.35L318.02 323.67L312.29 328.56L310.75 327.67L310.62 327.41L310.14 326.33L309.43 325.6L309.03 325.39L308.47 324.91L308.19 324.36L308.16 324.12L307.43 322.8L306.49 321.72L305.6 321.04L305.07 320.76L304.74 320.37L304.63 319.4L304.66 319.24L305.28 317.87L306.5 316.64L309.45 313.03L312.07 309.28L314.37 305.38L316.33 301.34L318.04 296.92L319.38 292.33L320.35 287.59L320.96 282.68L320.97 281.22L321.23 279.91L321.6 277.92L321.84 275.55L321.88 273.15L321.71 270.71L321.33 268.25L320.87 263.51L319.32 247.07L318.78 242.07L319.02 240.13L318.98 238.21L318.33 235.16L317.94 228.76L318.25 228.03L318.28 226.79L318.07 226.3L317.82 226.77L316.15 233.12L314.9 239.31L314.08 245.35L313.68 251.23L313.47 255.21L313.74 260.72L313.86 263.02L313.62 264.56L313.14 265.56L312.48 266.35L311.6 266.96L310.51 267.34L309.05 267.27L307.78 266.99L306.69 266.53L305.79 265.86L304.71 264.31L304.14 262.21L303.85 261.22L304.13 258.52L303.91 256.84L304.12 250.87L304.57 249.28L304.59 247.76L304.45 247.07L304.48 246.73L304.66 246.55L304.69 246.52V246.5L305.74 238.54L307.47 229.92L309.8 221.4L310.44 220.56L310.82 219.65L310.95 218.44L311.27 217.29L311.77 216.24L311.78 216.22L312.8 214.98L313.15 213.37L315.44 208.69L317.36 205.71L319.57 202.91L321.27 201.13L323.07 199.6L324.99 198.3L327.01 197.24L330.39 196.07L334.04 195.49Z" fill="#072931"/>
<path d="M254.361 195.801L253.011 196.401L250.541 196.871L250.831 196.701L252.491 196.051L254.361 195.801Z" fill="#787D71" fill-opacity="0.996"/>
<path d="M346.321 200.05L338.561 195.74L341.111 196.37L343.371 197.46L344.931 198.62L346.321 200.05Z" fill="#787D71" fill-opacity="0.996"/>
<path d="M267.071 198.79L260.951 195.85L262.451 196.17L263.871 196.68L265.531 197.58L267.071 198.79Z" fill="#787D71" fill-opacity="0.996"/>
<path d="M250.54 196.871L250.24 197.241L249.53 197.681L248.58 197.871L248.97 197.551L250.54 196.871Z" fill="#236391"/>
<path d="M248.58 197.871L248.44 198.131L247.7 198.771L246.51 199.121L247.17 198.571L248.58 197.871Z" fill="#236391"/>
<path d="M245.56 199.91L240.73 204.46L241.59 203.14L242.6 201.98L243.98 200.84L245.56 199.91Z" fill="#787D71" fill-opacity="0.996"/>
<path d="M270.971 203.439L272.371 206.189L272.991 208.749L273.071 211.509L270.971 203.439Z" fill="#787D71" fill-opacity="0.996"/>
<path d="M349.031 203.631L350.271 205.721L351.181 207.761L351.751 209.751L352.001 211.681L352.381 225.911L352.601 229.031L353.391 231.941L354.901 234.881L353.351 233.141L352.281 231.451L351.671 229.781L351.531 228.161L351.861 217.151L351.611 212.891L350.831 208.761L350.041 206.171L349.031 203.631Z" fill="#787D71" fill-opacity="0.996"/>
<path d="M237.75 208.891L238.81 206.941L240.22 205.131L239.41 206.851L238.32 208.321L237.75 208.891Z" fill="#787D71" fill-opacity="0.996"/>
<path d="M382.351 208.391L385.131 209.061L387.851 209.401L389.671 209.511L400.731 209.831L421.001 210.161L423.881 210.391L427.481 210.921L395.721 229.681L395.241 229.601L380.861 211.381L380.541 210.521L380.981 209.711L382.351 208.391Z" fill="#EDB833"/>
<path d="M213.821 208.881L214.411 209.401L214.641 209.961L214.291 210.871L207.051 220.111L200.391 229.451L199.711 229.981L198.861 229.791L165.111 209.711L168.191 210.231L170.111 210.361L178.411 209.981L186.711 209.801L197.381 209.861L208.051 210.261L210.751 209.981L213.821 208.881Z" fill="#EDB833"/>
<path d="M237.751 208.891L231.811 221.451L233.401 216.921L235.451 212.641L237.751 208.891Z" fill="#787D71" fill-opacity="0.996"/>
<path d="M569.101 209.68L546.251 216.34L531.771 220.33L506.901 226.9L481.621 233.84L462.331 239.07L409.561 253.38L406.901 253.98L406.001 253.8L405.391 253.12L398.501 237.51L398.391 236.48L399.091 235.71L442.701 210.18L475.141 209.89L489.561 209.84L529.631 209.75L543.401 209.9L552.991 210.18L558.111 210.36L563.651 210.03L569.101 209.68Z" fill="#EDB833"/>
<path d="M152.391 209.821L195.631 235.791L196.151 236.211L196.431 236.701L196.481 237.261L196.301 237.901L189.451 253.461L189.181 253.781L188.761 253.821L183.851 252.511L179.451 251.311L171.311 249.361L160.441 246.401L147.631 242.951L131.921 238.781L79.0512 224.171L41.2112 214.041L37.7012 212.941L33.7812 211.331L39.5513 210.501L45.8712 209.931L52.7513 209.621L60.1913 209.561L65.3112 209.611L90.5612 209.791L109.561 209.671L130.951 209.551L152.391 209.821Z" fill="#EDB833"/>
<path d="M311.781 216.221L313.151 213.371L312.801 214.981L311.781 216.221Z" fill="#787D71" fill-opacity="0.996"/>
<path d="M88.3898 234.04L87.8298 234.65L86.1898 235.55L84.0099 235.85L22.4698 235.58L17.0898 235.78L13.3898 235.69L9.83984 235.14L14.0298 216.76L14.4398 215.43L15.0598 214.23L15.3298 214.01L15.6798 213.99L88.3898 234.04Z" fill="#EC9940"/>
<path d="M585.19 235.3L546.82 235.86L508.62 235.97L506.74 235.52L506.48 235.32L506.66 235.06L508.48 233.65L578.38 214.63L579.18 214.57L579.93 214.83L580.53 215.36L580.87 216.08L580.88 216.13L585.19 235.3Z" fill="#EC9940"/>
<path d="M309.801 221.399L310.951 218.439L310.821 219.649L310.441 220.559L309.801 221.399Z" fill="#787D71" fill-opacity="0.996"/>
<path d="M231.81 221.451L229.36 230.161L227.58 239.261L226.46 248.761L226.01 258.651L226.15 261.151L226.62 263.321L227.43 265.151L228.58 266.661L228.99 267.051L228.01 266.871L227.24 266.431L226.47 265.251L225.95 263.371L225.61 261.401L225.49 257.161L225.75 253.121L226.6 242.901L227.68 235.481L229.44 228.271L231.81 221.451Z" fill="#787D71" fill-opacity="0.996"/>
<path d="M309.8 221.4L307.47 229.92L305.74 238.54L304.69 246.5V246.52L304.66 246.55L304.48 246.73L304.76 242.38L305.28 238.09L306.04 233.86L307.03 229.7L308.29 225.52L309.8 221.4Z" fill="#787D71" fill-opacity="0.996"/>
<path d="M273.2 224.91L273.53 228.14L274.41 231.15L276.01 234.19L280.35 240.44L285.74 247.68L281.88 243.19L278.34 238.48L274.02 231.71L273.28 230.06L272.99 228.44L273.02 226.39L273.2 224.91Z" fill="#787D71" fill-opacity="0.996"/>
<path d="M239.851 229.48L238.351 234.77L237.161 240.16L236.281 245.66L235.711 251.26L235.901 246.35L236.391 241.52L237.181 236.77L238.251 232.09L239.701 227.27L240.061 226.36L240.331 226.07L240.491 226.43L240.551 227.41L240.381 228.34L239.851 229.48Z" fill="#787D71" fill-opacity="0.996"/>
<path d="M317.94 228.761L316.12 235.951L314.67 243.541L313.68 251.231L314.08 245.351L314.9 239.311L316.15 233.121L317.82 226.771L318.07 226.301L318.28 226.791L318.25 228.031L317.94 228.761Z" fill="#787D71" fill-opacity="0.996"/>
<path d="M508.481 233.65L506.661 235.06L506.481 235.32L506.741 235.52L508.621 235.97L546.821 235.86L585.191 235.3L587.171 246.03L588.531 257.02L589.261 268.24L589.381 279.72L589.031 280.55L588.191 280.89H410.931L410.391 280.78L409.941 280.48L409.631 280.03L409.521 279.49L409.341 275.38L408.871 271.19L408.111 266.93L407.061 262.58L407.161 261.7L407.841 261.13L412.531 259.71L474.091 242.53L491.231 237.93L508.481 233.65Z" fill="#EDB833"/>
<path d="M88.3899 234.041L101.74 237.531L177.09 257.721L182.19 258.811L186.23 259.661L187.17 260.301L187.5 261.381L187.24 264.311L186.75 266.971L186.05 270.301L185.58 273.551L185.32 276.741L185.29 279.861L185.02 280.551L184.34 280.851H184.33L9.80992 281.031L8.02992 280.921L6.33992 280.591L5.64992 280.111L5.41992 279.301L7.17992 251.641L7.96992 245.501L9.83992 235.141L13.3899 235.691L17.0899 235.781L22.4699 235.581L84.0099 235.851L86.1899 235.551L87.8299 234.651L88.3899 234.041Z" fill="#EDB833"/>
<path d="M318.78 242.07L318.5 240.67L318.23 237.94L318.331 235.16L318.98 238.21L319.021 240.13L318.78 242.07Z" fill="#787D71" fill-opacity="0.996"/>
<path d="M240.86 243.52L240.62 242.4L240.33 239.91L240.39 237.35L240.9 239.54L241.03 241.51L240.86 243.52Z" fill="#787D71" fill-opacity="0.996"/>
<path d="M372.831 257.31L367.441 251.52L364.171 247.45L361.131 243.18L372.831 257.31Z" fill="#787D71" fill-opacity="0.996"/>
<path d="M304.121 250.87L304.451 247.07L304.591 247.76L304.571 249.28L304.121 250.87Z" fill="#787D71" fill-opacity="0.996"/>
<path d="M363.06 262.131L359.84 258.571L356.78 254.871L353.9 251.051L353.01 250.031L351.97 249.251L350.85 248.731L350.54 248.581L350.25 247.901L350.41 247.211L350.44 247.201L351.08 247.141L351.61 247.491L363.06 262.131Z" fill="#787D71" fill-opacity="0.996"/>
<path d="M241.94 255.831L241.24 247.381L241.95 251.081L242.07 253.441L241.94 255.831Z" fill="#787D71" fill-opacity="0.996"/>
<path d="M277.131 253.17L275.121 251.1L273.871 249.37L273.331 248.85L273.061 248.83L272.531 249.22L272.211 248.58L272.231 248.08L272.591 247.74L273.031 247.66L273.401 247.94L277.131 253.17Z" fill="#787D71" fill-opacity="0.996"/>
<path d="M272.311 249.861L272.351 253.201L271.671 257.041L271.541 255.081L271.641 253.141L272.311 249.861Z" fill="#787D71" fill-opacity="0.996"/>
<path d="M350.341 250.91L350.161 254.57L350.311 258.16L350.911 261.15L352.211 264.48L355.831 272.89L351.781 265.41L350.591 262.88L349.971 261.15L349.671 259.29L349.641 256.97L349.861 254.17L350.341 250.91Z" fill="#787D71" fill-opacity="0.996"/>
<path d="M289.711 266.411L286.621 264.381L283.741 261.731L281.081 258.481L278.631 254.621L281.271 258.081L284.001 261.201L286.811 263.981L289.711 266.411Z" fill="#787D71" fill-opacity="0.996"/>
<path d="M242.831 264.491L242.491 262.431L242.431 261.441L242.051 256.111L242.831 264.491Z" fill="#787D71" fill-opacity="0.996"/>
<path d="M293.852 257.09L293.322 256.82L293.021 256.17L293.591 256.64L293.852 257.09Z" fill="#787D71" fill-opacity="0.996"/>
<path d="M303.85 261.22L303.51 259.48L303.58 258.17L303.91 256.84L304.13 258.52L303.85 261.22Z" fill="#787D71" fill-opacity="0.996"/>
<path d="M294.771 258.401L294.341 258.111L294.021 257.391L294.671 257.961L294.771 258.401Z" fill="#787D71" fill-opacity="0.996"/>
<path d="M294.09 264.59L295.14 263.04L295.57 261.45L295.43 259.94L294.77 258.4L295.94 260.05L296.2 260.84L296.23 261.62L296.05 262.39L295.63 263.15L294.09 264.59Z" fill="#787D71" fill-opacity="0.996"/>
<path d="M272.111 261.891L274.761 267.101L273.451 265.081L272.461 262.931L272.111 261.891Z" fill="#236391"/>
<path d="M310.511 267.341L309.011 267.591H307.711L306.621 267.341L305.721 266.831L305.021 266.061L304.521 265.041L304.231 263.751L304.141 262.211L304.711 264.311L305.791 265.861L306.691 266.531L307.781 266.991L309.051 267.271L310.511 267.341Z" fill="#787D71" fill-opacity="0.996"/>
<path d="M374.371 262.32L373.871 263.69L373.051 264.68L372.691 264.94L373.171 263.84L373.821 262.89L374.371 262.32Z" fill="#236391"/>
<path d="M235.811 263.201L235.741 264.501L235.311 265.581L234.591 266.371L233.571 266.971L232.241 267.371L230.611 267.581L232.121 267.091L233.391 266.441L234.401 265.641L235.171 264.681L235.811 263.201Z" fill="#787D71" fill-opacity="0.996"/>
<path d="M321.23 279.91L321.331 268.25L321.711 270.71L321.88 273.15L321.841 275.55L321.6 277.92L321.23 279.91Z" fill="#787D71" fill-opacity="0.996"/>
<path d="M286.16 304.51L284.35 295.5L282.07 286.69L279.32 278.08L276.1 269.68L277.83 272.81L278.87 275.1L281.06 281.42L282.92 287.84L284.8 296.1L286.16 304.51Z" fill="#787D71" fill-opacity="0.996"/>
<path d="M366.091 309.01L364.561 301.61L362.761 294.28L359.691 283.89L356.061 273.66L356.931 274.68L357.581 276.03L359.871 282.73L361.981 289.74L363.931 297.06L365.701 304.68L366.081 307.08L366.091 309.01Z" fill="#787D71" fill-opacity="0.996"/>
<path d="M236.75 302.091L238.56 297.471L240.1 292.781L241.74 286.321L242.88 279.721L242.54 283.901L241.83 288.151L240.76 292.491L239.32 296.901L238.09 299.821L236.75 302.091Z" fill="#787D71" fill-opacity="0.996"/>
<path d="M306.5 316.64L309.21 312.86L311.66 308.97L313.85 304.97L315.78 300.86L317.49 296.49L318.92 292.01L320.08 287.4L320.96 282.68L320.35 287.59L319.38 292.33L318.04 296.92L316.33 301.34L314.37 305.38L312.07 309.28L309.45 313.03L306.5 316.64Z" fill="#787D71" fill-opacity="0.996"/>
<path d="M185.2 298.14L184.47 289.71L184.06 288.88L183.2 288.54L165.74 288.41L184.14 288.26L184.85 288.55L185.15 289.25L185.2 298.14Z" fill="#787D71" fill-opacity="0.996"/>
<path d="M165.741 288.41L183.201 288.54L184.061 288.88L184.471 289.71L185.201 298.14L185.391 299.59L185.261 301.11L185.131 301.41L184.681 301.69L173.801 303.41L160.731 305.52L147.771 307.91L134.911 310.57L122.151 313.51L109.491 316.72L96.9415 320.21L84.4915 323.97L72.1515 328.01L63.1915 331.19L53.3915 334.93L37.6515 341.28L28.5415 345.38L16.4315 351L16.0515 351.01L15.7715 350.76L14.2815 347.48L13.3915 344.95L11.3115 336.77L9.56148 328.56L8.15147 320.3L7.06148 312.02L6.74147 308.94L6.72148 302.37L6.08148 295.89L5.78148 292.39L5.52148 288.89L165.741 288.41Z" fill="#236391"/>
<path d="M589.22 291.111L588.77 291.331L588.67 291.631L587.73 306.571L587.01 313.461L586.13 319.961L585.05 326.131L583.6 332.871L581.79 340.161L579.61 348.011L579.04 349.251L578.23 349.961L577.1 350.151L564.85 344.451L553.67 339.541L543.57 335.441L534.54 332.141L524.45 328.641L514.32 325.181L498.78 320.571L484.12 316.511L470.33 313.001L457.43 310.041L438.41 306.371L415.35 302.701L414.1 302.171L413.24 302.131L412.33 302.341L409.85 301.691L410.05 295.351L410.46 289.371L410.61 289.011L410.98 288.891H588.58L589.05 289.031L589.3 289.431L589.38 290.211L589.22 291.111Z" fill="#236391"/>
<path d="M5.52148 288.891L5.78148 292.391L6.08148 295.891L6.72148 302.371L6.74147 308.941L5.77148 298.871L5.52148 288.891Z" fill="#787D71" fill-opacity="0.996"/>
<path d="M344.09 294.47L339.51 289.9L339.56 289.63L339.79 289.3L340.15 289.16L340.5 289.3L341.84 290.7L342.96 292.23L344.09 294.47Z" fill="#787D71" fill-opacity="0.996"/>
<path d="M266.161 296.43L264.091 294.07L262.611 291.87L262.141 291.24L261.691 291.04L261.241 291.26L260.811 291.91L254.121 305.2L251.641 309.01L247.551 313.84L251.031 308.98L254.141 303.97L256.891 298.82L259.271 293.51L260.521 290.29L260.651 290.06L261.331 289.75L261.981 290.12L266.161 296.43Z" fill="#787D71" fill-opacity="0.996"/>
<path d="M589.22 291.111L589.29 294.121L589.14 297.791L587.92 310.911L585.99 323.821L583.35 336.511L580 349.001L579.63 350.211L579.41 350.581L578.97 350.771L578.83 350.791L577.98 350.661L577.1 350.151L578.23 349.961L579.04 349.251L579.61 348.011L581.79 340.161L583.6 332.871L585.05 326.131L586.13 319.961L587.01 313.461L587.73 306.571L588.67 291.631L588.77 291.331L589.22 291.111Z" fill="#787D71" fill-opacity="0.996"/>
<path d="M338.24 293.031L335.56 299.571L332.31 305.781L330.26 309.071L328.04 312.271L325.65 315.361L323.08 318.351L327.99 311.451L332.43 304.291L335.47 298.741L338.24 293.031Z" fill="#787D71" fill-opacity="0.996"/>
<path d="M368.631 321.031L369.181 322.591V324.041L369.041 324.541L368.801 324.901L368.401 325.101L359.881 326.951L359.211 326.971L358.581 326.751L358.061 326.311L357.741 325.721L355.391 318.851L352.851 312.131L349.771 305.471L344.211 294.721L344.461 294.641L344.581 294.671L344.861 294.951L348.801 302.161L352.361 309.681L355.551 317.501L358.371 325.641L358.971 326.381L359.921 326.531L367.511 324.881L367.861 324.731L368.131 324.381L368.551 322.891L368.631 321.031Z" fill="#787D71" fill-opacity="0.996"/>
<path d="M409.851 301.69L409.411 300.39L409.291 298.9L409.501 297.22L410.051 295.35L409.851 301.69Z" fill="#787D71" fill-opacity="0.996"/>
<path d="M268.911 301.61L268.081 300.44L267.101 298.57L266.391 296.52L267.931 299L268.911 301.61Z" fill="#787D71" fill-opacity="0.996"/>
<path d="M276.73 323.07L268.84 302.1L269.19 302.19L269.47 302.51L271.68 307.33L273.62 312.37L275.31 317.61L276.73 323.07Z" fill="#787D71" fill-opacity="0.996"/>
<path d="M415.35 302.701L413.79 302.681L412.33 302.341L413.24 302.131L414.1 302.171L415.35 302.701Z" fill="#787D71" fill-opacity="0.996"/>
<path d="M342.031 303.71L341.441 303.84L340.861 304.44L336.681 311.37L331.921 317.81L328.361 321.91L333.611 314.74L337.491 308.89L341.131 302.87L341.451 302.6L341.771 302.87L342.031 303.71Z" fill="#787D71" fill-opacity="0.996"/>
<path d="M269.52 320.499L274.26 339.369L276.09 348.139L276.41 349.769L276.93 351.169L277.63 352.339L278.53 353.279L279.65 354.009L280.96 354.499L281.14 354.539L283.35 354.849L285.66 354.719L288.08 354.149L290.6 353.149L297.91 349.769L298.77 349.629L299.33 349.869L299.84 350.389L300.1 350.749L301.37 352.069L302.95 353.139H302.99L303.54 353.329L304.07 353.769L304.58 354.469L305.13 354.869L307.47 355.819L309.79 356.459L312.1 356.799L314.39 356.829L317.86 356.299L321.3 355.049L323.27 353.499L324.99 351.24L325.7 348.639L325.75 347.409L325.59 346.219L324.86 344.329L323.55 342.559L321.66 340.93L319.18 339.419L315.15 336.709L315.16 335.829L315.24 335.409L315.52 334.979L319.3 331.119L328.36 321.909L331.92 317.809L336.68 311.369L340.86 304.439L341.44 303.839L342.03 303.709L342.38 304.109L343.11 306.169L344.05 308.099L345.73 310.609L351.69 326.819L352.2 329.729L352.93 332.169L353.92 334.539L355.7 341.459L356.03 344.979L356.74 348.169L357.85 351.009L359.35 353.519L360.91 354.349L362.3 354.859L363.52 355.069L364.56 354.969L366.21 354.639L367.79 354.529L370.12 354.139L372.71 353.089L373.64 352.549L375.3 352.129L382.9 349.369L390.34 346.149L392.08 345.219L393.56 344.199L394.76 343.079L395.7 341.859L396.38 340.539L396.79 339.169L396.92 337.759L396.79 336.299L396.38 334.779L395.71 333.219L394.91 331.919L393.95 330.839L392.55 329.769L390.98 329.009L389.13 328.499L387.18 328.289L385 328.339L382.64 328.699L380.28 329.339L378.1 330.189L377.59 330.299L377.09 330.189L376.68 329.879L376.44 329.419L376.4 329.24L375.65 323.599L374.67 318.059L373.47 312.609L372.04 307.259L371.28 304.319L371.31 303.909L371.69 303.749L373.2 303.809L374.54 304.169L395.58 306.289L416.51 309.089L418.58 309.399L419.27 309.349L421.38 309.459L423.5 309.939L458.35 316.469L458.85 316.529L458.99 316.629L460.81 317.279L462.55 317.409L469.66 319.069L476.01 320.579L476.3 320.869L477.26 321.299H478.56L478.83 321.399L493.57 325.419L493.62 325.449L495.2 326.159L497.08 326.399L497.89 326.559L497.98 326.619L505.35 328.839L508.71 329.809L530.03 337.189L530.19 337.139L530.78 337.189L531.46 337.589L555.52 347.109L556.62 347.49L556.77 347.589L562.58 350.139L567.93 352.499L569.9 353.729L571.95 354.74L574.81 355.769L591.95 364.269L593.19 364.999L593.53 365.509L592.99 365.829L591.56 365.93L312.56 365.969L302.71 366.079L294.6 366.409L281.83 366.019L269.07 365.859L256.31 365.93L243.56 366.219L238.31 366.409L229.6 366.039L220.81 365.909L2.81 366.039L0.75 366.479H0.389999L0.169998 366.229L0.0200043 365.889L0 365.619L0.190002 365.439L18.22 356.579L20.05 356.049L22.34 355.049L24.51 353.699L26.85 352.659L44.57 344.889L70.92 334.889L72.45 334.369L79.7 331.93L106.26 323.859L118.32 320.809L123.09 319.599L135.29 316.659L135.55 316.519L135.54 316.609H136.23L136.91 316.639L141.22 315.689L145.41 314.439L161.09 311.549L171.29 309.769L172.05 309.549L172.78 309.539L173.1 309.609L185.42 307.659L185.47 307.499L185.5 307.619L212.79 304.839L213.96 304.449L215.24 304.519L224.8 304.059H228.76L229.09 304.229L229.15 304.599L229.08 304.719L224.42 310.609L220.59 314.68L216.63 318.579L212.52 322.289L208.27 325.829L207.83 326.18L206.67 327.359L205.96 328.689L205.74 329.699L205.69 331.439L205.9 333.019L206.4 334.609L207.25 336.279L208.49 338.039L210.34 340.24L213.79 343.599L218 348.399L220.21 350.979L222.67 353.279L225.4 355.329L227.17 356.269L229 356.759L231.34 356.769L233.52 357.039L235.25 356.93L236.99 356.529L237.87 356.699L238.69 356.629L239.52 356.279L240.27 355.639L241.98 354.729L243.35 353.689L244.38 352.519L245.07 351.219L245.4 349.919L245.45 348.509L245.22 346.99L244.7 345.359L243.91 344.099L242.43 342.549L239.65 340.419L235.34 337.199L234.42 336.389L234.39 336.359L234.25 335.969L234.44 335.589L239.5 331.43L241.41 330.119L242.93 328.219L246.58 324.599L250.59 320.659L254.22 316.419L258.05 310.999L261.35 305.159L262.04 303.699L262.45 303.129L262.75 302.939L263 303.189L264.96 307.449L266.71 311.749L268.22 316.099L269.52 320.499Z" fill="#072931"/>
<path d="M301.321 313.651L298.551 316.181L296.251 319.001L295.761 319.561L295.361 319.691L295.041 319.411L294.821 318.701L291.711 303.011L307.581 302.861L308.161 303.131L308.301 303.741L308.251 303.901L306.711 306.781L304.251 310.351L301.321 313.651Z" fill="#072931"/>
<path d="M291.711 303.01L294.821 318.7L295.041 319.41L295.361 319.69L295.761 319.56L296.251 319L298.551 316.18L301.321 313.65L296.651 319.15L296.511 319.38L295.651 320.71L295.211 321L294.871 321.02L294.631 320.78L294.481 320.28L291.711 303.01Z" fill="#787D71" fill-opacity="0.996"/>
<path d="M418.581 309.4L416.511 309.09L395.581 306.29L374.541 304.17L379.691 304.22L385.811 304.74L411.421 307.82L415.071 308.45L418.581 309.4Z" fill="#787D71" fill-opacity="0.996"/>
<path d="M345.731 310.611L344.051 308.101L343.111 306.171L342.381 304.111L344.171 306.821L345.051 308.661L345.731 310.611Z" fill="#787D71" fill-opacity="0.996"/>
<path d="M212.79 304.84L185.5 307.62L196.52 306.06L207.57 305.09L212.79 304.84Z" fill="#787D71" fill-opacity="0.996"/>
<path d="M261.35 305.16L258.05 311L254.22 316.42L250.59 320.66L246.58 324.6L250.84 319.7L256.32 312.62L261.35 305.16Z" fill="#787D71" fill-opacity="0.996"/>
<path d="M233.451 308.01L234.671 306.07L234.511 307.12L234.101 307.63L233.451 308.01Z" fill="#787D71" fill-opacity="0.996"/>
<path d="M286.561 306.48L287.921 315.56L286.991 311.7L286.661 309.11L286.561 306.48Z" fill="#787D71" fill-opacity="0.996"/>
<path d="M375.301 352.13L388.101 346.61L390.051 345.67L391.811 344.6L393.371 343.4L394.751 342.08L395.721 340.68L396.301 339.07L396.471 337.36L396.231 335.66L395.351 333.47L394.051 331.7L393.081 330.84L391.951 330.12L389.241 329.13L386.601 328.87L383.411 329.2L377.701 330.51L377.111 330.56L376.551 330.37L376.111 329.98L375.861 329.44L375.841 329.36L372.041 307.26L373.471 312.61L374.671 318.06L375.651 323.6L376.401 329.24L376.441 329.42L376.681 329.88L377.091 330.19L377.591 330.3L378.101 330.19L380.281 329.34L382.641 328.7L385.001 328.34L387.181 328.29L389.131 328.5L390.981 329.01L392.551 329.77L393.951 330.84L394.911 331.92L395.711 333.22L396.381 334.78L396.791 336.3L396.921 337.76L396.791 339.17L396.381 340.54L395.701 341.86L394.761 343.08L393.561 344.2L392.081 345.22L390.341 346.15L382.901 349.37L375.301 352.13Z" fill="#787D71" fill-opacity="0.996"/>
<path d="M423.5 309.939L434.72 311.549L445.85 313.599L458.35 316.469L423.5 309.939Z" fill="#787D71" fill-opacity="0.996"/>
<path d="M224.421 310.611L217.201 318.621L214.471 321.241L212.341 322.941L209.301 325.301L206.981 327.811L206.841 328.001L206.201 329.641L206.211 331.721L206.551 333.201L207.161 334.671L208.021 336.141L209.151 337.601L213.791 343.601L210.341 340.241L208.491 338.041L207.251 336.281L206.401 334.611L205.901 333.021L205.691 331.441L205.741 329.701L205.961 328.691L206.671 327.361L207.831 326.181L208.271 325.831L212.521 322.291L216.631 318.581L220.591 314.681L224.421 310.611Z" fill="#787D71" fill-opacity="0.996"/>
<path d="M145.411 314.439L141.221 315.689L136.911 316.639L136.231 316.609H135.541L145.411 314.439Z" fill="#236391"/>
<path d="M462.55 317.411L460.81 317.281L458.99 316.631L460.38 316.701L461.69 317.021L462.55 317.411Z" fill="#787D71" fill-opacity="0.996"/>
<path d="M288.551 319.621L289.091 321.311L289.311 322.701L289.211 323.781L288.781 324.571L288.681 324.671L288.551 319.621Z" fill="#787D71" fill-opacity="0.996"/>
<path d="M269.521 320.5L271.542 326.66L273.111 332.92L274.262 339.37L269.521 320.5Z" fill="#787D71" fill-opacity="0.996"/>
<path d="M478.56 321.3H477.26L476.3 320.87L476.01 320.58L478.56 321.3Z" fill="#787D71" fill-opacity="0.996"/>
<path d="M308.16 324.121L307.19 323.391L306.4 322.521L305.6 321.041L306.49 321.721L307.43 322.801L308.16 324.121Z" fill="#787D71" fill-opacity="0.996"/>
<path d="M220.821 324.37L220.091 324.74L219.511 324.73L219.291 324.59L220.171 323.92L220.481 323.83L220.721 324.03L220.821 324.37Z" fill="#787D71" fill-opacity="0.996"/>
<path d="M220.821 324.371L222.081 326.181L222.881 327.711L223.921 329.001L224.731 329.721L225.851 330.851L226.641 331.971L227.101 333.081L227.231 334.181V334.201L226.511 334.801L226.271 335.401L226.421 335.861L226.841 336.321L227.011 336.871L226.921 337.101L226.901 337.321L227.071 337.711L229.211 340.091L231.551 342.231L233.711 343.881L236.011 345.361L237.701 346.701L239.041 348.271L239.291 348.661L239.381 349.251L239.011 349.721L238.971 349.741L237.381 350.401L235.811 350.831L234.261 351.031L232.741 350.991L231.231 350.721L229.751 350.211L228.291 349.471L226.851 348.491L225.581 346.981L224.261 345.661L221.551 343.041L217.451 338.251L213.681 333.461L213.221 332.551L213.121 331.541L213.391 330.561L213.991 329.741L218.821 325.571L219.171 325.141L219.291 324.591L219.511 324.731L220.091 324.741L220.821 324.371Z" fill="#072931"/>
<path d="M219.29 324.59L219.17 325.14L218.82 325.57L213.99 329.74L213.39 330.56L213.12 331.54L213.22 332.55L213.68 333.46L217.45 338.25L221.55 343.04L224.26 345.66L225.58 346.98L226.85 348.49L223.35 345.73L220.93 343.27L213.53 334.17L212.39 332.29L212.18 331.68V331.04L212.4 330.44L212.82 329.95L219.29 324.59Z" fill="#787D71" fill-opacity="0.996"/>
<path d="M301.04 325.361L301.98 326.841L303.12 328.101L304.38 329.101L306.74 332.351L306.93 332.791L306.91 333.271L306.72 334.811L306.97 336.141L307.29 337.071L307.81 337.801L308.3 338.181L311.45 341.191L317.78 345.951L318.58 346.741L319.49 348.101L317.63 349.521L316.69 349.871L315.76 349.991L315.56 349.981L313.2 349.991L310.58 350.291L309.31 349.721L304.52 346.471L298.1 339.981L293.6 334.411L291.82 331.741L291.66 331.291L291.75 330.851L291.92 330.561L292.84 329.871L294.55 329.031L296.11 327.991L298.51 325.651L299.27 324.981L300 324.791L300.53 324.941L301.04 325.361Z" fill="#072931"/>
<path d="M284.92 325.441L279.5 326.171L282.31 325.361L283.64 325.291L284.92 325.441Z" fill="#787D71" fill-opacity="0.996"/>
<path d="M301.041 325.361L302.871 326.941L304.381 329.101L303.121 328.101L301.981 326.841L301.041 325.361Z" fill="#787D71" fill-opacity="0.996"/>
<path d="M310.621 327.411L309.521 326.311L309.031 325.391L309.431 325.601L310.141 326.331L310.621 327.411Z" fill="#787D71" fill-opacity="0.996"/>
<path d="M497.08 326.4L495.2 326.16L493.62 325.45L493.57 325.42L495.27 325.64L497.08 326.4Z" fill="#787D71" fill-opacity="0.996"/>
<path d="M298.51 325.65L296.11 327.99L294.55 329.03L292.84 329.87L298.51 325.65Z" fill="#787D71" fill-opacity="0.996"/>
<path d="M224.73 329.72L223.92 329L222.88 327.71L222.08 326.18L223.86 328.12L224.73 329.72Z" fill="#236391"/>
<path d="M351.691 326.82L353.921 334.54L352.931 332.17L352.201 329.73L351.691 326.82Z" fill="#787D71" fill-opacity="0.996"/>
<path d="M312.29 328.56L311.91 328.76L311.36 328.51L310.75 327.67L312.29 328.56Z" fill="#787D71" fill-opacity="0.996"/>
<path d="M242.93 328.221L241.41 330.121L239.5 331.431L240.75 330.011L242.14 328.791L242.93 328.221Z" fill="#236391"/>
<path d="M530.031 337.191L508.711 329.811L515.661 331.821L522.501 334.161L530.031 337.191Z" fill="#787D71" fill-opacity="0.996"/>
<path d="M319.3 331.121L315.52 334.981L315.24 335.411L315.16 335.831L315.15 336.711L314.48 336.381L314.25 336.011L314.39 335.591L314.55 335.391L316.72 333.091L319.3 331.121Z" fill="#787D71" fill-opacity="0.996"/>
<path d="M369.381 331.831L368.131 331.781L367.061 331.521L368.461 331.111L369.221 331.301L369.381 331.831Z" fill="#787D71" fill-opacity="0.996"/>
<path d="M367.06 331.52L368.13 331.78L369.38 331.83L369.77 334.6L370.76 337.37L371.09 337.84L371.56 338.17L372.12 338.31L372.69 338.25L381.32 335.74L382.86 335.3L385.18 334.93L387.57 334.87L388.65 335.06L389.51 335.52L390.07 336.12L390.48 336.93L390.55 337.35L390.42 337.86L389.53 339.09L388.43 339.9L387.06 340.43L378.5 343.85L369.86 347.05L367.29 347.96L365.41 348.26L364.33 348.12L363.92 347.91L363.68 347.49L360.34 334.4L360.43 333.54L361.17 332.87L362.6 332.53L364.03 332.59L365.2 332.31L366.33 331.72L366.54 331.57L367.06 331.52Z" fill="#072931"/>
<path d="M284.09 331.961L279.16 333.011L279.17 332.741L279.23 332.571L279.36 332.461L281.52 331.851L282.79 331.801L284.09 331.961Z" fill="#787D71" fill-opacity="0.996"/>
<path d="M366.33 331.721L365.2 332.311L364.03 332.591L362.6 332.531L363.85 332.001L365.05 331.751L366.33 331.721Z" fill="#787D71" fill-opacity="0.996"/>
<path d="M286.53 335.02L286.54 335.04L287.3 336.95L288.61 338.72L290.46 340.35L292.86 341.85L295.05 344.37L295.21 344.77L294.98 345.13L293.89 345.47L284.88 347.88L283.86 348.05L283.05 347.85L282.39 347.22L281.96 346.17L279.28 334.08L279.16 333.01L284.09 331.96L284.92 331.91L285.58 332.13L286.01 332.55L286.31 333.17L286.53 335.02Z" fill="#072931"/>
<path d="M381.321 335.74L372.691 338.25L372.121 338.31L371.561 338.17L371.091 337.84L370.761 337.37L369.771 334.6L369.381 331.83L371.341 337.08L371.941 337.76L372.851 337.87L381.321 335.74Z" fill="#787D71" fill-opacity="0.996"/>
<path d="M227.232 334.201L227.111 335.411L226.841 336.321L226.421 335.861L226.271 335.401L226.512 334.801L227.232 334.201Z" fill="#787D71" fill-opacity="0.996"/>
<path d="M281.961 346.17L280.831 342.5L279.891 338.33L279.281 334.08L281.961 346.17Z" fill="#787D71" fill-opacity="0.996"/>
<path d="M387.06 340.43L381.79 343.07L376.37 345.34L370.41 347.35L364.29 348.92L363.9 348.87L363.59 348.48L360.34 334.4L363.68 347.49L363.92 347.91L364.33 348.12L365.41 348.26L367.29 347.96L369.86 347.05L378.5 343.85L387.06 340.43Z" fill="#787D71" fill-opacity="0.996"/>
<path d="M286.531 335.02L292.861 341.85L290.461 340.35L288.611 338.72L287.301 336.95L286.541 335.04L286.531 335.02Z" fill="#787D71" fill-opacity="0.996"/>
<path d="M308.301 338.181L307.811 337.801L307.291 337.071L306.971 336.141L307.681 336.901L308.301 338.181Z" fill="#236391"/>
<path d="M227.01 336.871L236.01 345.361L233.71 343.881L231.55 342.231L229.21 340.091L227.07 337.711L226.9 337.321L226.92 337.101L227.01 336.871Z" fill="#787D71" fill-opacity="0.996"/>
<path d="M555.521 347.11L531.461 337.59L542.821 341.61L549.211 344.24L555.521 347.11Z" fill="#787D71" fill-opacity="0.996"/>
<path d="M324.99 351.24L325.35 349.26L325.24 347.38L324.54 345.36L323.24 343.46L321.37 341.45L319.18 339.42L321.66 340.93L323.55 342.56L324.86 344.33L325.59 346.22L325.75 347.41L325.7 348.64L324.99 351.24Z" fill="#787D71" fill-opacity="0.996"/>
<path d="M355.701 341.461L359.351 353.521L357.851 351.011L356.741 348.171L356.031 344.981L355.701 341.461Z" fill="#787D71" fill-opacity="0.996"/>
<path d="M309.311 349.721L307.251 348.881L305.791 347.841L304.521 346.471L309.311 349.721Z" fill="#787D71" fill-opacity="0.996"/>
<path d="M319.49 348.1L318.72 349.41L317.43 350.31L315.65 350.76L313.36 350.75L310.58 350.29L313.2 349.99L315.56 349.98L315.76 349.99L316.69 349.87L317.63 349.52L319.49 348.1Z" fill="#787D71" fill-opacity="0.996"/>
<path d="M290.6 353.151L288.08 354.151L285.66 354.721L283.35 354.851L281.14 354.541L280.96 354.501L279.65 354.011L278.53 353.281L277.63 352.341L276.93 351.171L276.41 349.771L276.09 348.141L276.97 350.331L277.84 351.881L278.87 353.021L280 353.681L281.06 353.911L282.6 353.991L286.59 353.831L290.6 353.151Z" fill="#787D71" fill-opacity="0.996"/>
<path d="M231.34 356.77L229 356.76L227.17 356.27L225.4 355.33L222.67 353.28L220.21 350.98L218 348.4L223.36 353.1L224.88 354.23L226.72 355.22L228.87 356.06L231.34 356.77Z" fill="#787D71" fill-opacity="0.996"/>
<path d="M299.84 350.391L301.33 351.371L302.95 353.141L301.37 352.071L300.1 350.751L299.84 350.391Z" fill="#787D71" fill-opacity="0.996"/>
<path d="M574.81 355.77L571.95 354.74L569.9 353.73L567.93 352.5L574.81 355.77Z" fill="#787D71" fill-opacity="0.996"/>
<path d="M372.711 353.09L370.121 354.14L367.791 354.53L372.711 353.09Z" fill="#236391"/>
<path d="M24.5107 353.701L22.3407 355.051L20.0507 356.051L18.2207 356.581L24.5107 353.701Z" fill="#787D71" fill-opacity="0.996"/>
<path d="M321.3 355.05L317.86 356.3L314.39 356.83L312.1 356.8L309.79 356.46L307.47 355.82L305.13 354.87L304.58 354.47L304.07 353.77L306.22 354.97L307.5 355.47L310.2 355.84L312.9 355.98L317.1 355.78L321.3 355.05Z" fill="#787D71" fill-opacity="0.996"/>
<path d="M240.27 355.641L239.52 356.281L238.69 356.631L237.87 356.701L236.99 356.531L240.27 355.641Z" fill="#787D71" fill-opacity="0.996"/>
<path d="M294.601 366.411L276.331 366.931L258.061 366.951L238.311 366.411L243.561 366.221L256.311 365.931L269.071 365.861L281.831 366.021L294.601 366.411Z" fill="#787D71" fill-opacity="0.996"/>
<path d="M467.961 397.251L466.391 395.301L464.691 393.571L462.861 392.031L460.911 390.711L457.391 388.951L453.511 387.771L451.701 387.531L449.141 387.451L441.811 387.751L441.831 387.711L441.201 387.521L446.671 386.841L449.231 386.811L451.671 386.981L453.991 387.361L456.191 387.951L458.281 388.741L460.251 389.741L462.421 391.181L464.441 392.921L466.281 394.941L467.961 397.251Z" fill="#787D71" fill-opacity="0.996"/>
<path d="M351.301 393.1L348.301 390.96L345.091 389.29L342.081 388.22L339.591 387.71L336.981 387.59L331.921 387.55L331.771 387.54L330.041 387.64L327.951 388.1L324.221 389.31L322.021 390.42L320.051 391.72L318.291 393.19L316.761 394.84L315.501 396.59L314.451 398.49L313.591 400.56L312.941 402.79L312.131 407.37L311.891 411.94L312.131 415.76L312.771 419.57L313.521 422.02L314.721 424.66L317.371 429.46L315.671 427.19L314.041 424.33L312.791 421.22L311.921 417.86L311.421 414.25L311.301 410.07L311.671 406.1L312.511 402.35L313.831 398.82L314.901 396.72L316.151 394.71L318.091 392.46L320.591 390.57L323.621 389.05L327.211 387.9L329.841 387.35L332.461 387.02L335.051 386.92L337.621 387.04L340.611 387.48L343.571 388.22L346.351 389.32L348.831 390.84L351.301 393.1Z" fill="#787D71" fill-opacity="0.996"/>
<path d="M401.57 389.501L397.04 388.321L392.83 387.621L388.91 387.401L385.31 387.651L383.11 388.141L380.58 389.011L377.74 390.281L374.58 391.931L376.05 390.891L379.17 389.191L382.59 387.961L386.3 387.181L390.31 386.861L394.1 387.081L397.71 387.881L401.57 389.501Z" fill="#787D71" fill-opacity="0.996"/>
<path d="M441.2 387.521L441.83 387.711L441.81 387.751L449.14 387.451L451.7 387.531L453.51 387.771L457.39 388.951L460.91 390.711L462.86 392.031L464.69 393.571L466.39 395.301L467.96 397.251L468.96 399.191L470.17 403.501L471.05 408.011L471.58 412.731L471.78 417.651L471.79 454.361L471.31 460.061L470.16 465.491L469.13 468.461L467.81 471.111L466.2 473.471L464.31 475.511L462.27 477.161L459.98 478.531L457.44 479.631L454.65 480.461L454.44 480.511L451.22 481.071L447.93 481.281L444.55 481.161L441.1 480.691L438.44 480.061L436 479.181L433.78 478.041L431.79 476.651L430.46 475.471L429.03 473.861L427.79 472.061L426.74 470.071L425.87 467.891L424.6 463.831L424.12 461.401L423.42 452.441V414.141L424.1 408.821L424.44 405.981L425.05 403.611L427.55 397.171L433.41 390.961L433.48 390.871L441.43 387.741L441.62 387.591L441.2 387.521ZM452.55 466.931L452.46 466.741L452.82 466.761L454.47 464.991L455.49 463.001L455.84 461.371L455.83 459.621L456.09 410.371L455.93 407.831L455.6 406.791L455.1 405.921L454.45 404.401L453.66 403.121L452.72 402.091L451.65 401.321L449.81 400.661L448.07 400.311L446.43 400.281L444.88 400.571L443.65 401.061L442.49 401.781L441.48 402.661L440.24 404.331L439.35 406.421L438.82 408.991L438.62 412.151L438.43 433.271L438.52 455.171L438.84 459.961L439.68 463.521L440.72 465.511L442.14 466.971L443.69 467.811L445.53 468.251L449.09 468.411L450.42 468.191L451.58 467.691L452.55 466.931Z" fill="#072931"/>
<path d="M351.301 393.101L351.751 394.061L352.861 394.881L353.111 395.191L354.981 399.141L356.271 403.231L356.811 405.981L357.111 408.791L357.161 411.661L356.971 414.591L356.691 415.701L356.131 416.491L355.351 416.941L354.321 417.121L353.331 417.131L350.201 416.991L348.521 416.951L346.221 416.871L344.581 416.491L344.301 416.311L344.071 415.951L343.571 409.551L343.241 406.991L342.591 404.831L341.621 403.061L340.331 401.691L339.161 400.921L337.821 400.371L336.291 400.051L334.591 399.941L332.061 400.251L329.921 401.181L329.241 401.661L327.931 403.051L327.021 404.971L326.681 407.271L326.381 410.071L326.691 413.071L326.931 414.931L327.511 416.641L328.451 418.261L329.751 419.711L332.801 423.001L347.021 434.031L352.151 439.311L356.741 448.011L356.791 448.031L357.011 448.311L357.101 448.871L357.671 453.831L357.891 456.931L357.711 460.211L357.141 463.661L356.191 467.301L355.341 469.591L354.281 471.681L353.011 473.551L351.541 475.201L349.891 476.621L348.051 477.831L345.141 479.291L342.261 480.341L339.411 480.951L336.601 481.151L331.701 481.011L328.551 480.661L324.621 479.621L321.251 478.141L318.441 476.241L316.191 473.901L315.321 472.631L313.541 469.011L312.331 464.881L311.671 460.221L311.581 455.041L311.451 452.951L311.661 452.151L312.061 451.501L313.261 450.721L315.091 450.471L321.871 450.571L323.801 451.041L324.421 451.451L324.811 451.961L324.961 452.971L324.591 456.401L324.931 459.681L325.191 460.721L326.021 463.381L327.441 465.481L329.331 466.961L331.761 467.941L334.121 468.241L336.201 468.171L338.011 467.711L339.551 466.891L340.721 465.791L341.661 464.381L342.361 462.661L342.841 460.611L343.061 457.601L342.731 454.721L342.221 452.941L341.481 451.211L340.511 449.541L339.311 447.911L336.251 444.691L334.681 443.431L333.091 442.401L332.591 441.911L332.581 441.881L322.261 434.131L317.371 429.461L314.721 424.661L313.521 422.021L312.771 419.571L312.131 415.761L311.891 411.941L312.131 407.371L312.941 402.791L313.591 400.561L314.451 398.491L315.501 396.591L316.761 394.841L318.291 393.191L320.051 391.721L322.021 390.421L324.221 389.311L327.951 388.101L330.041 387.641L331.771 387.541L331.921 387.551L336.981 387.591L339.591 387.711L342.081 388.221L345.091 389.291L348.301 390.961L351.301 393.101Z" fill="#072931"/>
<path d="M401.571 389.5L401.621 389.44L401.741 389.65L404.881 391.69L407.571 394.14L408.911 395.74L410.091 397.48L412.011 401.37L412.991 406.5L413.551 411.67L413.671 416.52L413.421 421.4L413.171 421.95L412.621 422.22L409.091 422.48L405.721 422.46L402.511 422.16L399.461 421.57L398.981 410.17L398.921 407.95L398.551 406.01L397.871 404.34L396.891 402.96L395.781 401.99L394.441 401.23L392.871 400.68L391.061 400.35L388.601 400.43L386.421 401.18L384.371 402.6L383.311 403.89L382.521 405.71L382.001 408.09L381.781 410.92L381.431 433.01L381.681 453.83L381.811 456.32L382.511 461.48L382.611 461.63L382.971 462.51L383.051 463.57L383.991 465.13L385.041 466.38L386.211 467.34L387.491 467.99L388.671 468.31L389.931 468.42L391.271 468.3L392.701 467.97L395.081 466.93L396.901 465.41L397.501 464.64L398.271 463.25L398.901 461.02L398.981 458.56L399.431 446.16L400.371 445.73L401.081 445.56L409.931 445.43H410.561L411.831 445.6L412.891 446.08L413.771 446.92L413.981 447.44L413.731 447.5L413.711 447.53V447.55L413.801 453.88L413.341 460.56L412.791 464.14L411.961 467.35L410.841 470.18L409.441 472.62L407.551 474.99L405.361 476.98L403.281 478.36L401.001 479.47L398.501 480.3L395.801 480.86L391.291 480.99L388.981 481.08L386.751 481.4L385.291 481.25L384.051 480.89L374.361 476.36L373.081 475.4L372.041 474.17L367.251 461.9L366.881 460.27L366.861 458.44L367.041 458.08L367.121 457.7L366.531 418.4L366.581 415.23L366.821 411.32L367.281 407.41L367.891 404.35L368.831 401.28L370.101 398.18L371.711 395.07L374.581 391.93L377.741 390.28L380.581 389.01L383.111 388.14L385.311 387.65L388.911 387.4L392.831 387.62L397.041 388.32L401.571 389.5Z" fill="#072931"/>
<path d="M441.43 387.74L433.48 390.87L435.081 389.72L436.78 388.82L439.021 388.09L441.43 387.74Z" fill="#787D71" fill-opacity="0.996"/>
<path d="M34.2905 388.49L3.56055 388.82L4.72055 388.24L4.94055 388.15L5.95055 387.97L17.2305 387.9L31.8306 388.02L34.2905 388.49Z" fill="#787D71" fill-opacity="0.996"/>
<path d="M96.7407 396.86L95.0107 394.74L93.1307 392.97L91.1107 391.54L88.9507 390.45L87.1107 389.82L82.5007 388.95L77.5107 388.75L66.7307 388.89L53.7207 388.81L54.8107 388.17L55.8507 387.94L74.3107 387.75L78.2507 387.82L81.6607 388.09L84.5607 388.58L86.9407 389.28L90.5507 390.84L93.2907 392.52L95.2707 394.38L96.6007 396.52L96.7407 396.86Z" fill="#787D71" fill-opacity="0.996"/>
<path d="M125.231 388.861L114.871 388.771L113.621 388.941L112.731 389.471L112.201 390.351L112.021 391.601V477.511L112.211 478.451L112.731 479.241L113.531 479.771L114.461 479.961H124.241L125.181 479.771L125.971 479.241L126.501 478.441L126.691 477.501L126.751 391.381L126.711 390.691L126.861 390.371L127.031 390.361L127.311 392.151L127.301 477.401L127.151 478.331L126.351 479.561L124.961 480.321L123.031 480.741L120.861 480.991L115.831 480.981L113.661 480.531L112.841 480.081L112.201 479.491L111.551 478.271L111.331 476.681L111.291 396.151L111.371 391.201L111.531 390.291L111.891 389.581L112.691 388.911L113.841 388.481L116.621 387.991L120.431 387.881L124.311 388.411L125.231 388.861Z" fill="#787D71" fill-opacity="0.996"/>
<path d="M182.061 388.959L141.781 388.819L141.791 388.809L142.861 388.049L143.571 387.939L179.521 387.979L181.171 388.229L181.701 388.509L182.031 388.889L182.061 388.959Z" fill="#787D71" fill-opacity="0.996"/>
<path d="M210.721 389.73L206.771 388.93L202.491 388.54L197.891 388.56L192.971 389L197.671 387.98L202.381 387.6L205.071 387.67L207.771 387.95L209.561 388.47L210.171 388.89L210.581 389.42L210.721 389.73Z" fill="#787D71" fill-opacity="0.996"/>
<path d="M241.3 389.25L238.16 388.7L236.31 388.58L232.51 388.63L231.07 388.53L234.27 387.92L237.36 388.02L239.35 388.48L241.3 389.25Z" fill="#787D71" fill-opacity="0.996"/>
<path d="M302.121 407.93L300.641 402.2L299.921 399.95L298.981 397.91L297.821 396.08L296.451 394.46L296.121 394.14L293.551 392.23L290.221 390.59L286.621 389.46L283.321 389.01L257.321 388.76L256.211 388.92L255.411 389.4L254.941 390.2L254.781 391.31V477.9L254.941 478.69L255.381 479.36L256.051 479.8L256.831 479.96L277.491 479.97L281.681 479.82L285.311 479.43L288.401 478.79L290.941 477.92L293.641 476.46L295.971 474.62L298.171 472.07L299.911 469.03L301.181 465.49L301.991 461.46L301.691 464.89L300.971 467.99L299.831 470.76L298.261 473.2L296.731 474.89L294.931 476.38L292.361 477.88L289.221 479.07L285.511 479.96L281.231 480.56L274.781 481L268.261 481.08L261.651 480.8L254.961 480.16L254.571 479.99L254.411 479.6L254.191 475.43L254.281 396.4L254.531 391.13L254.801 389.82L255.421 388.87L256.351 388.3L257.611 388.07L268.171 387.84L278.391 387.99L285.371 388.74L289.211 389.59L292.621 391.04L294.921 392.56L296.681 394.18L298.231 396.08L299.531 398.17L300.571 400.36L301.671 404.01L302.121 407.93Z" fill="#787D71" fill-opacity="0.996"/>
<path d="M526.481 397.041L522.761 393.591L520.901 392.221L519.031 391.101L517.171 390.221L515.301 389.591L513.431 389.191L511.561 389.041L485.431 388.851L484.631 389.011L483.951 389.451L483.491 390.121L483.311 390.911L482.971 403.391L482.471 400.061L482.311 396.811L482.501 393.641L483.021 390.541L483.111 390.171L483.581 389.191L484.581 388.461L486.071 388.131L493.451 387.781L500.821 387.841L506.771 388.171L512.721 388.771L514.671 389.131L516.701 389.731L521.021 391.671L522.301 392.521L523.641 393.691L526.481 397.041Z" fill="#787D71" fill-opacity="0.996"/>
<path d="M577.451 388.4L562.981 388.91L548.541 388.73L540.971 388.36L550.061 387.95L559.181 387.82L568.301 387.97L577.451 388.4Z" fill="#787D71" fill-opacity="0.996"/>
<path d="M17.3402 403.131L17.2402 402.581L17.5402 401.891L17.9802 401.531L18.5002 401.421H42.7202L43.3102 401.301L43.8203 400.971L44.1502 400.471L44.2702 399.881V390.131L43.9402 389.311L43.1402 388.941L35.7302 388.561L37.7702 388.121L39.8102 388.031L41.8102 388.271L43.8102 388.851L44.2102 389.111L44.4503 389.521L45.1202 392.321L45.3203 395.121L45.0502 397.791L44.3503 400.461L44.1302 400.881L43.7603 401.211L42.7502 401.641L41.4902 401.801L19.2202 401.821L18.7902 401.891L18.3302 402.181L17.3402 403.131Z" fill="#787D71" fill-opacity="0.996"/>
<path d="M35.7307 388.56L43.1407 388.94L43.9407 389.31L44.2707 390.13V399.88L44.1507 400.47L43.8207 400.97L43.3107 401.3L42.7207 401.42H18.5007L17.9807 401.53L17.5407 401.89L17.2407 402.58L17.3407 403.13L17.2907 426.15L17.4007 426.63L17.7707 427.07L17.6107 427.58L17.6707 427.96L17.7207 428.03L18.3607 428.54L19.1607 428.74L28.0607 428.79L36.7807 428.47L37.6507 428.6L38.5007 429.24L39.1507 430.4L39.3507 432.94L39.3207 435.54L39.0707 438.17L38.5807 440.86L18.5607 440.98L17.9307 441.23L17.6307 441.84L17.3907 444.4L16.9807 479.18L15.6307 479.83L14.5007 480.02L9.38071 480.01L4.13071 480.25L3.5107 480.09L3.41071 480.02L3.1207 479.65L2.4507 477.75L2.2207 475.9L2.3307 391.9L2.4207 391L2.8307 389.88L3.5607 388.82L34.2907 388.49L35.7307 388.56Z" fill="#072931"/>
<path d="M231.071 388.531L232.511 388.631L236.311 388.581L238.161 388.701L241.301 389.251L241.571 390.431L241.441 391.151L241.361 432.511L241.501 473.841L241.291 476.951L240.931 480.081L238.291 480.261L237.061 480.101L227.051 479.911L227.001 479.831L226.761 479.791L227.051 479.741L227.101 479.711L227.061 479.591L226.871 479.351L225.141 476.641L223.891 473.551L215.441 446.581L205.961 417.361L205.651 416.641L205.381 416.411L205.131 416.671L204.911 417.421L204.861 418.171L205.071 418.621L205.511 418.781L205.081 479.531L201.041 480.301L197.101 480.321L195.621 480.041L194.171 480.021L194.111 480.031L193.281 479.451L192.771 478.721L192.601 477.931L192.951 449.151L192.921 420.401L192.391 397.961L192.311 393.531L192.971 389.001L197.891 388.561L202.491 388.541L206.771 388.931L210.721 389.731L216.931 408.461L220.001 419.551L222.271 426.441L224.791 433.261L227.671 442.101L227.981 444.021L228.521 445.271L228.901 445.651L229.131 445.161L229.211 443.801L229.161 389.941L229.741 389.051L230.451 388.591L231.071 388.531Z" fill="#072931"/>
<path d="M540.97 388.361L548.54 388.731L562.98 388.911L577.45 388.401L579.07 388.711L580.22 389.291L580.61 393.991L580.46 398.541L580.18 399.691L579.61 400.501L579.58 400.531L578.86 400.991L577.29 401.291L565.31 401.041L554.7 401.181L554.03 401.461L553.73 402.111L553.43 408.261L553.37 414.441L553.56 420.661L553.99 426.901L574.5 427.211L575.39 428.571L575.49 428.931V436.661L575.28 437.701L574.69 438.591L573.8 439.181L572.76 439.391H555.3L554.5 439.501L553.93 439.851L553.59 440.421L553.47 441.231V466.291L553.85 467.211L554.77 467.581L578.81 467.541L579.92 467.881L581.09 468.921L581.31 471.441L581.28 475.081L580.86 478.751L580.57 479.321L580.33 479.441L578.97 479.981L578.33 480.041L541.46 480.111L541.38 480.171L540.94 480.291L540.36 480.161L538.74 479.211L538.63 400.191L538.42 394.111L538.58 390.951L538.66 390.061L538.67 390.001L538.92 389.511L539.38 389.071L540.97 388.361Z" fill="#072931"/>
<path d="M53.3615 388.721L52.5115 389.751L52.2715 390.161L52.1915 390.621L51.9015 411.391L51.4515 405.621L51.2715 399.851L51.4315 392.741L51.6115 391.511L52.0915 389.981L52.3115 389.341L52.6715 388.841H52.6815L52.7315 388.821L53.3615 388.721Z" fill="#787D71" fill-opacity="0.996"/>
<path d="M53.7203 388.81L66.7303 388.89L77.5103 388.75L82.5003 388.95L87.1103 389.82L88.9503 390.45L91.1103 391.54L93.1303 392.97L95.0103 394.74L96.7403 396.86L97.1203 397.27L97.2903 397.87L97.4503 398.52L97.7503 398.85L97.8103 398.87L98.1103 399.39L99.4803 405.99L100.04 412.3L100.01 415.35L99.7803 418.33L99.3503 421.23L98.7103 424.07L98.0603 426.11L97.2203 427.99L96.2003 429.71L95.0003 431.28L92.8903 433.31L90.3703 434.99L90.1603 435.15L89.9703 435.87L90.4403 436.44L92.6003 437.6L94.4703 439.07L96.2603 441.13L97.6703 443.6L98.4403 445.64L98.9703 447.88L99.2603 450.33L99.3103 452.97L99.3803 463.38L100.04 474.5L100.14 475.02L100.28 477.07L100.03 479.19L99.8403 479.39L99.0803 479.82L98.0503 479.95L88.9603 480.03L87.2103 479.83L85.9403 479.11L85.1803 477.88L84.9003 476.14L84.6003 451.78L84.3203 449.16L83.5203 446.8L83.1303 446.06L82.8903 445.96L82.5603 445.31L81.5003 444.09L80.5003 443.34L79.3303 442.76L78.0103 442.36L76.5303 442.13L72.1203 441.95L68.2103 442.25L67.7803 442.41L67.5603 442.76L67.5903 442.9L67.2403 444.15L67.1803 477.65L66.3903 479.82L54.8703 480.14L54.2903 480.16L53.3503 479.82L52.3703 478.37L52.1203 476.82L51.9803 472.6L51.8503 449.39L52.2003 440.24L52.1503 433.08L51.8203 425.91L51.9003 411.39L52.1903 390.62L52.2703 390.16L52.5103 389.75L53.3603 388.72L53.8003 388.68L53.7203 388.81ZM67.7703 401.89H67.5703L67.4303 402L67.3503 402.31L67.2203 415.38L67.3803 428.45L67.4503 429.14L67.7103 429.5L68.6403 429.8L69.7803 429.75L72.4703 429.85L74.9803 429.44L76.9003 429.62L78.6103 429.5L80.1003 429.09L81.3903 428.38L82.3703 427.48L83.1803 426.35L83.8103 424.96L84.2603 423.34L84.6803 420.78L84.9103 418.03L84.7903 411.95L84.7603 411.51L84.2003 407.1L83.7003 405.55L83.0103 404.31L81.8103 402.99L80.8903 402.36L79.7903 401.89L76.9003 401.29L73.0003 401.17L68.1603 401.54L68.0203 401.53L67.9103 401.54L67.7703 401.89Z" fill="#072931"/>
<path d="M125.232 388.86V388.87L125.491 389.01L126.012 389.56L126.482 390.39L126.751 391.38L126.691 477.5L126.501 478.44L125.971 479.24L125.181 479.77L124.241 479.96H114.461L113.531 479.77L112.732 479.24L112.211 478.45L112.021 477.51V391.6L112.202 390.35L112.732 389.47L113.621 388.94L114.871 388.77L125.232 388.86Z" fill="#072931"/>
<path d="M182.061 388.96L182.151 399.92L181.411 400.63L180.581 401.08L179.381 401.27L157.851 401.02L155.661 401.27L154.771 401.94L154.491 403.03L154.971 426.89L175.601 427.23L176.271 430.22L176.551 433.88L176.261 437.63L176.101 438.09L175.791 438.48L175.341 438.81L174.291 439.24L173.041 439.35L156.331 439.05L155.651 439.19L155.081 439.58L154.701 440.15L154.571 440.83V465.82L154.721 466.56L155.131 467.18L155.761 467.61L156.501 467.76L182.031 468.08L182.171 479.13L181.171 479.74L180.161 479.97H180.061L142.751 480.03L141.731 479.83L140.861 479.26L140.291 478.4L140.081 477.38L140.181 408.16L139.941 399.53L139.721 391.15L139.781 390.67L140.291 389.74L141.291 388.94L141.781 388.82L182.061 388.96Z" fill="#072931"/>
<path d="M302.121 407.93L301.991 461.46L301.181 465.49L299.911 469.03L298.171 472.07L295.971 474.62L293.641 476.46L290.941 477.92L288.401 478.79L285.311 479.43L281.681 479.82L277.491 479.97L256.831 479.96L256.051 479.8L255.381 479.36L254.941 478.69L254.781 477.9V391.31L254.941 390.2L255.411 389.4L256.211 388.92L257.321 388.76L283.321 389.01L286.621 389.46L290.221 390.59L293.551 392.23L296.121 394.14L296.451 394.46L297.821 396.08L298.981 397.91L299.921 399.95L300.641 402.2L302.121 407.93ZM269.261 401.55V466.22L269.411 466.63L269.801 466.83L270.551 466.92L274.271 467.63L277.701 467.75L280.841 467.3L283.701 466.25L283.851 466.18L285.451 463.59L286.561 460.86L287.091 458.46L287.281 455.96L287.271 413.15L286.841 408.96L286.671 406.63L285.871 404.71L285.031 403.7L283.921 402.85L282.651 401.98L281.621 401.58L278.381 401.12L275.241 400.96L272.201 401.11L269.261 401.55Z" fill="#072931"/>
<path d="M127.03 390.36L126.86 390.37L126.71 390.69L126.75 391.38L126.48 390.39L126.01 389.56L125.49 389.01L126.08 389.03L126.63 389.47L127.03 390.36Z" fill="#236391"/>
<path d="M141.29 388.939L140.29 389.74L139.78 390.669L139.72 391.149L139.94 399.529L140.18 408.159L140.08 477.379L140.29 478.399L140.86 479.259L141.73 479.829L142.75 480.029L180.06 479.969H180.16L181.17 479.74L182.17 479.129L182.07 479.599L181.89 479.969L181.52 480.18L177.7 480.829L172.81 481.029L161.84 481.039L149.85 480.979L142.15 480.43L142.02 480.409L140.98 480.089L140.12 479.419L139.55 478.479L139.35 477.409L139.33 390.649L139.49 389.949L140.14 389.309L141.29 388.939Z" fill="#787D71" fill-opacity="0.996"/>
<path d="M526.48 397.04L527.76 400.53L528.78 404.16L529.52 407.93L530 411.84L530.2 415.88L530.13 420.06L529.8 424.38L529.19 428.84L528.44 432.11L527.34 435.03L525.88 437.61L524.06 439.83L523.43 440.45L521.22 442.16L518.63 443.55L515.66 444.62L512.31 445.37L509.4 445.75L506.26 445.96L499.35 445.81L498.63 446.05L498.31 446.74V446.76L498.21 477.17L497.92 478.72L496.92 480.17L486.83 480.04L485.12 479.78L483.31 478.9L483.19 478.57L482.92 476.87L483.26 470.53L483.23 464.21L482.92 458.92L483.42 434.32L483.16 409.75L482.97 403.39L483.31 390.91L483.49 390.12L483.95 389.45L484.63 389.01L485.43 388.85L511.56 389.04L513.43 389.19L515.3 389.59L517.17 390.22L519.03 391.1L520.9 392.22L522.76 393.59L526.48 397.04ZM498.36 401.88L498.2 403.69L497.97 431.81L498.13 432.24L498.52 432.47L502.32 432.89L506.57 432.83L509.23 432.3L510.33 431.78L511.28 431.1L512.63 429.63L513.54 427.99L513.97 426.42L514.2 423.74L514.08 420.45L513.91 409.95L513.92 408.38L513.72 406.94L513.3 405.65L512.69 404.49L511.83 403.45L510.77 402.62L509.46 402L507.89 401.57L506.07 401.35L503.24 401.31L500.45 401.53L498.36 401.88ZM509.47 445.19L509.73 445.18L509.8 445.15L509.83 445.13L509.79 444.95L509.41 444.93L509.23 445.08L509.47 445.19Z" fill="#072931"/>
<path d="M580.221 389.291L581.121 392.501L581.331 395.681L581.031 398.111L580.331 400.521L579.691 401.211L577.391 401.861L576.571 401.911L555.201 401.881L554.571 402.141L554.311 402.761L553.991 426.901L553.561 420.661L553.371 414.441L553.431 408.261L553.731 402.111L554.031 401.461L554.701 401.181L565.311 401.041L577.291 401.291L578.861 400.991L579.581 400.531L579.611 400.501L580.181 399.691L580.461 398.541L580.611 393.991L580.221 389.291Z" fill="#787D71" fill-opacity="0.996"/>
<path d="M412.01 401.37L410.09 397.48L408.91 395.74L407.57 394.14L404.88 391.69L401.74 389.65L403.6 390.49L405.28 391.48L406.8 392.62L408.14 393.93L409.41 395.51L410.48 397.28L411.34 399.23L412.01 401.37Z" fill="#787D71" fill-opacity="0.996"/>
<path d="M229.16 389.939L229.21 443.799L229.13 445.159L228.9 445.649L228.52 445.269L227.98 444.019L227.67 442.099L228.13 439.559L228.29 437.149L228.31 417.019L228.1 396.899L228.34 393.629L229.16 389.939Z" fill="#787D71" fill-opacity="0.996"/>
<path d="M433.411 390.961L427.551 397.171L428.611 395.261L429.931 393.591L431.531 392.151L433.411 390.961Z" fill="#787D71" fill-opacity="0.996"/>
<path d="M241.44 391.15L242.08 393.56L242.3 396.4L242.39 470.65L242.02 475.99L241.56 478.19L240.93 480.08L241.29 476.95L241.5 473.84L241.36 432.51L241.44 391.15Z" fill="#787D71" fill-opacity="0.996"/>
<path d="M352.861 394.88L351.751 394.06L351.301 393.1L352.141 393.88L352.861 394.88Z" fill="#236391"/>
<path d="M538.631 400.191L538.371 403.541L538.421 394.111L538.631 400.191Z" fill="#787D71" fill-opacity="0.996"/>
<path d="M326.68 407.269L327.02 404.969L327.93 403.049L329.24 401.659L329.92 401.18L332.06 400.249L334.59 399.939L336.29 400.049L337.82 400.369L339.16 400.919L340.33 401.689L341.62 403.059L342.59 404.829L343.24 406.99L343.57 409.549L344.07 415.949L344.3 416.309L344.58 416.49L346.22 416.869L348.52 416.949L350.2 416.99L353.33 417.129L354.32 417.119L355.35 416.939L356.13 416.49L356.69 415.699L356.97 414.589L357.16 411.659L357.11 408.789L356.81 405.979L356.27 403.229L354.98 399.139L353.11 395.189L354.52 397.249L355.61 399.349L356.77 402.799L357.36 406.599L357.42 410.899L356.95 416.49L356.78 416.899L356.41 417.139L353.95 417.74L351.48 417.999L347.69 417.769L343.86 416.759L343.4 416.43L343.27 415.849L343.34 411.469L342.99 408.039L342.54 406.24L341.88 404.68L341.03 403.339L339.98 402.24L338.45 401.209L336.63 400.519L334.62 400.229L332.75 400.449L331.57 400.889L330.45 401.559L330.35 401.639L329.17 402.689L328.16 403.979L327.34 405.509L326.68 407.269Z" fill="#787D71" fill-opacity="0.996"/>
<path d="M371.711 395.07L370.101 398.18L368.831 401.28L367.891 404.35L367.281 407.41L366.821 411.32L366.581 415.23L366.531 418.4L367.121 457.7L367.041 458.08L366.861 458.44L366.851 458.43L366.561 456.9L366.201 416.9L366.331 412.01L366.591 408.28L367.321 404L368.721 400.02L370.061 397.48L371.711 395.07Z" fill="#787D71" fill-opacity="0.996"/>
<path d="M427.55 397.17L425.05 403.61L424.44 405.98L424.1 408.82L423.42 414.14L423.63 408.71L424.1 405.57L424.83 402.45L425.77 399.93L427.11 397.72L427.55 397.17Z" fill="#787D71" fill-opacity="0.996"/>
<path d="M97.811 398.871L97.751 398.851L97.451 398.521L97.291 397.871L97.561 398.191L97.811 398.871Z" fill="#236391"/>
<path d="M192.6 477.931L192.23 458.501L192.07 439.081L192.11 419.661L192.35 400.241L192.39 397.961L192.92 420.401L192.95 449.151L192.6 477.931Z" fill="#787D71" fill-opacity="0.996"/>
<path d="M468.96 399.189L470.35 402.569L471.35 406.169L471.97 409.959L472.21 413.969L472.45 449.649L472.2 456.139L471.4 462.529L470.5 466.009L468.82 470.169L467.11 473.199L464.93 475.759L462.27 477.819L459.08 479.449L455.18 480.709L450.28 481.719L446.96 481.949L443.38 481.559L439.58 480.779L436.54 479.959L434.76 479.219L432.87 478.089L431.21 476.789L430.07 475.529L428.6 473.789L427.22 472.18L426.34 470.729L426.21 470.439L425.13 467.619L424.3 464.749L423.7 461.759L423.35 458.719L423.26 455.609L423.42 452.439L424.12 461.399L424.6 463.829L425.87 467.889L426.74 470.069L427.79 472.059L429.03 473.859L430.46 475.469L431.79 476.649L433.78 478.039L436 479.18L438.44 480.059L441.1 480.689L444.55 481.159L447.93 481.279L451.22 481.069L454.44 480.509L454.65 480.459L457.44 479.629L459.98 478.529L462.27 477.159L464.31 475.509L466.2 473.469L467.81 471.109L469.13 468.459L470.16 465.49L471.31 460.059L471.79 454.359L471.78 417.649L471.58 412.729L471.05 408.009L470.17 403.499L468.96 399.189Z" fill="#787D71" fill-opacity="0.996"/>
<path d="M100.041 474.501L99.3807 463.381L99.3107 452.971L99.2607 450.331L98.9707 447.881L98.4407 445.641L97.6707 443.601L96.2607 441.131L94.4707 439.071L92.6007 437.601L90.4407 436.441L89.9707 435.871L90.1607 435.151L90.3707 434.991L92.8907 433.311L95.0007 431.281L96.2007 429.711L97.2207 427.991L98.0607 426.111L98.7107 424.071L99.3507 421.231L99.7807 418.331L100.011 415.351L100.041 412.301L99.4807 405.991L98.1107 399.391L98.9507 401.381L99.7507 404.141L100.211 407.111L100.381 410.491L100.281 414.831L99.9207 421.241L99.1407 424.881L97.7307 428.161L96.4207 430.171L94.8307 432.031L92.9407 433.721L90.7707 435.251L90.6507 435.351L90.5407 435.791L90.8407 436.151L93.7707 437.821L95.0007 438.841L96.0707 440.001L96.9707 441.271L97.7207 442.681L98.7507 445.871L98.8807 446.481L99.9207 452.141L100.301 456.341L100.341 465.401L100.041 474.501Z" fill="#787D71" fill-opacity="0.996"/>
<path d="M182.15 399.92L182.13 400.54L181.93 401.03L181.14 401.61L179.8 401.81L155.63 401.86L155.38 401.96L155.27 402.21L154.97 426.89L154.49 403.03L154.77 401.94L155.66 401.27L157.85 401.02L179.38 401.27L180.58 401.08L181.41 400.63L182.15 399.92Z" fill="#787D71" fill-opacity="0.996"/>
<path d="M451.65 401.321L448.94 400.811L446.28 400.761L444.12 401.181L442.38 402.121L441.12 403.491L440.22 405.331L439.59 408.061L439.37 411.401L439.36 459.151L439.74 462.221L440.2 463.601L440.84 464.861L441.1 465.261L441.94 466.241L442.8 466.901L443.8 467.411L446.24 467.961L447.93 468.001L450.25 467.681L452.55 466.931L451.58 467.691L450.42 468.191L449.09 468.411L445.53 468.251L443.69 467.811L442.14 466.971L440.72 465.511L439.68 463.521L438.84 459.961L438.52 455.171L438.43 433.271L438.62 412.151L438.82 408.991L439.35 406.421L440.24 404.331L441.48 402.661L442.49 401.781L443.65 401.061L444.88 400.571L446.43 400.281L448.07 400.311L449.81 400.661L451.65 401.321Z" fill="#787D71" fill-opacity="0.996"/>
<path d="M538.741 479.209L538.271 467.039L538.041 455.519V444.639L538.281 434.399L538.611 417.979L538.371 403.539L538.631 400.189L538.741 479.209Z" fill="#236391"/>
<path d="M398.98 410.17L397.97 406.44L397.11 404.39L395.76 402.73L394.14 401.58L392.44 400.97L390.52 400.79L388.77 400.96L387.2 401.4L385.83 402.1L384.66 403.06L383.81 404.12L383.17 405.38L382.74 406.81L382.55 408.41L382.39 417.15L382.34 456.37L382.51 461.48L381.81 456.32L381.68 453.83L381.43 433.01L381.78 410.92L382 408.09L382.52 405.71L383.31 403.89L384.37 402.6L386.42 401.18L388.6 400.43L391.06 400.35L392.87 400.68L394.44 401.23L395.78 401.99L396.89 402.96L397.87 404.34L398.55 406.01L398.92 407.95L398.98 410.17Z" fill="#787D71" fill-opacity="0.996"/>
<path d="M283.92 402.851L280.9 402.141L277.86 401.861L275.32 401.951L272.36 401.981L269.26 401.551L272.2 401.111L275.24 400.961L278.38 401.121L281.62 401.581L282.65 401.981L283.92 402.851Z" fill="#787D71" fill-opacity="0.996"/>
<path d="M74.9815 429.44L77.2115 429.22L79.1315 428.72L80.7415 427.92L82.0415 426.83L82.7815 425.88L83.3515 424.77L84.0315 422.12L84.3915 417.16L84.4615 410.63L84.1515 408.05L83.2815 405.78L82.0615 404.05L80.4215 402.55L79.5915 402.07L78.8115 401.91L70.5315 401.89H67.7715L67.9115 401.54L68.0215 401.53L68.1615 401.54L72.9515 401.17L76.8215 401.28L79.7615 401.88L80.8815 402.36L81.8115 402.99L83.0115 404.31L83.7015 405.55L84.2015 407.1L84.7615 411.51L84.7915 411.95L84.9115 418.03L84.6815 420.78L84.2615 423.34L83.8115 424.96L83.1815 426.35L82.3715 427.48L81.3915 428.38L80.1015 429.09L78.6115 429.5L76.9015 429.62L74.9815 429.44Z" fill="#787D71" fill-opacity="0.996"/>
<path d="M399.461 421.571L402.511 422.161L405.721 422.461L409.091 422.481L412.621 422.221L413.171 421.951L413.421 421.401L413.671 416.521L413.551 411.671L412.991 406.501L412.011 401.371L412.771 402.721L413.471 405.871L414.021 409.841L414.241 413.871L414.111 417.971L413.641 422.131L413.451 422.531L413.051 422.681L407.041 422.911L401.101 422.751L400.951 422.731L400.121 422.411L399.661 422.001L399.461 421.571Z" fill="#787D71" fill-opacity="0.996"/>
<path d="M513.911 409.951L513.661 408.951L513.011 406.541L512.361 404.901L511.511 403.641L510.511 402.841L509.301 402.411L503.931 401.791L498.361 401.881L500.451 401.531L503.241 401.311L506.071 401.351L507.891 401.571L509.461 402.001L510.771 402.621L511.831 403.451L512.691 404.491L513.301 405.651L513.721 406.941L513.921 408.381L513.911 409.951Z" fill="#787D71" fill-opacity="0.996"/>
<path d="M286.84 408.96L285.67 405.57L284.86 404.12L283.92 402.85L285.03 403.7L285.87 404.71L286.67 406.63L286.84 408.96Z" fill="#787D71" fill-opacity="0.996"/>
<path d="M498.201 403.689L498.281 431.329L498.401 431.709L498.781 431.839L507.251 431.939L509.521 431.68L510.381 431.329L511.061 430.829L512.131 429.68L512.781 428.639L513.131 427.459L513.291 425.649L513.671 422.319L514.081 420.449L514.201 423.74L513.971 426.419L513.541 427.99L512.631 429.629L511.281 431.099L510.331 431.779L509.231 432.299L506.571 432.829L502.321 432.889L498.521 432.469L498.131 432.24L497.971 431.809L498.201 403.689Z" fill="#787D71" fill-opacity="0.996"/>
<path d="M456.09 410.37L455.1 405.92L455.6 406.79L455.93 407.83L456.09 410.37Z" fill="#787D71" fill-opacity="0.996"/>
<path d="M216.93 408.461L224.79 433.261L222.27 426.441L220 419.551L216.93 408.461Z" fill="#787D71" fill-opacity="0.996"/>
<path d="M326.691 413.07L329.751 419.71L328.451 418.26L327.511 416.64L326.931 414.93L326.691 413.07Z" fill="#787D71" fill-opacity="0.996"/>
<path d="M226.761 479.79L225.781 478.75L224.881 477.29L223.231 472.99L222.591 471.09L220.651 465.19L217.181 453.59L213.511 441.99L209.611 430.38L205.511 418.78L205.071 418.62L204.861 418.17L204.911 417.42L205.131 416.67L205.381 416.41L205.651 416.64L205.961 417.36L215.441 446.58L223.891 473.55L225.141 476.64L226.871 479.35L227.061 479.59L227.101 479.71L227.051 479.74L226.761 479.79Z" fill="#787D71" fill-opacity="0.996"/>
<path d="M347.021 434.03L332.801 423L337.931 426.5L342.581 430.12L347.021 434.03Z" fill="#787D71" fill-opacity="0.996"/>
<path d="M51.85 449.39L51.4 443.44L51.25 437.5L51.39 431.7L51.82 425.91L52.15 433.08L52.2 440.24L51.85 449.39Z" fill="#787D71" fill-opacity="0.996"/>
<path d="M17.7713 427.07L18.4113 427.7L19.2513 427.91L36.3013 427.92L37.9613 428.17L38.9313 428.88L39.1813 429.55L39.1513 430.4L38.5013 429.24L37.6513 428.6L36.7813 428.47L28.0613 428.79L19.1613 428.74L18.3613 428.54L17.7213 428.03L17.6713 427.96L17.6113 427.58L17.7713 427.07Z" fill="#787D71" fill-opacity="0.996"/>
<path d="M182.03 468.081L156.5 467.761L155.76 467.611L155.13 467.181L154.72 466.561L154.57 465.821V440.831L154.7 440.151L155.08 439.581L155.65 439.191L156.33 439.051L173.04 439.351L174.29 439.241L175.34 438.811L175.79 438.481L176.1 438.091L176.26 437.631L176.55 433.881L176.27 430.221L175.6 427.231L176.09 427.211L176.42 427.611L177.16 430.131L177.43 432.661L177.24 435.191L176.59 437.731L176.05 438.811L175.3 439.451L174.65 439.721L173.06 439.931L155.6 439.901L155.31 440.191V466.631L155.58 466.911L174.56 466.871L178.77 467.161L180.52 467.541L182.03 468.081Z" fill="#787D71" fill-opacity="0.996"/>
<path d="M581.091 468.921L579.921 467.881L578.811 467.541L554.771 467.581L553.851 467.211L553.471 466.291V441.231L553.591 440.421L553.931 439.851L554.501 439.501L555.301 439.391H572.761L573.801 439.181L574.691 438.591L575.281 437.701L575.491 436.661V428.931L575.391 428.571L574.501 427.211L574.781 427.201L575.071 427.291L575.241 427.521L575.811 429.381L576.281 432.581L576.141 435.941L575.621 437.851L574.611 439.151L573.191 439.821L571.331 439.941L555.211 439.821L554.581 440.081L554.321 440.711V466.631L554.621 466.941L578.781 466.991L579.901 467.161L580.651 467.651L580.971 468.201L581.091 468.921Z" fill="#787D71" fill-opacity="0.996"/>
<path d="M67.3809 428.451L69.7809 429.751L68.6408 429.801L67.7108 429.501L67.4509 429.141L67.3809 428.451Z" fill="#787D71" fill-opacity="0.996"/>
<path d="M332.58 441.881L329.75 440.161L327.05 438.261L324.59 436.271L322.26 434.131L332.58 441.881Z" fill="#787D71" fill-opacity="0.996"/>
<path d="M352.15 439.311L354.23 441.771L355.73 444.481L356.34 446.201L356.74 448.011L352.15 439.311Z" fill="#787D71" fill-opacity="0.996"/>
<path d="M38.5806 440.861L36.8306 441.621L35.3006 441.911L19.2306 441.971L18.7706 442.081L18.4706 442.411L17.3906 444.401L17.6306 441.841L17.9306 441.231L18.5606 440.981L38.5806 440.861Z" fill="#787D71" fill-opacity="0.996"/>
<path d="M82.5605 445.311L81.2006 444.311L79.7405 443.581L78.2006 443.141L76.5605 442.971L67.5905 442.901L67.5605 442.761L67.7805 442.411L68.2105 442.251L72.1205 441.951L76.5305 442.131L78.0106 442.361L79.3305 442.761L80.5005 443.341L81.5005 444.091L82.5605 445.311Z" fill="#787D71" fill-opacity="0.996"/>
<path d="M331.76 467.94L334.27 467.99L336.45 467.68L338.3 467L339.81 465.95L340.77 464.86L341.52 463.54L342.06 461.98L342.39 460.2L342.52 458.16L342.43 456.21L342.12 454.34L341.58 452.55L340.34 450.01L338.59 447.66L335.91 444.89L333.09 442.4L334.68 443.43L336.25 444.69L339.31 447.91L340.51 449.54L341.48 451.21L342.22 452.94L342.73 454.72L343.06 457.6L342.84 460.61L342.36 462.66L341.66 464.38L340.72 465.79L339.55 466.89L338.01 467.71L336.2 468.17L334.12 468.24L331.76 467.94Z" fill="#787D71" fill-opacity="0.996"/>
<path d="M413.77 446.92L412.89 446.08L411.83 445.6L410.56 445.43H409.93L401.08 445.56L400.37 445.73L399.43 446.16L399.8 445.69L400.61 445.22L403.46 444.88L406.31 444.77L409.46 444.93L412.6 445.38L413.33 445.73L413.67 446.26L413.77 446.92Z" fill="#787D71" fill-opacity="0.996"/>
<path d="M509.41 444.93L509.79 444.95L509.831 445.13L509.8 445.15L509.73 445.18L509.47 445.19L509.23 445.08L509.41 444.93Z" fill="#787D71" fill-opacity="0.996"/>
<path d="M100.031 479.191L100.071 479.561L100.001 479.931L99.6808 480.151L96.5808 480.831L93.4709 481.101L90.3908 480.971L87.3109 480.441L86.2209 479.971L85.3908 479.161L84.8308 478.101L84.4509 476.691L84.2408 474.921L84.1108 467.701L84.1909 453.151L83.9409 449.621L83.1309 446.061L83.5208 446.801L84.3209 449.161L84.6009 451.781L84.9008 476.141L85.1808 477.881L85.9409 479.111L87.2108 479.831L88.9608 480.031L98.0508 479.951L99.0808 479.821L99.8409 479.391L100.031 479.191Z" fill="#787D71" fill-opacity="0.996"/>
<path d="M413.98 447.439L414.2 450.669L414.29 458.149L414.03 461.509L413.44 464.699L412.52 467.719L411.26 470.559L409.69 473.189L407.8 475.649L406.54 476.889L405.04 478.009L403.28 478.979L401.28 479.829L398.28 480.769L395.3 481.399L392.34 481.699L389.4 481.689L386.75 481.399L388.98 481.079L391.29 480.99L395.8 480.859L398.5 480.299L401 479.469L403.28 478.359L405.36 476.979L407.55 474.99L409.44 472.619L410.84 470.18L411.96 467.349L412.79 464.139L413.34 460.559L413.8 453.879L413.71 447.549V447.529L413.73 447.499L413.98 447.439Z" fill="#787D71" fill-opacity="0.996"/>
<path d="M311.581 455.041L311.671 460.221L312.331 464.881L313.541 469.011L315.321 472.631L316.191 473.901L318.441 476.241L321.251 478.141L324.621 479.621L328.551 480.661L331.701 481.011L336.601 481.151L339.411 480.951L342.261 480.341L345.141 479.291L348.051 477.831L349.891 476.621L351.541 475.201L353.011 473.551L354.281 471.681L355.341 469.591L356.191 467.301L357.141 463.661L357.711 460.211L357.891 456.931L357.671 453.831L357.101 448.871L357.781 451.121L358.231 454.971L358.291 458.711L357.931 462.341L357.181 465.861L356.141 468.981L354.871 471.701L353.361 474.061L351.601 476.061L349.591 477.691L347.691 478.801L345.611 479.641L341.851 480.771L338.501 481.561L335.581 482.001L333.071 482.111L330.021 481.691L325.511 480.551L323.501 479.871L321.711 479.051L320.121 478.091L318.741 476.981L315.551 473.571L314.401 471.951L313.551 470.391L312.341 467.191L311.651 464.301L311.301 461.311L311.271 458.231L311.581 455.041Z" fill="#787D71" fill-opacity="0.996"/>
<path d="M321.87 450.57L315.09 450.47L316.88 450.1L318.66 450.01L320.27 450.17L321.87 450.57Z" fill="#787D71" fill-opacity="0.996"/>
<path d="M324.96 452.971L325.19 460.721L324.93 459.681L324.59 456.401L324.96 452.971Z" fill="#787D71" fill-opacity="0.996"/>
<path d="M383.051 463.571L384.641 465.741L385.571 466.541L386.591 467.161L387.631 467.561L390.321 468.001L391.571 467.931L392.771 467.661L393.951 467.181L395.071 466.471L397.111 464.431L397.981 462.431L398.981 458.561L398.901 461.021L398.271 463.251L397.501 464.641L396.901 465.411L395.081 466.931L392.701 467.971L391.271 468.301L389.931 468.421L388.671 468.311L387.491 467.991L386.211 467.341L385.041 466.381L383.991 465.131L383.051 463.571Z" fill="#787D71" fill-opacity="0.996"/>
<path d="M482.92 476.87L482.29 471.58L482.18 466.31L482.42 462.61L482.92 458.92L483.23 464.21L483.26 470.53L482.92 476.87Z" fill="#787D71" fill-opacity="0.996"/>
<path d="M452.82 466.761L453.23 466.141L454.8 463.051L455.83 459.621L455.84 461.371L455.49 463.001L454.47 464.991L452.82 466.761Z" fill="#787D71" fill-opacity="0.996"/>
<path d="M372.04 474.17L370.14 471.61L368.72 468.85L367.68 465.5L367.25 461.9L372.04 474.17Z" fill="#787D71" fill-opacity="0.996"/>
<path d="M283.851 466.18L283.701 466.25L280.841 467.3L277.701 467.75L274.271 467.63L270.551 466.92L277.491 466.93L280.741 466.65L283.851 466.18Z" fill="#787D71" fill-opacity="0.996"/>
<path d="M52.1205 476.82L51.7405 475.87L51.5605 474.91L51.6306 473.77L51.9806 472.6L52.1205 476.82Z" fill="#787D71" fill-opacity="0.996"/>
<path d="M384.051 480.891L381.091 480.241L378.361 479.151L376.281 477.911L374.361 476.361L384.051 480.891Z" fill="#787D71" fill-opacity="0.996"/>
<path d="M53.35 479.821L52.84 479.831L52.49 479.661L52.4 479.551L52.37 479.501L52.25 479.011L52.37 478.371L53.35 479.821Z" fill="#787D71" fill-opacity="0.996"/>
<path d="M496.921 480.17L493.521 480.96L490.151 481.15L487.111 480.8L484.091 479.95L483.561 479.57L483.551 479.56L483.311 478.9L485.121 479.78L486.831 480.04L496.921 480.17Z" fill="#787D71" fill-opacity="0.996"/>
<path d="M16.9809 479.18L17.0108 479.51L16.9109 479.87L16.6208 480.09L14.4509 480.66L12.2608 481L8.23085 481.01L4.13086 480.25L9.38086 480.01L14.5009 480.02L15.6309 479.83L16.9809 479.18Z" fill="#787D71" fill-opacity="0.996"/>
<path d="M580.571 479.32L580.481 479.61L580.351 479.84L580.031 480.08L578.421 480.66L576.771 480.99L575.061 481.1L546.311 480.89L543.641 480.68L541.461 480.11L578.331 480.04L578.971 479.98L580.331 479.44L580.571 479.32Z" fill="#787D71" fill-opacity="0.996"/>
<path d="M66.3911 479.82L64.7911 480.45L63.1511 480.88L61.1611 481.12L59.1211 481.08L57.0211 480.75L54.8711 480.14L66.3911 479.82Z" fill="#787D71" fill-opacity="0.996"/>
<path d="M205.081 479.531L203.151 480.481L201.561 480.891L199.871 481.041L198.091 480.931L196.211 480.541L197.101 480.321L201.041 480.301L205.081 479.531Z" fill="#787D71" fill-opacity="0.996"/>
<path d="M197.101 480.32L196.211 480.54L195.171 480.4L194.111 480.03L194.171 480.02L195.621 480.04L197.101 480.32Z" fill="#236391"/>
<path d="M237.061 480.1L237.121 480.31L233.991 480.94L230.931 480.92L228.971 480.55L227.051 479.91L237.061 480.1Z" fill="#EC9940"/>
<path d="M238.291 480.26L237.121 480.31L237.061 480.1L238.291 480.26Z" fill="#787D71" fill-opacity="0.996"/>
</svg>
